<svg version="1" xmlns="http://www.w3.org/2000/svg" width="800" height="800" viewBox="0 0 600.000000 600.000000"><path d="M149.8 190.5c-.3 45.6-.4 83.2-.3 83.3.2.2 51.9.8 114.9 1.3l114.6.9 4.6-2.1c11.9-5.6 17.6-18 14-30.3-1.8-6-6.9-12.7-11.7-15.1-6.1-3.2-12.4-3.5-81-3.5-38.2-.1-76.7-.4-85.6-.7l-16.2-.6.6-30.6c.3-16.8.6-30.6.7-30.6 0 0 40.6.3 90.1.6l90 .6 9.6 2.6c31.9 8.4 54.8 31.8 63.5 64.7 2.5 9.5 2.3 30.9-.4 41.1-8.3 31-32 54.7-62.8 63-7.8 2.1-8.5 2.2-98.9 1.8-157.4-.7-159.4-.7-171.2 1.9-28.6 6.2-50.6 18.2-71.2 38.9-6.2 6.2-11.2 11.5-11 11.7.5.4 251.5 2.1 309.4 2.1 38 0 40.5-.2 50.5-2.3 27.8-6.1 50.6-18.6 70.5-38.6 27.8-28 42.3-64.8 40.9-104.6-2.2-66.3-47.8-120.6-112.6-134.1-10-2-13.7-2.1-115.8-3-58-.5-112.1-1-120.1-1.1l-14.6-.3-.5 83z"/><path d="M547.5 343.4c-4.7 9.3-15.4 25.2-23.7 35.1-28.4 34-67.5 57.7-110 66.5-20 4.1-22.1 4.2-154.8 3.5-117-.7-128.2-.6-135.5 1-27.8 5.8-52.2 19.2-72.1 39.8l-9.9 10.2 27.5.7c47.1 1.2 353 2.7 360.5 1.7 33.2-4.1 61.1-18.2 84.6-42.6 14.7-15.3 24.9-32.1 31.3-51.3 6.1-18.3 7.1-25.2 7.1-47.5 0-11.6-.4-20.7-1-21.6-.8-1.2-1.6-.4-4 4.5z"/></svg>