<svg id="Warstwa_2" data-name="Warstwa 2" xmlns="http://www.w3.org/2000/svg" viewBox="0 0 771.2 694.4"><defs><style>.cls-1{fill:none;stroke:#303031;stroke-linecap:round;stroke-linejoin:round;stroke-width:20px;}</style></defs><circle class="cls-1" cx="370.4" cy="137.34" r="21.4"/><circle class="cls-1" cx="241.66" cy="336.32" r="21.4"/><path class="cls-1" d="M639.81,212.55a15.64,15.64,0,0,0-15.59,15.6v166.1a11.46,11.46,0,0,0,11.44,11.44h11.17V267.14"/><path class="cls-1" d="M616.77,283.78A20.8,20.8,0,1,0,624.22,324V285.18A20.51,20.51,0,0,0,616.77,283.78Z"/><polyline class="cls-1" points="603.15 288.86 586.61 277.88 575.17 296.95"/><line class="cls-1" x1="580.89" y1="287.42" x2="402.22" y2="158.74"/><polyline class="cls-1" points="380.38 159.13 393.9 169.4 408.72 148.86"/><polyline class="cls-1" points="350.46 145.13 339.31 161.86 363.23 177.46 367.91 170.53"/><line class="cls-1" x1="351.39" y1="169.74" x2="262.05" y2="304.03"/><polyline class="cls-1" points="241.66 314.92 252.84 298.07 275.37 312.63"/><path class="cls-1" d="M216,419.73V393.22c0-36.4,24.95-35.49,24.95-35.49"/><path class="cls-1" d="M265.91,419.73V393.22c0-36.4-25-35.49-25-35.49"/><rect class="cls-1" x="194.85" y="419.73" width="90.78" height="18.72" rx="7.2"/><polyline class="cls-1" points="270.57 438.45 358.95 547.74 241.66 547.74"/><polyline class="cls-1" points="212.75 438.45 124.37 547.74 241.66 547.74"/><path class="cls-1" d="M205.54,547.74c0,.42-.07.84-.07,1.26,0,11.82,16.2,21.41,36.19,21.41s36.19-9.59,36.19-21.41c0-.42,0-.84-.07-1.26Z"/></svg>