<svg id="Warstwa_2" data-name="Warstwa 2" xmlns="http://www.w3.org/2000/svg" viewBox="0 0 771.2 694.4"><defs><style>.cls-1{fill:none;stroke:#303031;stroke-linecap:round;stroke-linejoin:round;stroke-width:20px;}</style></defs><path class="cls-1" d="M598,476.18s-1.39,50.08-19.59,83.36H530.76"/><path class="cls-1" d="M465.16,476.18s50.26-30,58.58-89.77h15.68C547.74,446.2,598,476.18,598,476.18H506.15"/><path class="cls-1" d="M465.16,476.18s1.39,50.08,19.58,83.36H532.4"/><path class="cls-1" d="M374.09,423.06h95.14l3-15.72C391.12,395.9,381,324.45,381,324.45h-6.94"/><path class="cls-1" d="M374.09,423.06H279l-3-15.72c81.11-11.44,91.2-82.89,91.2-82.89h6.93v-162"/><line class="cls-1" x1="530.76" y1="386.41" x2="530.76" y2="162.43"/><path class="cls-1" d="M442.2,423.06s-34.31,17.42-68.11,17.42"/><path class="cls-1" d="M306,423.06s34.31,17.42,68.1,17.42"/><polyline class="cls-1" points="218.12 566.03 277.39 566.03 232.33 417.34 240.65 343.17 218.12 343.17"/><polyline class="cls-1" points="218.12 566.03 158.85 566.03 203.91 417.34 195.59 343.17 218.12 343.17 218.12 162.43"/><path class="cls-1" d="M247.76,563.43c-3.12-3.11-22.88-98.26-22.88-98.26"/><path class="cls-1" d="M158.86,157.92H564.38s21.83,1.13,21.83-24.86H293.5"/></svg>