<svg id="Warstwa_2" data-name="Warstwa 2" xmlns="http://www.w3.org/2000/svg" width="272.06mm" height="244.97mm" viewBox="0 0 771.2 694.4"><defs><style>.cls-1{fill:none;stroke:#303031;stroke-linecap:round;stroke-linejoin:round;stroke-width:20px;}</style></defs><path class="cls-1" d="M309.13,160.86v27.77a27.28,27.28,0,0,0,27.28,27.28H511.78a27.28,27.28,0,0,0,27.28-27.28v-59H309.13"/><line class="cls-1" x1="539.06" y1="188.9" x2="344.2" y2="188.9"/><path class="cls-1" d="M474.28,387.78,323.88,576.61,191.77,472.28,342.18,283.44a34.11,34.11,0,0,1,47.91-5.62l16.61,13.12,62,48.93A34.11,34.11,0,0,1,474.28,387.78Z"/><path class="cls-1" d="M216.58,492.17c0,.32,0,.65,0,1a64.21,64.21,0,0,0,79.26,62.37"/><line class="cls-1" x1="453.19" y1="367.15" x2="343.98" y2="282.13"/><polyline class="cls-1" points="447.19 215.91 447.19 322.91 401 286.43 401 234.99"/></svg>