<svg id="Warstwa_2" data-name="Warstwa 2" xmlns="http://www.w3.org/2000/svg" viewBox="0 0 771.2 694.4"><defs><style>.cls-1,.cls-2{fill:none;stroke:#303031;stroke-miterlimit:10;stroke-width:20px;}.cls-2{stroke-linecap:round;}</style></defs><path class="cls-1" d="M451.62,384.51H554.56A13.29,13.29,0,0,0,567.66,369L545.84,242.86a13.29,13.29,0,0,0-13.1-11h-59.3a13.29,13.29,0,0,0-13.1,11L438.52,369A13.29,13.29,0,0,0,451.62,384.51Z"/><path class="cls-2" d="M537.85,405.21A13.3,13.3,0,0,0,551,420.78H653.89A13.3,13.3,0,0,0,667,405.21L645.17,279.12a13.3,13.3,0,0,0-13.1-11H572.13"/><line class="cls-2" x1="602.42" y1="420.78" x2="602.42" y2="448.67"/><line class="cls-2" x1="602.42" y1="448.67" x2="602.42" y2="463.75"/><circle class="cls-2" cx="601.85" cy="481.94" r="18.2"/><line class="cls-2" x1="503.09" y1="385.76" x2="503.09" y2="411.8"/><line class="cls-2" x1="503.09" y1="411.8" x2="503.09" y2="426.88"/><circle class="cls-2" cx="502.52" cy="445.08" r="18.2"/><path class="cls-2" d="M601.85,500.14S599.63,537,569.26,537c-28.91,0-20.08-47.12-47.15-47.12"/><path class="cls-2" d="M237.65,405.21a13.3,13.3,0,0,1-13.1,15.57H121.61a13.31,13.31,0,0,1-13.11-15.57l21.83-126.09a13.3,13.3,0,0,1,13.1-11h59.94"/><line class="cls-2" x1="173.08" y1="420.78" x2="173.08" y2="448.67"/><line class="cls-2" x1="173.08" y1="448.67" x2="173.08" y2="463.75"/><circle class="cls-2" cx="173.65" cy="481.94" r="18.2"/><path class="cls-2" d="M173.65,500.14S175.86,537,206.24,537c28.91,0,20.08-47.12,47.14-47.12"/><path class="cls-2" d="M502.52,463.27S506.88,541,472.57,541s-17.68-60.95-43-60.95c-6.33,0-11.18,4.83-14.9,12.08"/><path class="cls-2" d="M365.47,420.79a26.72,26.72,0,1,0,53.44,0c0-14.76-12-54-26.72-54S365.47,406,365.47,420.79Z"/><rect class="cls-2" x="362.42" y="491.52" width="59.54" height="45.75" rx="12"/><line class="cls-2" x1="392.19" y1="447.51" x2="392.19" y2="491.52"/><path class="cls-2" d="M371.74,323.34a20.46,20.46,0,0,0,40.91,0c0-11.3-9.16-27.8-20.46-27.8S371.74,312,371.74,323.34Z"/><circle class="cls-2" cx="392.19" cy="256.95" r="15.6"/><line class="cls-2" x1="392.19" y1="366.78" x2="392.19" y2="344.51"/><line class="cls-2" x1="392.19" y1="295.54" x2="392.19" y2="272.55"/><line class="cls-2" x1="392.19" y1="241.35" x2="390.89" y2="170.22"/><path class="cls-2" d="M292.15,142.24H489.64s2.42,16.28-12.65,16.28-18.69,9.88-18.69,9.88H323.48"/><path class="cls-1" d="M328.54,383.87H225.6a13.29,13.29,0,0,1-13.1-15.56l21.82-126.09a13.29,13.29,0,0,1,13.1-11h59.3a13.29,13.29,0,0,1,13.1,11l21.82,126.09A13.29,13.29,0,0,1,328.54,383.87Z"/><line class="cls-2" x1="277.07" y1="385.76" x2="277.07" y2="411.16"/><line class="cls-2" x1="277.07" y1="411.16" x2="277.07" y2="426.24"/><circle class="cls-2" cx="277.64" cy="444.44" r="18.2"/><path class="cls-2" d="M277.64,462.63s-4.36,77.76,29.95,77.76,17.68-60.95,43-60.95c6.33,0,11.18,4.84,14.9,12.08"/><path class="cls-2" d="M295.84,403.2c-3.84.8-36.4,0-36.4,0"/><path class="cls-2" d="M521.29,405c-3.84.8-36.4,0-36.4,0"/><path class="cls-2" d="M191.27,445.81c-3.83.8-36.39,0-36.39,0"/><path class="cls-2" d="M620.62,445.81c-3.84.8-36.4,0-36.4,0"/></svg>