<svg id="Warstwa_2" data-name="Warstwa 2" xmlns="http://www.w3.org/2000/svg" viewBox="0 0 771.2 694.4"><defs><style>.cls-1,.cls-2{fill:none;stroke:#303031;stroke-linecap:round;stroke-width:20px;}.cls-1{stroke-linejoin:round;}.cls-2{stroke-miterlimit:10;}</style></defs><path class="cls-1" d="M351.34,536.53s15.2,27.12,54.46,27.12,56.07-27.12,56.07-27.12"/><path class="cls-2" d="M354.77,172.51h95.6s21.83,1.13,21.83-24.87H403.06"/><polyline class="cls-2" points="404.73 173.02 404.73 300.15 426 329.09"/><line class="cls-2" x1="404.71" y1="300.15" x2="383.44" y2="329.09"/><path class="cls-2" d="M477,403.17l155.62,50.76a32.61,32.61,0,0,1,23.08,28.28l4.94,54.32H404.71"/><path class="cls-2" d="M332.41,403.17,176.79,453.93a32.61,32.61,0,0,0-23.08,28.28l-4.94,54.32H404.71"/><line class="cls-2" x1="648.16" y1="465.13" x2="255.64" y2="465.13"/><path class="cls-2" d="M394.07,355.08h56.16a11.67,11.67,0,0,0,11.64-11.64v-2.71a11.68,11.68,0,0,0-11.64-11.64H359.94a11.67,11.67,0,0,0-11.64,11.64v2.71a11.66,11.66,0,0,0,11.64,11.64h5V371.2"/><path class="cls-2" d="M477,403.17V386.8a15.65,15.65,0,0,0-15.6-15.6H348a15.65,15.65,0,0,0-15.6,15.6v16.37"/><line class="cls-2" x1="445.26" y1="370.3" x2="445.26" y2="355.75"/></svg>