<svg id="Warstwa_2" data-name="Warstwa 2" xmlns="http://www.w3.org/2000/svg" viewBox="0 0 771.2 694.4"><defs><style>.cls-1{fill:none;stroke:#303031;stroke-linecap:round;stroke-linejoin:round;stroke-width:20px;}</style></defs><path class="cls-1" d="M454.73,200.48a395,395,0,0,1-11.4,47.76,9.2,9.2,0,0,1-12.48,5.65L189.23,147.38a9,9,0,0,1-2-15.17C235.1,94.1,309.32,69.9,379,93.23c41.2,13.79,67.29,35.41,74.79,69.66"/><path class="cls-1" d="M442.58,385.18A14.9,14.9,0,0,1,414,378.65a15.06,15.06,0,0,1,14.87-14.32,14.87,14.87,0,0,1,9.23,3.19S531.94,301,531.94,258.1c0-32.7-40.46-69.66-40.46-69.66a19.36,19.36,0,0,0-15.78-8.14H418A14.91,14.91,0,0,0,392,171a15.05,15.05,0,0,0,.37,20.24,14.81,14.81,0,0,0,9.15,4.5"/><path class="cls-1" d="M435.53,392.5h0a10.3,10.3,0,0,0,6.08,9.52,15.65,15.65,0,0,1,9.52,14.35V474.9a15.65,15.65,0,0,1-15.6,15.6H422.29a15.65,15.65,0,0,1-15.6-15.6V416.37A15.65,15.65,0,0,1,416.21,402a10.3,10.3,0,0,0,6.08-9.52h0"/><line class="cls-1" x1="451.13" y1="416.37" x2="420.59" y2="416.37"/><path class="cls-1" d="M443.82,488.09s-4.16,13.06,17.93,25.54,60,32.76,60,32.76,4.68,2.86,5.72,7.79,23.13-2.08,21.83,48.09H428.91"/><path class="cls-1" d="M414,488.09s4.16,13.06-17.94,25.54S336,546.39,336,546.39s-4.68,2.86-5.72,7.79-23.13-2.08-21.83,48.09H428.91"/><path class="cls-1" d="M548.81,585.81s27.52,16.46,88.75,16.46"/><line class="cls-1" x1="527.52" y1="554.18" x2="368.66" y2="554.18"/></svg>