<svg width="652" height="338" viewBox="0 0 652 338" version="1.1" xmlns="http://www.w3.org/2000/svg" xmlns:xlink="http://www.w3.org/1999/xlink">
<title>Group 35</title>
<desc>Created using Figma</desc>
<g id="Canvas" transform="translate(-28003 -167)">
<g id="Group 35">
<g id="Rectangle 2.15">
<use xlink:href="#path0_fill" transform="translate(28003 167)" fill="#FFFFFF"/>
</g>
<g id="Group 34">
<g id="Group 2.1">
<g id="clouds (2)">
<g id="Vector">
<use xlink:href="#path1_fill" transform="translate(28036 239.433)" fill="#30C2FF" fill-opacity="0.2"/>
</g>
<g id="Vector">
<use xlink:href="#path2_fill" transform="translate(28160 347.695)" fill="#30C2FF" fill-opacity="0.2"/>
</g>
<g id="Vector">
<use xlink:href="#path3_fill" transform="translate(28160 349.517)" fill="#30C2FF" fill-opacity="0.15"/>
</g>
<g id="Vector">
<use xlink:href="#path4_fill" transform="translate(28052.4 189)" fill="#30C2FF" fill-opacity="0.1"/>
</g>
<g id="Vector">
<use xlink:href="#path5_fill" transform="translate(28036 316.604)" fill="#E5F8FF"/>
</g>
</g>
</g>
<g id="Group">
<g id="Vector">
<use xlink:href="#path6_fill" transform="matrix(1 -8.23631e-11 0.000266256 1 28215.8 369.972)" fill="#FFC107"/>
</g>
<g id="Vector">
<use xlink:href="#path7_fill" transform="matrix(0.000266256 1 -1 6.13233e-11 28257.7 328.199)" fill="#F44336"/>
</g>
<g id="Vector">
<use xlink:href="#path8_fill" transform="matrix(-1 1.1149e-11 -0.000266256 -1 28299.4 369.972)" fill="#8BC34A"/>
</g>
</g>
<g id="Group 33">
<g id="Group 104">
<g id="Vector">
<use xlink:href="#path9_fill" transform="matrix(-1 0 0 1 28631.5 247.586)" fill="#F2BF91"/>
</g>
<g id="Vector">
<use xlink:href="#path10_fill" transform="matrix(-1 0 0 1 28633.7 224.92)" fill="#FFC999"/>
</g>
<g id="Vector">
<use xlink:href="#path11_fill" transform="matrix(-1 0 0 1 28632.5 223.512)" fill="#F44336"/>
</g>
<g id="Vector">
<use xlink:href="#path12_fill" transform="matrix(-1 0 0 1 28562.1 214.327)" fill="#F2BF91"/>
</g>
<g id="Vector">
<use xlink:href="#path13_fill" transform="matrix(-0.0533201 -0.998577 0.998558 -0.0536784 28399.1 350.846)" fill="#30C2FF"/>
</g>
<g id="Vector">
<use xlink:href="#path14_fill" transform="matrix(-1 0 0 1 28562.1 224.993)" fill="#FFC999"/>
</g>
</g>
</g>
</g>
</g>
</g>
<defs>
<path id="path0_fill" d="M 0 0L 652 0L 652 338L 0 338L 0 0Z"/>
<path id="path1_fill" d="M 261.185 24.9139C 246.873 9.58307 226.499 0 203.89 0C 166.546 0 135.32 26.1512 127.421 61.1608C 122.734 59.595 117.727 58.7337 112.515 58.7337C 96.4704 58.7337 82.3118 66.7797 73.8197 79.0567C 69.0797 77.8305 64.1089 77.1716 58.985 77.1716C 26.4082 77.1716 0 103.619 0 136.244C 0 168.868 26.4082 195.319 58.985 195.319L 124.02 195.319C 124.158 175.239 140.444 159.005 160.524 159.005C 164.332 159.005 168.004 159.589 171.455 160.673C 171.439 160.12 171.414 159.565 171.414 159.005C 171.414 131.844 193.399 109.825 220.519 109.825C 243.903 109.825 263.458 126.202 268.404 148.123C 271.338 147.142 274.472 146.604 277.736 146.604C 287.782 146.604 296.65 151.642 301.967 159.331C 304.935 158.562 308.048 158.149 311.256 158.149C 324.702 158.149 336.467 165.347 342.927 176.102C 352.294 165.743 358 152.003 358 136.929C 358 104.678 331.897 78.5385 299.696 78.5385C 293.616 78.5385 287.753 79.4719 282.241 81.2016C 282.27 80.3171 282.308 79.4306 282.308 78.5385C 282.308 65.3512 279.063 52.9236 273.327 42.0108"/>
<path id="path2_fill" d="M 187.239 48.3236C 184.031 48.3236 180.918 48.7353 177.951 49.5056C 172.634 41.8154 163.766 36.7784 153.719 36.7784C 150.455 36.7784 147.322 37.3169 144.387 38.298C 139.441 16.3763 119.887 1.19673e-06 96.5025 1.19673e-06C 69.3825 1.19673e-06 47.3975 22.0183 47.3975 49.1793C 47.3975 49.7395 47.422 50.2941 47.4388 50.8473C 43.9874 49.764 40.3158 49.1793 36.5078 49.1793C 16.3457 49.1793 -1.10961e-06 65.5465 -1.10961e-06 85.7441C -1.10961e-06 105.936 16.3464 122.305 36.5078 122.305L 145.817 122.305L 166.103 122.305L 187.241 122.305C 207.641 122.305 224.179 105.743 224.179 85.3142C 224.177 64.8841 207.639 48.3236 187.239 48.3236Z"/>
<path id="path3_fill" d="M 75.4433 37.0725C 75.4433 23.8747 78.2402 11.3323 83.2641 0C 62.5776 5.78906 47.3975 24.7913 47.3975 47.3565C 47.3975 47.9167 47.422 48.4713 47.4388 49.0245C 43.9874 47.9412 40.3158 47.3565 36.5078 47.3565C 16.3457 47.3565 0 63.7237 0 83.9214C 0 104.113 16.3464 120.482 36.5078 120.482L 129.279 120.482C 97.5402 106.16 75.4433 74.2003 75.4433 37.0725Z"/>
<path id="path4_fill" d="M 92.6764 92.2314L 119.424 92.2314C 129.416 73.8733 146.493 59.9535 166.988 54.1673C 162.865 44.1409 153.019 37.083 141.523 37.083C 138.65 37.083 135.881 37.5263 133.28 38.3421C 133.294 37.9233 133.312 37.5053 133.312 37.083C 133.312 16.6046 116.73 4.27405e-07 96.2809 4.27405e-07C 78.6444 4.27405e-07 63.9006 12.347 60.1716 28.8781C 57.9565 28.1386 55.5931 27.7338 53.1311 27.7338C 45.5558 27.7338 38.8684 31.532 34.8584 37.3295C 32.6208 36.7518 30.2715 36.4388 27.8528 36.4388C 12.4699 36.4388 4.16102e-07 48.9279 4.16102e-07 64.3344C 4.16102e-07 79.738 12.4706 92.23 27.8528 92.23L 72.3842 92.23"/>
<path id="path5_fill" d="M 62.5399 0.109945C 61.3638 0.0385182 60.1793 -5.20044e-06 58.985 -5.20044e-06C 26.4082 -0.000705461 0 26.4475 0 59.0726C 0 91.6964 26.4082 118.147 58.985 118.147L 124.02 118.147C 124.063 111.846 125.699 105.925 128.54 100.765C 96.3837 75.9804 72.6919 40.7356 62.5399 0.109945Z"/>
<path id="path6_fill" d="M 41.9039 111.212L 86.0395 111.171L 152.134 111.107L 152.031 0L 108.548 0.05369C 111.77 7.99593 117.093 14.0076 117.073 20.9034L 117.059 21.6693C 116.64 32.4982 107.781 41.1973 96.9099 41.2107C 85.8217 41.22 76.7502 32.182 76.743 20.9072C 78.5627 10.7615 82.8579 7.77776 86.1541 0.068201L 41.8012 0.105457L 41.83 45.2048C 33.5238 41.7638 30.6734 37.222 20.1632 35.3813C 9.07495 35.3907 -0.00720436 44.4138 4.28825e-06 55.6887C 0.0133332 66.6352 8.65021 75.665 19.4063 75.9778L 20.167 75.9922C 27.3411 76.0183 33.428 70.2224 41.8567 67.0978L 41.9039 111.212Z"/>
<path id="path7_fill" d="M 41.9887 110.437L 86.2136 110.396L 152.442 110.333L 152.339 0L 108.768 0.0533159C 111.996 7.94021 117.33 13.9099 117.31 20.7577L 117.296 21.5183C 116.876 32.2717 107.999 40.9102 97.106 40.9235C 85.9954 40.9327 76.9055 31.9577 76.8983 20.7615C 78.7217 10.6865 83.0256 7.72356 86.3284 0.0677257L 41.8858 0.104722L 41.9147 44.8897C 33.5916 41.4728 30.7355 36.9626 20.204 35.1348C 9.09331 35.144 -0.00721894 44.1043 4.29693e-06 55.3006C 0.0133601 66.1708 8.66771 75.1377 19.4456 75.4483L 20.2078 75.4626C 27.3964 75.4886 33.4957 69.733 41.9414 66.6302L 41.9887 110.437Z"/>
<path id="path8_fill" d="M 41.9014 110.667L 111.154 110.617L 152.125 110.562L 152.023 0L 108.542 0.0534269C 111.763 7.95673 117.086 13.9389 117.066 20.8009L 117.052 21.5631C 116.633 32.3389 107.775 40.9953 96.9043 41.0087C 85.8167 41.0179 76.7457 32.0243 76.7385 20.8047C 78.5582 10.7088 82.8531 7.73963 86.1491 0.0678667L 41.7988 0.10494L 41.8276 44.9832C 33.5218 41.5591 30.6716 37.0395 20.162 35.2079C 9.07442 35.2172 -0.00720394 44.1961 4.288e-06 55.4157C 0.0133324 66.3086 8.6497 75.2941 19.4052 75.6054L 20.1658 75.6197C 27.3395 75.6457 33.4261 69.8782 41.8543 66.7689L 41.9014 110.667Z"/>
<path id="path9_fill" d="M 91.5046 14.5184L 0 33.4812L 0 19.7035L 87.1402 4.52109e-06L 91.5046 14.5184Z"/>
<path id="path10_fill" d="M 71.6059 0L 0 8.6666L 1.25754 45.333L 93.7239 28.222L 71.6059 0Z"/>
<path id="path11_fill" d="M 66.2059 4.52109e-06L 68.9429 46.7404L 3.52731e-08 63.4069L 3.52731e-08 4.29626L 66.2059 4.52109e-06Z"/>
<path id="path12_fill" d="M 112.439 13.0369L 67.2415 -2.26054e-06L 2.25748e-06 10.5925L 19.233 44.9626C 19.233 44.9626 24.3371 52.5922 31.7344 52.9625C 39.2057 53.2588 112.439 13.0369 112.439 13.0369Z"/>
<path id="path13_fill" d="M 42.0365 110.424L 86.3117 110.383L 152.616 110.319L 152.513 0L 108.891 0.0533094C 112.123 7.93924 117.464 13.9082 117.444 20.7551L 117.429 21.5157C 117.009 32.2678 108.122 40.9052 97.2166 40.9185C 86.0933 40.9277 76.993 31.9538 76.9858 20.759C 78.8113 10.6852 83.1201 7.72261 86.4267 0.0677175L 41.9335 0.104709L 41.9624 44.8842C 33.6299 41.4677 30.7705 36.9581 20.227 35.1305C 9.10367 35.1397 -0.00722716 44.0989 4.30182e-06 55.2938C 0.0133753 66.1628 8.67758 75.1285 19.4677 75.4391L 20.2308 75.4534C 27.4276 75.4794 33.5338 69.7245 41.9891 66.6221L 42.0365 110.424Z"/>
<path id="path14_fill" d="M 54.962 20.4444C 54.962 20.4444 74.2689 22.1481 75.8963 22.2962C 98.828 24.7406 95.4992 12.0741 95.4992 12.0741L 52.8907 4.22227L 2.25748e-06 8.62717e-05C 2.25748e-06 -0.0739872 9.17266 50.2219 54.962 20.4444Z"/>
</defs>
</svg>
