<svg width="652" height="338" viewBox="0 0 652 338" version="1.1" xmlns="http://www.w3.org/2000/svg" xmlns:xlink="http://www.w3.org/1999/xlink">
<title>Group 2</title>
<desc>Created using Figma</desc>
<g id="Canvas" transform="translate(-28003 -1225)">
<g id="Group 2">
<g id="Rectangle 4">
<use xlink:href="#path0_fill" transform="translate(28003 1225)" fill="#FFFFFF"/>
</g>
<g id="Group">
<g id="Group">
<g id="Group">
<g id="Vector">
<use xlink:href="#path1_fill" transform="translate(28365.8 1361.04)" fill="#EFAB95"/>
</g>
<g id="XMLID 245">
<use xlink:href="#path2_fill" transform="translate(28365.3 1374.07)" fill="#F9C9B7"/>
</g>
<g id="XMLID 244">
<use xlink:href="#path3_fill" transform="matrix(-1 -1.22502e-16 1.22428e-16 -1 28382 1555)" fill="#30C2FF"/>
</g>
<g id="XMLID 239">
<g id="XMLID 242">
<use xlink:href="#path4_fill" transform="matrix(0.922259 0.386499 -0.386301 0.922341 28388 1350.58)" fill="#B6C6CC"/>
</g>
<g id="Vector">
<use xlink:href="#path5_fill" transform="translate(28377.3 1309.16)" fill="#E0E0E0"/>
</g>
<g id="XMLID 240">
<use xlink:href="#path6_fill" transform="translate(28372.1 1352.86)" fill="#E0E0E0"/>
</g>
</g>
<g id="Group">
<g id="XMLID 238">
<use xlink:href="#path7_fill" transform="translate(28386.5 1359.21)" fill="#F9C9B7"/>
</g>
<g id="XMLID 237">
<use xlink:href="#path8_fill" transform="translate(28379.6 1372.66)" fill="#F9C9B7"/>
</g>
<g id="Group">
<g id="Vector">
<use xlink:href="#path9_fill" transform="translate(28387 1366.75)" fill="#F9C9B7"/>
</g>
<g id="Vector">
<use xlink:href="#path10_fill" transform="translate(28384 1365.34)" fill="#F9C9B7"/>
</g>
<g id="Vector">
<use xlink:href="#path11_fill" transform="translate(28382.2 1365.67)" fill="#EFAB95"/>
</g>
</g>
<g id="XMLID 236">
<use xlink:href="#path12_fill" transform="translate(28383.7 1381.86)" fill="#F9C9B7"/>
</g>
</g>
<g id="XMLID 235">
<use xlink:href="#path13_fill" transform="translate(28365 1363.73)" fill="#F9C9B7"/>
</g>
</g>
<g id="Group">
<g id="XMLID 194">
<g id="Union">
<use xlink:href="#path14_fill" transform="translate(28154.7 1427.56)" fill="#F43425"/>
</g>
<g id="XMLID 214">
</g>
<g id="XMLID 212">
</g>
<g id="Union">
<use xlink:href="#path15_fill" transform="translate(28157.4 1394.63)" fill="#D6D6D6"/>
</g>
<g id="XMLID 206">
<use xlink:href="#path16_fill" transform="translate(28160.8 1441.67)" fill="#C64A4A"/>
</g>
<g id="XMLID 197">
<use xlink:href="#path17_fill" transform="translate(28159.6 1441.67)" fill="#BC342E"/>
</g>
</g>
<g id="XMLID 192">
<use xlink:href="#path18_fill" transform="translate(28139.8 1438.54)" fill="#F9C9B7"/>
</g>
<g id="Group">
<g id="Union">
<use xlink:href="#path19_fill" transform="translate(28176.8 1438.22)" fill="#8BC34A"/>
</g>
</g>
</g>
<g id="Group">
<g id="XMLID 188">
<use xlink:href="#path20_fill" transform="translate(28442 1471.37)" fill="#EFAB95"/>
</g>
<g id="XMLID 181">
<use xlink:href="#path21_fill" transform="translate(28414.8 1442.1)" fill="#F9C9B7"/>
</g>
<g id="Union">
<use xlink:href="#path22_fill" transform="translate(28328.5 1440.48)" fill="#FFC107"/>
</g>
<g id="XMLID 170">
<use xlink:href="#path23_fill" transform="translate(28457 1415)" fill="#30C2FF"/>
</g>
</g>
<g id="Group">
<g id="XMLID 104">
<g id="XMLID 105">
<g id="XMLID 163">
<g id="XMLID 164">
<use xlink:href="#path24_fill" transform="translate(28291.1 1272.29)" fill="#FFC107"/>
</g>
</g>
<g id="XMLID 160">
<g id="XMLID 161">
<use xlink:href="#path25_fill" transform="translate(28276.1 1281.26)" fill="#FFC107"/>
</g>
</g>
<g id="XMLID 158">
<g id="XMLID 159">
<use xlink:href="#path26_fill" transform="translate(28277 1298.65)" fill="#FFC107"/>
</g>
</g>
<g id="XMLID 156">
<g id="XMLID 157">
<use xlink:href="#path27_fill" transform="translate(28271 1313.19)" fill="#FFC107"/>
</g>
</g>
<g id="XMLID 154">
<g id="XMLID 155">
<use xlink:href="#path28_fill" transform="translate(28282.7 1326.02)" fill="#FFC107"/>
</g>
</g>
<g id="XMLID 152">
<g id="XMLID 153">
<use xlink:href="#path29_fill" transform="translate(28288.6 1336.78)" fill="#FFC107"/>
</g>
</g>
<g id="XMLID 150">
<g id="XMLID 151">
<use xlink:href="#path30_fill" transform="translate(28346.2 1335.57)" fill="#FFC107"/>
</g>
</g>
<g id="XMLID 148">
<g id="XMLID 149">
<use xlink:href="#path31_fill" transform="translate(28355.5 1324.81)" fill="#FFC107"/>
</g>
</g>
<g id="XMLID 143">
<g id="XMLID 147">
<use xlink:href="#path32_fill" transform="translate(28360.1 1311.38)" fill="#FFC107"/>
</g>
</g>
<g id="XMLID 140">
<g id="XMLID 142">
<use xlink:href="#path33_fill" transform="matrix(0.980254 -0.198023 0.196579 0.980545 28359.7 1297.87)" fill="#FFC107"/>
</g>
</g>
<g id="XMLID 127">
<g id="XMLID 134">
<use xlink:href="#path34_fill" transform="translate(28354.2 1279.2)" fill="#FFC107"/>
</g>
</g>
<g id="XMLID 122">
<g id="XMLID 123">
<use xlink:href="#path35_fill" transform="translate(28344.7 1271.32)" fill="#FFC107"/>
</g>
</g>
<g id="XMLID 119">
<g id="XMLID 120">
<use xlink:href="#path36_fill" transform="translate(28332.4 1258)" fill="#FFC107"/>
</g>
</g>
<g id="XMLID 115">
<g id="XMLID 116">
<use xlink:href="#path37_fill" transform="translate(28319 1262.02)" fill="#FFC107"/>
</g>
</g>
<g id="XMLID 106">
<g id="XMLID 113">
<use xlink:href="#path38_fill" transform="translate(28301.6 1258.85)" fill="#FFC107"/>
</g>
</g>
</g>
</g>
<g id="XMLID 103">
<use xlink:href="#path39_fill" transform="translate(28306.9 1348.99)" fill="#EFAB95"/>
</g>
<g id="XMLID 101">
<use xlink:href="#path40_fill" transform="translate(28299.1 1347.48)" fill="#F9C9B7"/>
</g>
<g id="XMLID 99">
<use xlink:href="#path41_fill" transform="translate(28295.9 1375.87)" fill="#F44336"/>
</g>
<g id="XMLID 81">
<g id="XMLID 95">
<g id="XMLID 97">
<use xlink:href="#path42_fill" transform="translate(28292.7 1276.47)" fill="#FFEB3B"/>
</g>
<g id="XMLID 96">
<use xlink:href="#path43_fill" transform="translate(28302.6 1277.41)" fill="#FFEB3B"/>
</g>
</g>
<g id="XMLID 89">
<g id="XMLID 90">
<use xlink:href="#path44_fill" transform="translate(28305 1305.74)" fill="#EAB344"/>
</g>
</g>
<g id="XMLID 82">
<g id="XMLID 87">
<use xlink:href="#path45_fill" transform="translate(28306.7 1336.07)" fill="#FFFFFF"/>
</g>
<g id="XMLID 86">
<use xlink:href="#path46_fill" transform="translate(28315.9 1358.46)" fill="#1F418C"/>
</g>
<g id="XMLID 85">
<use xlink:href="#path47_fill" transform="matrix(-1 -0.0032173 0.00321537 -1 28342.9 1341.01)" fill="#B6C6CC"/>
</g>
<g id="XMLID 84">
<use xlink:href="#path48_fill" transform="matrix(-1 -0.0032143 0.00321237 -1 28342.9 1345.51)" fill="#B6C6CC"/>
</g>
<g id="XMLID 83">
<use xlink:href="#path49_fill" transform="matrix(-1 -0.00321731 0.00321538 -1 28342.8 1350.01)" fill="#B6C6CC"/>
</g>
</g>
</g>
<g id="Group">
<g id="XMLID 80">
<use xlink:href="#path50_fill" transform="translate(28297.8 1336.18)" fill="#F9C9B7"/>
</g>
<g id="Group">
<g id="XMLID 79">
<use xlink:href="#path51_fill" transform="translate(28328.3 1326.38)" fill="#F9C9B7"/>
</g>
<g id="XMLID 78">
<use xlink:href="#path52_fill" transform="translate(28322.2 1334.99)" fill="#F9C9B7"/>
</g>
<g id="XMLID 77">
<use xlink:href="#path53_fill" transform="translate(28324.3 1343.39)" fill="#F9C9B7"/>
</g>
<g id="XMLID 76">
<use xlink:href="#path54_fill" transform="translate(28329.7 1351.56)" fill="#F9C9B7"/>
</g>
</g>
</g>
</g>
<g id="Group">
<g id="XMLID 75">
<use xlink:href="#path55_fill" transform="translate(28220.7 1341.02)" fill="#EFAB95"/>
</g>
<g id="XMLID 63">
<g id="XMLID 71">
<use xlink:href="#path56_fill" transform="translate(28222.7 1321.53)" fill="#E0E0E0"/>
</g>
<g id="XMLID 70">
<use xlink:href="#path57_fill" transform="translate(28222.7 1288.68)" fill="#FFEB3B"/>
</g>
<g id="XMLID 68">
<use xlink:href="#path58_fill" transform="translate(28222.7 1311.52)" fill="#9E9E9E"/>
</g>
<g id="XMLID 67">
<use xlink:href="#path59_fill" transform="translate(28222.7 1312.05)" fill="#C5C5C5"/>
</g>
<g id="XMLID 66">
<use xlink:href="#path60_fill" transform="translate(28222.7 1315.66)" fill="#C5C5C5"/>
</g>
<g id="XMLID 65">
<use xlink:href="#path61_fill" transform="translate(28222.7 1319.26)" fill="#C5C5C5"/>
</g>
</g>
<g id="XMLID 62">
<use xlink:href="#path62_fill" transform="translate(28243.2 1357.38)" fill="#F9C9B7"/>
</g>
<g id="XMLID 61">
<use xlink:href="#path63_fill" transform="translate(28227.8 1386.98)" fill="#9C27B0"/>
</g>
<g id="XMLID 59">
<use xlink:href="#path64_fill" transform="translate(28213.4 1336.5)" fill="#F9C9B7"/>
</g>
<g id="Group">
<g id="Vector">
<use xlink:href="#path65_fill" transform="translate(28212.3 1345.54)" fill="#F9C9B7"/>
</g>
<g id="Vector">
<use xlink:href="#path66_fill" transform="translate(28235.3 1345.54)" fill="#EFAB95"/>
</g>
</g>
<g id="XMLID 58">
<use xlink:href="#path67_fill" transform="translate(28215 1354.47)" fill="#F9C9B7"/>
</g>
<g id="XMLID 57">
<use xlink:href="#path68_fill" transform="translate(28217.6 1363.08)" fill="#F9C9B7"/>
</g>
<g id="XMLID 56">
<use xlink:href="#path69_fill" transform="translate(28239.7 1345.11)" fill="#F9C9B7"/>
</g>
</g>
</g>
<g id="Group">
<g id="Group">
<g id="XMLID 49" opacity="0.5">
<use xlink:href="#path70_fill" transform="translate(28031 1326.23)" fill="#30C2FF"/>
</g>
<g id="XMLID 46" opacity="0.5">
<use xlink:href="#path71_fill" transform="translate(28067.5 1388.77)" fill="#30C2FF"/>
</g>
<g id="XMLID 43" opacity="0.5">
<use xlink:href="#path72_fill" transform="translate(28161.1 1299)" fill="#30C2FF"/>
</g>
</g>
<g id="Group" opacity="0.5">
<g id="Vector">
<use xlink:href="#path73_fill" transform="translate(28091.4 1360.89)" fill="#30C2FF"/>
</g>
<g id="Vector">
<use xlink:href="#path74_fill" transform="translate(28111.7 1314.82)" fill="#30C2FF"/>
</g>
<g id="Vector">
<use xlink:href="#path75_fill" transform="translate(28108.2 1417.19)" fill="#30C2FF"/>
</g>
</g>
</g>
<g id="Group" opacity="0.5">
<g id="Group">
<g id="XMLID 40">
<use xlink:href="#path76_fill" transform="translate(28567.2 1474.79)" fill="#30C2FF"/>
</g>
<g id="XMLID 22">
<use xlink:href="#path77_fill" transform="translate(28544.2 1426.14)" fill="#30C2FF"/>
</g>
<g id="XMLID 3">
<use xlink:href="#path78_fill" transform="translate(28457 1522.26)" fill="#30C2FF"/>
</g>
</g>
<g id="Group">
<g id="Vector">
<use xlink:href="#path79_fill" transform="translate(28537.6 1475.44)" fill="#30C2FF"/>
</g>
<g id="Vector">
<use xlink:href="#path80_fill" transform="translate(28509.5 1517.95)" fill="#30C2FF"/>
</g>
<g id="Vector">
<use xlink:href="#path81_fill" transform="translate(28519.2 1390.94)" fill="#30C2FF"/>
</g>
</g>
</g>
</g>
</g>
</g>
<defs>
<path id="path0_fill" d="M 0 0L 652 0L 652 338L 0 338L 0 0Z"/>
<path id="path1_fill" d="M 37.4475 6.02785L 26.0411 2.58336L 25.8259 -3.28492e-06L -1.31357e-05 18.837L 0.107601 44.0248L 16.3564 44.0248L 16.3564 41.2262C 16.3564 39.8269 17.1096 38.5352 18.2933 37.8893C 20.2303 36.8129 23.2433 35.0907 25.0726 33.9066C 26.6867 32.8302 27.8704 32.5073 28.4085 30.4622L 37.4475 6.02785Z"/>
<path id="path2_fill" d="M -1.31357e-05 29.8163C -1.31357e-05 35.1983 1.82935 33.6914 6.34887 33.6914C 14.7423 33.9067 16.464 24.9725 16.464 19.5905L 16.464 16.2537C 16.464 9.04178 9.25429 3.28492e-06 4.73476 3.28492e-06C 0.215229 3.28492e-06 0.107601 4.30561 0.107601 9.68762L -1.31357e-05 29.8163Z"/>
<path id="path3_fill" d="M 21.5 0L 0 0L 0.0585938 151.144L 21.5802 151.144L 21.5 0Z"/>
<path id="path4_fill" d="M 5.91869 3.28477e-06L -6.56816e-06 3.28477e-06L -6.56816e-06 7.10393L 5.91869 7.10393L 5.91869 3.28477e-06Z"/>
<path id="path5_fill" d="M 30.9881 1.72086C 19.5816 -3.01531 6.45349 2.36671 1.71874 13.6689C -3.016 25.0788 2.36437 38.2109 13.7708 42.947C 25.1772 47.6832 38.3054 42.3012 43.0401 30.8913C 47.7749 19.5891 42.3945 6.45703 30.9881 1.72086ZM 16.5686 36.2734C 8.92845 33.0441 5.26979 24.2177 8.49802 16.4676C 11.7263 8.82511 20.5501 5.16535 28.2979 8.39455C 35.938 11.6238 39.5967 20.4502 36.3684 28.2003C 33.0326 35.8428 24.2088 39.5026 16.5686 36.2734Z"/>
<path id="path6_fill" d="M 6.86197 34.4449L 1.58919 32.1844C 0.2979 31.6462 -0.347767 30.1392 0.190272 28.8476L 12.2424 -1.64246e-06L 22.2499 4.19797L 10.1978 33.0455C 9.65978 34.3372 8.15327 34.9831 6.86197 34.4449Z"/>
<path id="path7_fill" d="M 0.211088 2.15543C -0.326951 3.6624 0.211088 5.277 1.28717 5.70756L 14.3077 10.0132C 15.4914 10.4437 16.8903 9.47497 17.4283 7.968C 17.9664 6.46104 17.4283 4.84644 16.3523 4.41588L 3.33171 0.11027C 2.14802 -0.320291 0.749128 0.540832 0.211088 2.15543Z"/>
<path id="path8_fill" d="M 0.211062 2.15543C -0.326977 3.6624 0.211062 5.277 1.28714 5.70756L 16.4598 10.7666C 17.6435 11.1972 19.0424 10.2284 19.5805 8.72148C 20.1185 7.21452 19.5805 5.59992 18.5044 5.16936L 3.33172 0.11027C 2.14803 -0.320291 0.749101 0.540832 0.211062 2.15543Z"/>
<path id="path9_fill" d="M 13.7738 3.65977L 2.79781 0C 2.90542 1.82988 1.3989 4.62853 0 5.38201L 11.7292 9.25705C 12.9129 9.68761 14.3118 8.71885 14.8499 7.21189C 15.4955 5.70493 14.9575 4.09033 13.7738 3.65977Z"/>
<path id="path10_fill" d="M 1.61413 0.112005C 1.07609 -0.103275 0.538052 0.0043614 1.31357e-05 0.327282L 2.25975 0.327282L 1.61413 0.112005Z"/>
<path id="path11_fill" d="M 7.63602 1.18404L 3.97736 0L 1.71759 0C 1.07194 0.32292 0.533912 0.968758 0.211088 1.82988C -0.326951 3.33684 0.211088 4.95145 1.28717 5.38201L 4.7306 6.56605C 6.23711 5.81257 7.74363 2.90628 7.63602 1.18404Z"/>
<path id="path12_fill" d="M 0.211082 2.11265C -0.326957 3.61961 0.211082 5.23422 1.28716 5.66478L 9.89579 8.57106C 11.0795 9.00162 12.4784 8.03286 13.0164 6.52589C 13.5544 5.01893 13.0164 3.40433 11.9403 2.97377L 3.3317 0.0674827C 2.14802 -0.255438 0.749121 0.605685 0.211082 2.11265Z"/>
<path id="path13_fill" d="M 0.215203 39.5039L 6.56786e-06 13.0245C 6.56786e-06 12.3786 0.107608 11.8404 0.430431 11.3022L 5.91844 1.6146C 6.45648 0.645838 7.53256 -3.28492e-06 8.71625 -3.28492e-06L 20.8759 -3.28492e-06C 22.49 1.39932 19.9074 6.67369 17.9705 6.67369C 16.0336 6.67369 12.1597 6.88897 12.1597 6.88897L 10.8684 13.0245L 0.215203 39.5039Z"/>
<path id="path14_fill" fill-rule="evenodd" d="M 6.13281 41.2262L 6.13281 41.3339L 3.87346 41.3339C 1.82849 41.3339 0.107187 40.0421 0.107187 38.4275L 0.214375 11.8404L 0 0L 12.0512 0L 12.1584 11.087L 12.1584 38.3199C 12.1584 39.9345 10.4371 41.2262 8.39215 41.2262L 6.13281 41.2262ZM 4.94954 14.962L 4.94954 37.5664C 4.94954 38.0746 5.42873 38.4867 6.02562 38.6218L 6.02562 38.5352C 6.67084 38.5352 7.1017 38.1046 7.1017 37.5664L 7.1017 14.962C 7.1017 14.7467 6.99451 14.5314 6.77803 14.3162C 6.56366 14.2084 6.34928 14.1008 6.02562 14.1008L 6.02562 13.9932C 5.38039 14.1008 4.94954 14.4238 4.94954 14.962Z"/>
<path id="path15_fill" fill-rule="evenodd" d="M 5.5918 32.9379L 5.5918 8.61121L 5.69922 8.61121L 6.77539 3.65979L 3.43945 0L 3.33203 0.107666L 0 3.76672L 1.18359 8.71814L 1.18164 32.9379L 3.33203 32.9379L 5.5918 32.9379Z"/>
<path id="path16_fill" d="M 0.0478249 24.4343C 0.693472 24.4343 1.1239 24.0038 1.1239 23.4655L 1.1239 0.861115C 1.1239 0.645834 1.0163 0.430564 0.80108 0.215284C 0.585865 3.28813e-06 0.370648 6.56983e-06 0.0478249 6.56983e-06L 0.0478249 24.4343C 0.0478249 24.4343 -0.0597829 24.4343 0.0478249 24.4343Z"/>
<path id="path17_fill" d="M 8.20983e-07 0.861115L 8.20983e-07 23.4655C 8.20983e-07 24.0038 0.430432 24.3267 1.07608 24.4343L 1.07608 6.56983e-06C 0.53804 6.56983e-06 8.20983e-07 0.322914 8.20983e-07 0.861115Z"/>
<path id="path18_fill" d="M 7.10212 30.3545C 7.10212 28.5246 8.60863 27.0177 10.438 27.0177L 6.8869 27.0177C 5.05757 27.0177 3.55106 25.5107 3.55106 23.6808C 3.55106 21.8509 5.05757 20.344 6.8869 20.344L 3.33584 20.344C 1.50651 20.344 -8.20983e-07 18.837 -8.20983e-07 17.0071C -8.20983e-07 15.1773 1.50651 13.6703 3.33584 13.6703L 6.8869 13.6703C 5.05757 13.6703 3.55106 12.1633 3.55106 10.3335C 3.55106 8.50358 5.05757 6.99661 6.8869 6.99661L 11.2988 6.99661L 11.2988 2.26045C 11.2988 0.968765 12.2673 -3.28492e-06 13.5586 -3.28492e-06L 28.5161 -3.28492e-06C 29.6998 -3.28492e-06 30.7758 0.645834 31.3139 1.82988L 32.6052 4.62853C 33.1432 5.70493 34.2193 6.45841 35.403 6.45841L 41.8594 6.45841L 41.8594 28.7399L 34.5421 28.7399C 33.7889 28.7399 33.1432 29.0628 32.6052 29.601L 29.2693 33.0455C 28.6237 33.6914 27.8704 34.0143 27.0096 34.0143L 10.5456 34.0143C 8.60862 33.6914 7.10212 32.1844 7.10212 30.3545Z"/>
<path id="path19_fill" d="M 60.4748 0C 93.8332 0 120.952 27.1253 120.952 60.4937L 120.952 116.703L 87.8076 116.703L 87.8076 60.4939C 87.8076 45.4242 75.5399 33.2608 60.584 33.2608L 0 33.2608L 0 0L 60.4748 0Z"/>
<path id="path20_fill" d="M 6.56786e-06 4.52088L 6.56786e-06 3.98268C 6.56786e-06 2.1528 1.50652 -3.28492e-06 3.33586 -3.28492e-06L 19.477 1.72225L 33.7889 0.753475C 35.6182 0.753475 37.1247 2.26044 37.1247 4.09033L 37.1247 4.62853C 37.1247 6.45841 35.6182 7.96538 33.7889 7.96538L 3.44344 7.96538C 1.39889 7.85774 6.56786e-06 6.35076 6.56786e-06 4.52088Z"/>
<path id="path21_fill" d="M 28.9465 2.1528L 42.0747 11.7328C 44.2268 13.2397 44.7649 16.2537 43.366 18.5141C 41.8594 20.8822 38.7388 21.6357 36.3714 20.1287L 25.9335 13.5627C 25.0726 13.0245 23.8889 13.6703 23.8889 14.7467L 23.8889 18.0835L 38.5236 31.7538C 38.5236 31.7538 47.6703 33.0455 48.9615 33.3684L 64.7799 33.3684C 66.8245 33.3684 68.5462 35.0907 68.5462 37.1359C 68.5462 39.181 66.8245 40.9033 64.7799 40.9033L 50.6833 41.0109C 49.6072 41.4415 33.8965 41.3338 33.8965 41.3338L -1.31357e-05 24.9725L -1.31357e-05 -3.05932e-14L 24.3194 -3.05932e-14C 25.7183 0.10764 27.8704 1.0764 28.9465 2.1528Z"/>
<path id="path22_fill" d="M 89.9597 31.8615L 89.9597 0L 59.9367 0C 26.902 0 0 26.91 0 59.9555L 0.539062 114.443L 13.0201 114.443L 31.9587 114.443L 31.9587 58.8791C 31.9587 44.0248 44.0099 31.8615 58.9678 31.8615L 89.9597 31.8615Z"/>
<path id="path23_fill" d="M 31.4215 22.2815L 35.403 22.2815C 36.1562 22.2815 36.8019 21.6357 36.8019 20.8822L 36.8019 15.8231C 36.8019 15.0696 36.1562 14.4238 35.403 14.4238L 32.2823 14.4238C 31.7443 14.4238 31.3139 14.1009 31.0987 13.5627C 30.9911 13.2397 30.8834 13.0245 30.7758 12.7015C 30.5606 12.271 30.6682 11.7328 30.9911 11.3022L 33.1432 9.14941C 33.6813 8.61121 33.6813 7.64246 33.1432 7.10425L 29.5921 3.55213C 29.0541 3.01392 28.0856 3.01392 27.5476 3.55213L 25.3954 5.81258C 25.0726 6.1355 24.5346 6.24313 24.1042 6.02785C 23.7813 5.92021 23.4585 5.70492 23.1357 5.59728C 22.7052 5.382 22.3824 4.95144 22.3824 4.52088L 22.3824 1.39932C 22.3824 0.645841 21.7368 -3.28492e-06 20.9835 -3.28492e-06L 15.8183 -3.28492e-06C 15.0651 -3.28492e-06 14.4195 0.645841 14.4195 1.39932L 14.4195 4.52088C 14.4195 5.05908 14.0966 5.48965 13.5586 5.70493C 13.2358 5.81257 12.9129 5.92021 12.6977 6.02785C 12.2673 6.24313 11.7292 6.1355 11.2988 5.81258L 9.14665 3.65977C 8.60861 3.12157 7.64015 3.12157 7.10211 3.65977L 3.55106 7.21188C 3.01303 7.75009 3.01303 8.71886 3.55106 9.25706L 5.81084 11.4099C 6.13366 11.7328 6.24125 12.271 6.02603 12.7015C 5.91842 13.0245 5.70321 13.3474 5.59561 13.6703C 5.38039 14.1009 4.94996 14.4238 4.51953 14.4238L 1.39891 14.4238C 0.645654 14.4238 -1.31357e-05 15.0696 -1.31357e-05 15.9307L -1.31357e-05 20.9898C -1.31357e-05 21.7433 0.64566 22.3892 1.50652 22.3892L 4.62714 22.3892C 5.16518 22.3892 5.59562 22.7121 5.81084 23.2503C 5.91844 23.5732 6.02604 23.7885 6.13365 24.1114C 6.34886 24.542 6.24124 25.0802 5.91842 25.5107L 3.76626 27.6635C 3.22822 28.2017 3.22822 29.1705 3.76626 29.7087L 7.31734 33.2608C 7.85538 33.799 8.82384 33.799 9.36188 33.2608L 11.514 31.0004C 11.8369 30.6774 12.3749 30.5698 12.8053 30.7851C 13.1282 30.8927 13.451 31.108 13.7738 31.2156C 14.2042 31.4309 14.527 31.8615 14.527 32.292L 14.527 35.4136C 14.527 36.1671 15.1727 36.8129 16.0336 36.8129L 21.0911 36.8129C 21.8444 36.8129 22.49 36.1671 22.49 35.4136L 22.49 32.292C 22.49 31.7538 22.8129 31.3233 23.3509 31.108C 23.6737 31.0004 23.8889 30.8927 24.2117 30.7851C 24.6422 30.5698 25.1802 30.6774 25.6107 31.0004L 27.7628 33.1532C 28.3009 33.6914 29.2693 33.6914 29.8074 33.1532L 33.3584 29.601C 33.8965 29.0628 33.8965 28.0941 33.3584 27.5559L 31.0987 25.4031C 30.7759 25.0802 30.6682 24.542 30.8834 24.1114C 30.9911 23.2503 31.4215 22.3891 31.4215 22.2815ZM 11.2988 17.1148C 12.1597 12.7015 16.7868 10.1182 20.8759 11.7328C 23.9966 12.9168 25.9335 16.3613 25.2878 19.6982C 24.427 24.1114 19.7998 26.6948 15.7107 25.0802C 12.5901 23.7885 10.6532 20.4516 11.2988 17.1148Z"/>
<path id="path24_fill" d="M 6.52422 4.49263L 3.14995 0.379657C 2.78842 -0.104222 2.18586 -0.104223 1.70382 0.258686L 0.378217 1.34741C -0.103823 1.71032 -0.10383 2.31517 0.2577 2.79905L 3.63198 6.91202L 6.52422 4.49263Z"/>
<path id="path25_fill" d="M 10.7254 8.95176L 12.533 5.68558L 2.4102 0.120969C 1.92816 -0.120971 1.32561 4.68673e-07 0.964083 0.48388L 0.120517 1.93552C -0.120503 2.41939 -7.36253e-06 3.02424 0.482033 3.38715L 10.7254 8.95176Z"/>
<path id="path26_fill" d="M 6.04859 4.62003L 6.65114 0.869966L 1.46921 0.0231762C 0.86666 -0.0977936 0.38462 0.265117 0.26411 0.869966L 0.0230936 2.56354C -0.0974164 3.16839 0.26411 3.65227 0.86666 3.77324L 6.04859 4.62003Z"/>
<path id="path27_fill" d="M 13.0382 3.62909L 12.3151 -1.84585e-06L 0.86666 2.29843C 0.26411 2.4194 -0.0974164 2.90328 0.0230936 3.50812L 0.384627 5.2017C 0.505137 5.80655 0.987177 6.16946 1.58973 6.04849L 13.0382 3.62909Z"/>
<path id="path28_fill" d="M 6.86907 3.26619L 4.94092 9.22926e-07L 0.482033 2.78231C -7.36253e-06 3.02425 -0.120503 3.75006 0.120517 4.23394L 0.964084 5.68558C 1.2051 6.16946 1.92816 6.29043 2.4102 6.04849L 6.86907 3.26619Z"/>
<path id="path29_fill" d="M 2.50798 12.2179L 10.3411 2.29843L 7.4489 -1.84585e-06L 0.218298 9.07273C -0.143232 9.55661 -0.0227333 10.1615 0.338797 10.5244L 2.50798 12.2179Z"/>
<path id="path30_fill" d="M 9.03824 11.2502L 10.3639 10.1615C 10.8459 9.79855 10.8459 9.19371 10.4844 8.70983L 2.77173 -1.84585e-06L -3.67767e-06 2.54036L 7.71265 11.2502C 7.95367 11.6131 8.67671 11.6131 9.03824 11.2502Z"/>
<path id="path31_fill" d="M 5.90499 5.32267L 6.74856 3.87104C 6.98958 3.38716 6.86907 2.78231 6.38703 2.4194L 2.41019 0.120969C 1.92815 -0.120971 1.32561 -1.83864e-06 0.964076 0.483877L 0.12051 1.93552C -0.12051 2.41939 3.66331e-06 3.02424 0.482044 3.38715L 4.45888 5.68558C 4.94092 6.04849 5.54346 5.80655 5.90499 5.32267Z"/>
<path id="path32_fill" d="M 12.6536 4.59685L 12.8946 2.90328C 13.0151 2.29843 12.6536 1.81455 12.051 1.69358L 0.602546 -1.84585e-06L -3.67767e-06 3.75006L 11.4485 5.44364C 12.051 5.56461 12.5331 5.2017 12.6536 4.59685Z"/>
<path id="path33_fill" d="M 6.26746 0L 7.35644e-06 0L 7.35644e-06 3.74951L 6.26746 3.74951L 6.26746 0Z"/>
<path id="path34_fill" d="M 12.1715 1.93552L 11.3279 0.483879C 11.0869 -4.68674e-07 10.3639 -0.120969 9.88182 0.12097L 3.67767e-06 6.16946L 1.92815 9.43564L 11.81 3.38715C 12.292 3.14521 12.4125 2.4194 12.1715 1.93552Z"/>
<path id="path35_fill" d="M 2.89224 6.79106L 6.26653 2.79905C 6.62806 2.31517 6.62805 1.71032 6.14601 1.34742L 4.82039 0.258686C 4.33835 -0.104223 3.73581 -0.104223 3.37428 0.379657L -7.35535e-06 4.37166L 2.89224 6.79106Z"/>
<path id="path36_fill" d="M 3.6153 12.9746L 7.35111 1.96634C 7.47162 1.48246 7.2306 0.877616 6.74856 0.635676L 5.06141 0.0308272C 4.57937 -0.0901426 3.97683 0.151797 3.73581 0.635676L -3.67767e-06 11.6439L 3.6153 12.9746Z"/>
<path id="path37_fill" d="M 3.73581 6.4114L 3.85632 1.08873C 3.85632 0.483879 3.37428 -5.76829e-08 2.89224 -5.76829e-08L 1.20511 -5.76829e-08C 0.602557 -5.76829e-08 0.120506 0.483879 0.120506 0.967758L 7.35535e-06 6.29043L 3.73581 6.4114Z"/>
<path id="path38_fill" d="M 7.74336 11.523L 3.52551 0.635676C 3.28449 0.151797 2.68193 -0.0901426 2.19989 0.0308272L 0.633256 0.635676C 0.151216 0.877616 -0.0898036 1.48246 0.0307064 1.96634L 4.24856 12.8536L 7.74336 11.523Z"/>
<path id="path39_fill" d="M 0.645644 26.5871L 17.6477 26.5871L 17.5401 23.5732C 17.5401 23.5732 23.3509 20.4516 26.2563 18.4065C 28.4085 16.8995 29.915 16.7919 29.915 11.8404L 29.915 -1.52966e-14L 6.56786e-06 3.65977L 0.645644 26.5871Z"/>
<path id="path40_fill" d="M 3.28393e-06 29.8163C 3.28393e-06 35.1983 1.82933 33.6914 6.34886 33.6914C 14.7423 33.9067 16.464 24.9725 16.464 19.5905L 16.464 16.2537C 16.464 9.04177 9.25427 -1.64246e-06 4.73474 -1.64246e-06C 0.215212 -1.64246e-06 0.107601 4.3056 0.107601 9.68761L 3.28393e-06 29.8163Z"/>
<path id="path41_fill" d="M 33.3584 0L 0 0L 0 179.134L 33.3584 179.134L 33.3584 0Z"/>
<path id="path42_fill" d="M 9.89991 30.2118C 9.89991 39.7918 14.4194 48.2954 21.5216 53.6774C 22.49 54.4309 23.1357 55.6149 23.0281 56.799L 23.0281 72.2991L 13.1281 72.2991L 13.1281 55.7226C 13.1281 54.4309 12.5901 53.3545 11.6216 52.601C 4.51953 47.219 -3.28393e-06 38.7154 -3.28393e-06 29.1354C 0.107605 12.3436 14.2042 -1.11145 31.2063 0.0725915C 33.3584 0.180232 35.5106 0.610793 37.5551 1.25663C 22.1672 1.90247 9.89991 14.604 9.89991 30.2118Z"/>
<path id="path43_fill" d="M 48.5311 27.6635C 48.7463 37.4588 44.0116 46.1776 36.8019 51.6673C 35.8334 52.4208 35.1878 53.6048 35.1878 54.7888L 35.1878 71.3654L 13.1282 71.2578L 13.1282 55.7576C 13.1282 54.4659 12.5901 53.3895 11.6216 52.636C 4.51953 47.254 -6.56786e-06 38.7505 -6.56786e-06 29.1705C -6.56786e-06 13.5627 12.2673 0.861121 27.6552 -7.64829e-15C 39.4921 3.65977 48.3159 14.7467 48.5311 27.6635Z"/>
<path id="path44_fill" d="M 6.99176 11.9237C 1.50376 9.98616 0.320061 6.32639 0.104845 5.24999C -0.217978 3.52775 0.21246 1.91314 1.28854 1.05202C 2.1494 0.298539 3.33309 0.1909 4.51677 0.729101C 6.2385 1.48258 7.745 5.35763 9.0363 10.0938C 12.3721 10.9549 14.6319 10.2014 16.0308 9.12503C 15.6004 8.58683 15.2776 7.94099 14.9547 7.29515C 13.771 4.49651 13.9863 1.69786 15.6004 0.621462C 16.9993 -0.454939 18.721 0.0832616 19.5819 0.621462C 21.196 1.69786 21.5188 4.49651 20.2275 7.29515C 19.9047 7.94099 19.5819 8.47919 19.1514 9.12503C 20.5503 10.2014 22.8101 11.0626 26.1459 10.2014C 27.4372 5.46527 29.0514 1.59022 30.7731 0.836739C 31.9568 0.298539 33.1404 0.406182 34.0013 1.15966C 35.0774 2.02078 35.5078 3.63538 35.0774 5.35763C 34.8622 6.54167 33.5709 10.0938 28.0829 12.0313C 26.2535 19.3508 24.6394 28.7155 24.5318 30.7607L 22.2721 30.7607C 22.2721 30.6531 23.5633 21.0731 25.6079 12.6772C 22.1644 13.2154 19.5819 12.3542 17.6449 10.8473C 15.8156 12.3542 13.1254 13.2154 9.68195 12.6772C 11.6189 20.9655 12.9102 30.5454 12.9102 30.7607L 10.6504 30.7607C 10.3276 28.7155 8.82109 19.2432 6.99176 11.9237ZM 31.6339 2.8819C 30.7731 3.20482 29.8046 5.78819 28.8361 9.23268C 31.9568 7.72571 32.71 5.57291 32.8176 4.92707C 33.0329 3.95831 32.8176 3.20482 32.4948 2.98954C 32.3872 2.8819 32.2796 2.8819 32.172 2.8819C 31.9568 2.77426 31.8492 2.8819 31.6339 2.8819ZM 2.68744 2.8819C 2.36462 3.09718 2.1494 3.85066 2.36462 4.81943C 2.47222 5.57291 3.22548 7.61807 6.3461 9.23268C 5.37763 5.78819 4.40916 3.31246 3.54829 2.8819C 3.33308 2.77426 3.22547 2.77427 3.01025 2.77427C 2.90265 2.66663 2.68744 2.77426 2.68744 2.8819ZM 16.8917 2.55898C 16.3536 2.88191 16.1384 4.60415 16.9993 6.43403C 17.1069 6.64931 17.3221 7.07987 17.5373 7.40279C 17.7525 6.97223 17.9677 6.64931 18.0754 6.43403C 18.9362 4.60415 18.721 2.88191 18.2906 2.55898C 18.2906 2.55898 17.9677 2.3437 17.5373 2.3437C 17.3221 2.3437 17.1069 2.45134 16.8917 2.55898Z"/>
<path id="path45_fill" d="M 36.1562 13.9932L 25.5031 22.8197L 9.6847 22.8197L -6.56786e-06 13.8856L -6.56786e-06 0.968763C -6.56786e-06 0.430562 0.430435 0 0.968474 0L 35.0801 0.107639C 35.6182 0.107639 36.0486 0.538201 36.0486 1.0764L 36.1562 13.9932Z"/>
<path id="path46_fill" d="M 11.1912 5.27436L 5.27279 5.27436C 2.36738 5.27436 -6.56786e-06 2.90629 -6.56786e-06 3.28492e-06L 16.464 3.28492e-06C 16.464 3.01393 14.0966 5.27436 11.1912 5.27436Z"/>
<path id="path47_fill" d="M 36.1562 -3.28492e-06L -6.56786e-06 -3.28492e-06L -6.56786e-06 2.47572L 36.1562 2.47572L 36.1562 -3.28492e-06Z"/>
<path id="path48_fill" d="M 36.1562 0L -6.56786e-06 0L -6.56786e-06 2.47572L 36.1562 2.47572L 36.1562 0Z"/>
<path id="path49_fill" d="M 36.1562 0L -6.56786e-06 0L -6.56786e-06 2.47573L 36.1562 2.47573L 36.1562 0Z"/>
<path id="path50_fill" d="M 1.3989 37.6741L 6.56786e-06 10.3335C 6.56786e-06 9.36469 0.215219 8.28829 0.753258 7.42717L 3.65867 2.58336C 4.62714 0.968762 6.34886 -1.64246e-06 8.17819 -1.64246e-06L 19.1542 -1.64246e-06C 20.7683 1.39932 18.1857 6.67369 16.2488 6.67369C 14.3118 6.67369 10.438 6.88897 10.438 6.88897L 9.14667 13.0245L 1.3989 37.6741Z"/>
<path id="path51_fill" d="M 0.00680543 3.44449C -0.100802 5.38201 1.08289 6.88897 2.48179 6.99661L 18.4078 7.10425C 19.8067 7.10425 21.0979 5.59729 21.0979 3.76741C 21.2056 1.82988 20.0219 0.322921 18.623 0.215281L 2.697 0C 1.2981 0 0.114413 1.50696 0.00680543 3.44449Z"/>
<path id="path52_fill" d="M 0.00680872 3.34227C -0.100799 5.27979 1.08289 6.78676 2.48179 6.8944L 25.5099 7.00204C 26.9088 7.00204 28.2001 5.49508 28.2001 3.66519C 28.3077 1.72767 27.124 0.220705 25.7251 0.113065L 2.8046 0.00542669C 1.29809 -0.102213 0.114417 1.40475 0.00680872 3.34227Z"/>
<path id="path53_fill" d="M 0.00680215 3.33685C -0.100806 5.27437 1.08288 6.78133 2.48179 6.88897L 21.0979 6.99661C 22.4968 6.99661 23.7881 5.48965 23.7881 3.65976C 23.8957 1.72224 22.7121 0.215282 21.3132 0.107642L 2.697 3.28492e-06C 1.2981 3.28492e-06 0.00680215 1.50696 0.00680215 3.33685Z"/>
<path id="path54_fill" d="M 0.00680871 3.34227C -0.100799 5.27979 1.08289 6.78676 2.48179 6.8944L 13.0273 7.10968C 14.4262 7.10968 15.7175 5.60272 15.7175 3.77283C 15.8251 1.83531 14.6415 0.328346 13.2426 0.220705L 2.697 0.00542833C 1.2981 -0.102212 0.00680871 1.40475 0.00680871 3.34227Z"/>
<path id="path55_fill" d="M 30.8834 45.9624L 13.0206 45.9624L 13.1282 42.7332C 13.1282 42.7332 6.99451 39.3963 3.87388 37.3511C 1.50651 35.8442 0 35.6289 0 30.4622L 0 -1.64246e-06L 31.5291 2.36809L 30.8834 45.9624Z"/>
<path id="path56_fill" d="M 8.04758e-06 -2.03773e-06L 8.04758e-06 10.6836C 8.04758e-06 12.6867 1.58221 14.1557 3.42813 14.1557C 7.25183 14.1557 10.2844 17.2273 10.2844 21.1001L 10.2844 49.545C 10.2844 52.8837 12.6577 55.9552 15.954 56.2223C 19.7777 56.6229 22.9422 53.6849 22.9422 49.9457L 22.9422 21.1001C 22.9422 17.2273 25.9747 14.1557 29.7984 14.1557C 31.7762 14.1557 33.2266 12.5532 33.2266 10.6836L 33.2266 -2.03773e-06L 8.04758e-06 -2.03773e-06L 8.04758e-06 -2.03773e-06ZM 16.6133 51.8153C 15.4266 51.8153 14.3718 50.8805 14.3718 49.545C 14.3718 48.3431 15.2948 47.2748 16.6133 47.2748C 17.7999 47.2748 18.8548 48.2096 18.8548 49.545C 18.8548 50.747 17.9318 51.8153 16.6133 51.8153Z"/>
<path id="path57_fill" d="M 33.3584 0L 8.04758e-06 0L 8.04758e-06 24.3051L 33.3584 24.3051L 33.3584 0Z"/>
<path id="path58_fill" d="M 33.3584 -2.03773e-06L 8.04758e-06 -2.03773e-06L 8.04758e-06 10.0158L 33.3584 10.0158L 33.3584 -2.03773e-06Z"/>
<path id="path59_fill" d="M 33.3584 0L 8.04758e-06 0L 8.04758e-06 1.46899L 33.3584 1.46899L 33.3584 0Z"/>
<path id="path60_fill" d="M 33.3584 0L 8.04758e-06 0L 8.04758e-06 1.46899L 33.3584 1.46899L 33.3584 0Z"/>
<path id="path61_fill" d="M 33.3584 2.03773e-06L 8.04758e-06 2.03773e-06L 8.04758e-06 1.46899L 33.3584 1.46899L 33.3584 2.03773e-06Z"/>
<path id="path62_fill" d="M 17.3249 31.4309C 17.3249 37.1359 15.3879 35.5213 10.6532 35.5213C 1.82934 35.7365 -6.56786e-06 26.2642 -6.56786e-06 20.6669L -6.56786e-06 17.2224C -6.56786e-06 9.57998 7.64015 3.28492e-06 12.3749 3.28492e-06C 17.1096 3.28492e-06 17.3249 4.62853 17.3249 10.2258L 17.3249 31.4309Z"/>
<path id="path63_fill" d="M 36.8019 0L 0 0L 0.152344 168.016L 37.1523 168.016L 36.8019 0Z"/>
<path id="path64_fill" d="M 22.3892 3.55212C 22.4968 5.59729 21.2055 7.21189 19.699 7.21189L 2.9122 7.31953C 1.40569 7.31953 0.114394 5.81257 0.00678581 3.76741C -0.100822 1.72224 1.08286 0.10764 2.69698 0.10764L 19.4838 1.64246e-06C 21.0979 1.64246e-06 22.3892 1.50696 22.3892 3.55212Z"/>
<path id="path65_fill" d="M 23.2433 3.28492e-06L 2.69019 3.28492e-06C 1.18368 3.28492e-06 -3.28393e-06 1.72224 -3.28393e-06 3.65976C 0.107605 5.70493 1.2913 7.21189 2.90541 7.21189L 27.2248 7.10425C 27.7628 7.10425 28.1933 6.88897 28.6237 6.56605C 27.8704 6.56605 27.2248 6.56605 26.5791 6.56605C 24.7498 6.67369 22.2748 1.82989 23.2433 3.28492e-06Z"/>
<path id="path66_fill" d="M 6.99627 3.55212C 6.88867 1.50696 5.70498 3.28492e-06 4.09087 3.28492e-06L 0.216978 3.28492e-06C -0.751492 1.82989 1.72348 6.67369 3.66043 6.67369C 4.19846 6.67369 4.95173 6.67369 5.70498 6.67369C 6.56585 6.02785 7.10388 4.84381 6.99627 3.55212Z"/>
<path id="path67_fill" d="M 25.187 3.55721C 25.2946 5.60238 24.0033 7.21698 22.4968 7.21698L 2.9122 7.32462C 1.40569 7.32462 0.114394 5.81765 0.00678581 3.77249C -0.100822 1.72733 1.08286 0.112723 2.69698 0.112723L 22.2816 0.00508412C 23.7881 -0.102556 25.0794 1.51205 25.187 3.55721Z"/>
<path id="path68_fill" d="M 16.7936 3.55721C 16.9012 5.60238 15.6099 7.21698 14.1034 7.21698L 2.9122 7.43226C 1.40569 7.43226 0.114395 5.92529 0.00678745 3.88013C -0.10082 1.83497 1.08287 0.220369 2.69698 0.220369L 13.8882 0.00508412C 15.3947 -0.102556 16.686 1.51205 16.7936 3.55721Z"/>
<path id="path69_fill" d="M 20.8864 41.2262L 20.8864 10.2258C 20.8864 9.57998 20.6712 8.82649 20.3484 8.28829L 16.3669 1.82988C 15.7212 0.645839 14.4299 1.64246e-06 13.1386 1.64246e-06L 0.548532 1.64246e-06C -1.17319 1.39932 1.517 7.10425 3.66915 7.10425C 5.7137 7.10425 9.8028 7.31953 9.8028 7.31953L 11.2017 13.7779L 20.8864 41.2262Z"/>
<path id="path70_fill" d="M 6.02604 23.6808L 3.22823 26.2642C 2.6902 26.8024 2.58259 27.6635 3.12063 28.2017L 6.34886 31.7538C 6.8869 32.292 7.74776 32.3997 8.2858 31.8615L 10.438 29.8163C 10.7608 29.4934 11.2988 29.3858 11.7293 29.7087C 11.9445 29.8163 12.2673 29.924 12.5901 30.1392C 13.0205 30.3545 13.3434 30.7851 13.3434 31.2156L 13.2358 34.2296C 13.2358 34.9831 13.7738 35.6289 14.5271 35.7365L 19.3694 35.9518C 20.1227 35.9518 20.7683 35.4136 20.8759 34.6601L 20.9835 31.6462C 20.9835 31.2156 21.3064 30.7851 21.7368 30.5698C 22.0596 30.4622 22.3824 30.3545 22.7053 30.2469C 23.1357 30.0316 23.6737 30.2469 23.9965 30.5698L 26.0411 32.8303C 26.5791 33.3685 27.44 33.4761 27.978 32.9379L 31.5291 29.7087C 32.0671 29.1705 32.1747 28.3094 31.6367 27.7712L 29.5922 25.5107C 29.2693 25.1878 29.1617 24.6496 29.4845 24.219C 29.5922 23.8961 29.8074 23.6808 29.915 23.3579C 30.1302 22.9274 30.5606 22.6044 30.9911 22.6044L 34.0041 22.7121C 34.7573 22.7121 35.403 22.1739 35.5106 21.4204L 35.7258 16.5766C 35.7258 15.8231 35.1878 15.1773 34.4345 15.0696L 31.4215 14.7467C 30.9911 14.7467 30.5606 14.4238 30.3454 13.9932C 30.2378 13.6703 30.1302 13.3474 30.0226 13.0245C 29.8074 12.5939 30.0226 12.0557 30.3454 11.7328L 32.6052 9.68761C 33.1432 9.14941 33.2508 8.28829 32.7128 7.75009L 29.3769 4.19797C 28.8389 3.65977 27.978 3.55213 27.44 4.09033L 25.2878 6.13549C 24.965 6.45841 24.427 6.56605 23.9965 6.24313C 23.7813 6.13549 23.4585 6.02785 23.1357 5.81257C 22.7053 5.59729 22.3824 5.16673 22.3824 4.73617L 22.49 1.72224C 22.49 0.968761 21.952 0.32292 21.1987 0.21528L 16.3564 -8.21229e-07C 15.6031 -8.21229e-07 14.9575 0.538201 14.8499 1.29168L 14.7423 4.30561C 14.7423 4.73617 14.4194 5.16673 13.989 5.38201C 13.6662 5.48965 13.3434 5.59729 13.0205 5.70493C 12.5901 5.92021 12.0521 5.70493 11.7293 5.38201L 9.6847 3.33684C 9.14667 2.79864 8.2858 2.691 7.74776 3.2292L 4.19671 6.56605C 3.65867 7.10425 3.55106 7.96537 4.0891 8.50357L 6.13365 10.6564C 6.45647 10.9793 6.56408 11.5175 6.24125 11.9481C 6.13365 12.1633 6.02604 12.4863 5.81082 12.8092C 5.59561 13.2397 5.16518 13.5627 4.73474 13.5627L 1.72173 13.455C 0.96847 13.455 0.322823 13.9932 0.215216 14.7467L 0 19.6981C 0 20.4516 0.538039 21.0975 1.29129 21.2051L 4.30431 21.3128C 4.73474 21.3128 5.16518 21.6357 5.38039 22.0662C 5.59561 22.8197 6.02604 23.6808 6.02604 23.6808ZM 23.7813 14.4238C 26.0411 18.1912 24.427 22.9274 20.4455 24.542C 17.4325 25.726 13.7738 24.542 12.1597 21.7433C 9.89992 17.9759 11.514 13.2397 15.4955 11.6251C 18.4009 10.4411 22.0596 11.6251 23.7813 14.4238Z"/>
<path id="path71_fill" d="M 3.01302 9.79526L 0.753253 10.1182C 0.322822 10.2258 1.64197e-06 10.6564 1.64197e-06 11.0869L 0.43043 13.9932C 0.538038 14.4238 0.968471 14.7467 1.3989 14.7467L 3.22824 14.5314C 3.55106 14.5314 3.76627 14.6391 3.98149 14.962C 4.0891 15.0696 4.19671 15.2849 4.30431 15.3925C 4.51953 15.6078 4.51953 15.9307 4.30431 16.2537L 3.22824 17.7606C 2.90541 18.0836 3.01302 18.6217 3.44345 18.9447L 5.81082 20.7745C 6.13364 21.0975 6.67169 20.9898 6.99451 20.5593L 8.07059 19.0523C 8.2858 18.837 8.50102 18.7294 8.82384 18.837C 9.03906 18.837 9.25427 18.9447 9.36188 18.9447C 9.6847 19.0523 9.89992 19.2676 9.89992 19.4829L 10.1151 21.3128C 10.2227 21.7433 10.6532 22.0662 11.0836 22.0662L 13.989 21.6357C 14.4195 21.528 14.7423 21.0975 14.7423 20.6669L 14.5271 18.837C 14.5271 18.5141 14.6347 18.2988 14.9575 18.0835C 15.1727 17.9759 15.2803 17.8683 15.4955 17.7606C 15.7107 17.5453 16.0336 17.5453 16.3564 17.7606L 17.8629 18.837C 18.2933 19.16 18.7238 19.0523 19.0466 18.6217L 20.8759 16.2537C 21.1987 15.8231 21.0911 15.3925 20.6607 15.0696L 19.1542 13.9932C 18.939 13.7779 18.8314 13.5627 18.939 13.2397C 18.939 13.0245 19.0466 12.8092 19.0466 12.7015C 19.1542 12.3786 19.3694 12.1633 19.5846 12.1633L 21.414 11.9481C 21.8444 11.8404 22.1672 11.4099 22.1672 10.9793L 21.7368 8.07301C 21.6292 7.64245 21.1987 7.31953 20.7683 7.31953L 18.939 7.53481C 18.6162 7.53481 18.4009 7.42717 18.1857 7.10425C 18.0781 6.99661 17.9705 6.78133 17.8629 6.67369C 17.6477 6.45841 17.6477 6.13549 17.8629 5.81257L 18.939 4.30561C 19.2618 3.87505 19.1542 3.44449 18.7238 3.12157L 16.3564 1.29168C 15.926 0.96876 15.4955 1.0764 15.1727 1.50697L 14.0966 3.01392C 13.8814 3.2292 13.6662 3.33685 13.3434 3.22921C 13.1282 3.22921 12.9129 3.12157 12.8053 3.12157C 12.4825 3.01393 12.2673 2.79865 12.2673 2.58337L 11.9445 0.75348C 11.8369 0.322919 11.4064 1.64246e-06 10.976 1.64246e-06L 8.07059 0.430564C 7.64016 0.538204 7.31733 0.968758 7.31733 1.39932L 7.53255 3.22921C 7.53255 3.55213 7.42494 3.7674 7.10212 3.98268C 6.99451 4.09032 6.77929 4.19797 6.67168 4.30561C 6.45647 4.52089 6.13364 4.52089 5.81082 4.30561L 4.30431 3.22921C 3.98149 2.90629 3.44345 3.01392 3.12063 3.44448L 1.29129 5.81257C 1.18368 6.02785 1.18369 6.56605 1.61412 6.88897L 3.12063 7.96538C 3.33584 8.18066 3.44345 8.39593 3.33584 8.71885C 3.22823 9.25705 3.12063 9.79526 3.01302 9.79526ZM 15.1727 11.1946C 15.0651 13.8856 12.5901 15.7155 10.0075 15.0696C 8.07059 14.6391 6.67169 12.8092 6.77929 10.764C 6.8869 8.07301 9.36188 6.24313 11.9445 6.88897C 13.8814 7.42717 15.2803 9.25706 15.1727 11.1946Z"/>
<path id="path72_fill" d="M 2.15216 6.99661L 0.538041 7.21189C 0.215217 7.21189 1.64197e-06 7.53481 1.64197e-06 7.85773L 0.32282 10.0105C 0.32282 10.3335 0.64565 10.5487 0.968474 10.5487L 2.25976 10.3335C 2.47498 10.3335 2.6902 10.4411 2.7978 10.6564C 2.90541 10.764 2.90541 10.8717 3.01302 10.9793C 3.12062 11.1946 3.12062 11.4099 3.01302 11.5175L 2.25976 12.5939C 2.04455 12.9168 2.15215 13.2397 2.36737 13.455L 4.08909 14.7467C 4.41192 14.962 4.73474 14.8543 4.94996 14.6391L 5.70321 13.5627C 5.81082 13.3474 6.02603 13.3474 6.24125 13.3474C 6.34886 13.3474 6.56408 13.455 6.67168 13.455C 6.8869 13.455 6.99451 13.6703 7.10212 13.8856L 7.31733 15.1773C 7.31733 15.5002 7.64016 15.7155 7.96298 15.7155L 10.1151 15.3925C 10.438 15.3925 10.6532 15.0696 10.6532 14.7467L 10.438 13.455C 10.438 13.2397 10.5456 13.0245 10.7608 12.9168C 10.8684 12.8092 10.976 12.8092 11.0836 12.7015C 11.2988 12.5939 11.514 12.5939 11.6216 12.7015L 12.6977 13.455C 13.0205 13.6703 13.3434 13.5627 13.5586 13.3474L 14.8499 11.6251C 15.0651 11.3022 14.9575 10.9793 14.7423 10.764L 13.6662 10.0105C 13.451 9.9029 13.451 9.68762 13.451 9.47233C 13.451 9.36469 13.5586 9.14941 13.5586 9.04177C 13.5586 8.82649 13.7738 8.71885 13.989 8.61121L 15.1727 8.61121C 15.4955 8.61121 15.7107 8.28829 15.7107 7.96537L 15.3879 5.81257C 15.3879 5.48965 15.0651 5.27437 14.7423 5.27437L 13.451 5.38201C 13.2358 5.38201 13.0205 5.27437 12.9129 5.05909C 12.8053 4.95145 12.8053 4.84381 12.6977 4.73617C 12.5901 4.52089 12.5901 4.30561 12.6977 4.19797L 13.451 3.12156C 13.6662 2.79864 13.5586 2.47572 13.3434 2.26044L 11.6216 0.968761C 11.2988 0.753481 10.976 0.861121 10.7608 1.0764L 10.0075 2.1528C 9.89992 2.36808 9.6847 2.36808 9.46949 2.36808C 9.36188 2.36808 9.14667 2.26044 9.03906 2.26044C 8.82385 2.26044 8.71623 2.04516 8.60862 1.82988L 8.39341 0.538201C 8.39341 0.21528 8.07059 0 7.74777 0L 5.59561 0.322921C 5.27278 0.322921 5.05757 0.645841 5.05757 0.968761L 5.27279 2.26044C 5.27279 2.47572 5.16518 2.691 4.94996 2.79864C 4.84235 2.90628 4.73474 2.90628 4.62713 3.01392C 4.41192 3.12156 4.1967 3.12156 4.08909 3.01392L 3.01302 2.26044C 2.69019 2.04516 2.36737 2.1528 2.15216 2.36808L 0.860859 4.09033C 0.645644 4.41325 0.753258 4.73617 0.968474 4.95145L 2.04455 5.70493C 2.25977 5.81257 2.25976 6.02785 2.25976 6.24313C 2.15216 6.56605 2.15216 6.99661 2.15216 6.99661ZM 10.8684 8.07301C 10.7608 10.0105 8.93145 11.3022 7.10212 10.8717C 5.70321 10.5487 4.73475 9.25705 4.73475 7.75009C 4.84236 5.81257 6.67169 4.52089 8.50102 4.95145C 9.89992 5.27437 10.8684 6.56605 10.8684 8.07301Z"/>
<path id="path73_fill" d="M 9.89992 4.09033L 7.10212 4.09033C 6.77929 4.09033 6.45647 3.76741 6.45647 3.44449L 6.45647 0.645839C 6.45647 0.322919 6.13365 7.64829e-15 5.81082 7.64829e-15L 4.73474 7.64829e-15C 4.41192 7.64829e-15 4.0891 0.322919 4.0891 0.645839L 4.0891 3.44449C 4.0891 3.76741 3.76627 4.09033 3.44345 4.09033L 0.645648 4.09033C 0.322824 4.09033 -1.64197e-06 4.41325 -1.64197e-06 4.73617L -1.64197e-06 5.81257C -1.64197e-06 6.13549 0.322824 6.45841 0.645648 6.45841L 3.44345 6.45841C 3.76627 6.45841 4.0891 6.78133 4.0891 7.10425L 4.0891 9.90289C 4.0891 10.2258 4.41192 10.5487 4.73474 10.5487L 5.81082 10.5487C 6.13365 10.5487 6.45647 10.2258 6.45647 9.90289L 6.45647 6.99661C 6.45647 6.67369 6.77929 6.35077 7.10212 6.35077L 9.89992 6.35077C 10.2227 6.35077 10.5456 6.02785 10.5456 5.70493L 10.5456 4.62853C 10.5456 4.30561 10.3304 4.09033 9.89992 4.09033Z"/>
<path id="path74_fill" d="M 17.3249 7.10425L 12.3749 7.10425C 11.7293 7.10425 11.2988 6.56605 11.2988 6.02785L 11.2988 1.0764C 11.2988 0.43056 10.7608 -2.05307e-07 10.2227 -2.05307e-07L 8.2858 -2.05307e-07C 7.64015 -2.05307e-07 7.20972 0.538201 7.20972 1.0764L 7.20972 6.02785C 7.20972 6.67369 6.67168 7.10425 6.13364 7.10425L 1.07608 7.10425C 0.430431 7.10425 0 7.64245 0 8.18065L 0 10.1182C 0 10.764 0.538039 11.1946 1.07608 11.1946L 6.02604 11.1946C 6.67168 11.1946 7.10211 11.7328 7.10211 12.271L 7.10211 17.2224C 7.10211 17.8683 7.64015 18.2988 8.17819 18.2988L 10.1151 18.2988C 10.7608 18.2988 11.1912 17.7606 11.1912 17.2224L 11.1912 12.271C 11.1912 11.6251 11.7293 11.1946 12.2673 11.1946L 17.2173 11.1946C 17.8629 11.1946 18.2933 10.6564 18.2933 10.1182L 18.2933 8.18065C 18.4009 7.64245 17.9705 7.10425 17.3249 7.10425Z"/>
<path id="path75_fill" d="M 11.514 4.73616L 8.2858 4.73616C 7.85537 4.73616 7.53254 4.41325 7.53254 3.98269L 7.53254 0.753481C 7.53254 0.32292 7.20972 3.28492e-06 6.77929 3.28492e-06L 5.488 3.28492e-06C 5.05757 3.28492e-06 4.73474 0.32292 4.73474 0.753481L 4.73474 3.98269C 4.73474 4.41325 4.41192 4.73616 3.98149 4.73616L 0.753256 4.73616C 0.322825 4.73616 -3.28393e-06 5.05909 -3.28393e-06 5.48965L -3.28393e-06 6.78133C -3.28393e-06 7.21189 0.322825 7.53481 0.753256 7.53481L 3.98149 7.53481C 4.41192 7.53481 4.73474 7.85773 4.73474 8.28829L 4.73474 11.5175C 4.73474 11.9481 5.05757 12.271 5.488 12.271L 6.77929 12.271C 7.20972 12.271 7.53254 11.9481 7.53254 11.5175L 7.53254 8.28829C 7.53254 7.85773 7.85537 7.53481 8.2858 7.53481L 11.514 7.53481C 11.9445 7.53481 12.2673 7.21189 12.2673 6.78133L 12.2673 5.48965C 12.2673 5.05909 11.9445 4.73616 11.514 4.73616Z"/>
<path id="path76_fill" d="M 29.6997 12.271L 32.4976 9.6876C 33.0356 9.1494 33.1432 8.28829 32.6052 7.75009L 29.3769 4.19798C 28.8389 3.65978 27.978 3.55213 27.44 4.09033L 25.2879 6.13549C 24.965 6.45841 24.427 6.56606 23.9965 6.24314C 23.7813 6.1355 23.4585 6.02786 23.1357 5.81258C 22.7053 5.5973 22.3824 5.16674 22.3824 4.73618L 22.49 1.72224C 22.49 0.968755 21.952 0.32292 21.1987 0.21528L 16.3564 -1.31397e-05C 15.6031 -1.31397e-05 14.9575 0.538201 14.8499 1.29168L 14.7423 4.30559C 14.7423 4.73615 14.4195 5.16671 13.989 5.38199C 13.6662 5.48963 13.3434 5.59729 13.0205 5.70493C 12.5901 5.92022 12.0521 5.70492 11.7293 5.38199L 9.68472 3.12158C 9.14668 2.58338 8.2858 2.47573 7.74776 3.01393L 4.19671 6.24314C 3.65867 6.78134 3.55106 7.64244 4.0891 8.18065L 6.13364 10.4411C 6.45646 10.764 6.56408 11.3022 6.24125 11.7328C 6.13365 12.0557 5.91844 12.271 5.81083 12.5939C 5.59561 13.0245 5.16518 13.3474 4.73475 13.3474L 1.72171 13.2397C 0.968457 13.2397 0.322817 13.7779 0.215209 14.5314L 1.31357e-05 19.3752C 1.31357e-05 20.1287 0.538033 20.7746 1.29129 20.8822L 4.30433 20.9898C 4.73476 20.9898 5.16519 21.3128 5.3804 21.7433C 5.48801 22.0662 5.59561 22.3891 5.70322 22.7121C 5.91843 23.1426 5.70323 23.6808 5.3804 24.0038L 3.12063 26.0489C 2.58259 26.5871 2.47498 27.4482 3.01302 27.9864L 6.34887 31.5386C 6.88691 32.0768 7.74776 32.1844 8.2858 31.6462L 10.438 29.601C 10.7608 29.2781 11.2988 29.1705 11.7293 29.4934C 11.9445 29.6011 12.2673 29.7087 12.5901 29.924C 13.0205 30.1393 13.3434 30.5698 13.3434 31.0004L 13.2358 34.1219C 13.2358 34.8754 13.7738 35.5212 14.5271 35.6289L 19.3694 35.8442C 20.1227 35.8442 20.7683 35.306 20.8759 34.5525L 20.9835 31.5386C 20.9835 31.108 21.3063 30.6775 21.7368 30.4622C 22.0596 30.3545 22.3824 30.2469 22.7052 30.1392C 23.1357 29.924 23.6737 30.1393 23.9965 30.4622L 26.0411 32.7226C 26.5791 33.2608 27.44 33.3684 27.978 32.8302L 31.5291 29.4934C 32.0671 28.9552 32.1747 28.0941 31.6367 27.5559L 29.5922 25.4031C 29.2693 25.0802 29.1617 24.542 29.4846 24.1114C 29.5922 23.8961 29.6998 23.5732 29.915 23.2503C 30.1302 22.8197 30.5606 22.4968 30.9911 22.4968L 34.0041 22.6044C 34.7573 22.6044 35.403 22.0662 35.5106 21.3128L 35.7258 16.469C 35.7258 15.7155 35.1878 15.0696 34.4345 14.962L 31.4215 14.8543C 30.991 14.8543 30.5606 14.5314 30.3454 14.1009C 30.0226 13.1321 29.6997 12.271 29.6997 12.271ZM 11.9445 21.528C 9.68469 17.7606 11.2988 13.0245 15.2803 11.4099C 18.2933 10.2258 21.952 11.4099 23.5661 14.2085C 25.8259 17.9759 24.2118 22.7121 20.2303 24.3267C 17.3249 25.5107 13.6662 24.3267 11.9445 21.528Z"/>
<path id="path77_fill" d="M 19.1542 12.271L 21.414 11.9481C 21.8444 11.8404 22.1672 11.4098 22.1672 10.9793L 21.7368 8.07302C 21.6292 7.64246 21.1987 7.31953 20.7683 7.31953L 18.939 7.53482C 18.6161 7.53482 18.401 7.42718 18.1857 7.10426C 18.0781 6.99662 17.9705 6.78132 17.8629 6.67368C 17.6477 6.4584 17.6477 6.13549 17.8629 5.81257L 18.939 4.30561C 19.2618 3.98269 19.1542 3.44449 18.7238 3.12156L 16.3564 1.29167C 16.0336 0.968748 15.4955 1.0764 15.1727 1.50696L 14.0966 3.01392C 13.8814 3.2292 13.6662 3.33685 13.3434 3.22921C 13.1282 3.22921 12.913 3.12156 12.8053 3.12156C 12.4825 3.01392 12.2673 2.79864 12.2673 2.58336L 12.0521 0.753468C 11.9445 0.322907 11.514 6.56983e-06 11.0836 6.56983e-06L 8.17819 0.430561C 7.74776 0.538201 7.42495 0.968755 7.42495 1.39932L 7.64015 3.22921C 7.64015 3.55213 7.53255 3.76739 7.20972 3.98267C 6.99451 4.09031 6.8869 4.19797 6.67168 4.30561C 6.45647 4.52089 6.13366 4.52089 5.81084 4.30561L 4.3043 3.22921C 3.87387 2.90629 3.44346 3.01391 3.12064 3.44447L 1.29129 5.81257C 0.96847 6.24313 1.07609 6.6737 1.50652 6.99662L 3.01303 8.07302C 3.22824 8.2883 3.33583 8.50356 3.22822 8.82648C 3.22822 9.04176 3.12064 9.25704 3.12064 9.36468C 3.01303 9.6876 2.79782 9.90288 2.5826 9.90288L 0.753255 10.1182C 0.322823 10.2258 -1.31357e-05 10.6564 -1.31357e-05 11.0869L 0.430444 13.9932C 0.538052 14.4238 0.968477 14.7467 1.39891 14.7467L 3.22822 14.5314C 3.55105 14.5314 3.76627 14.6391 3.98149 14.962C 4.0891 15.0696 4.19669 15.2849 4.3043 15.3925C 4.51952 15.6078 4.51952 15.9308 4.3043 16.2537L 3.22822 17.7606C 2.9054 18.1912 3.01302 18.6218 3.44345 18.9447L 5.81084 20.7745C 6.24127 21.0975 6.67167 20.9898 6.9945 20.5593L 8.07057 19.0523C 8.28579 18.837 8.50102 18.7294 8.82384 18.837C 9.03906 18.837 9.25427 18.9447 9.36188 18.9447C 9.6847 19.0523 9.89992 19.2676 9.89992 19.4829L 10.1151 21.3127C 10.2228 21.7433 10.6532 22.0662 11.0836 22.0662L 13.989 21.6357C 14.4194 21.528 14.7423 21.0975 14.7423 20.6669L 14.527 18.837C 14.527 18.5141 14.6347 18.2988 14.9575 18.0835C 15.0651 17.9759 15.2803 17.8683 15.3879 17.7606C 15.6031 17.5454 15.926 17.5454 16.2488 17.7606L 17.7553 18.837C 18.0781 19.16 18.6161 19.0523 18.939 18.6217L 20.7683 16.2537C 21.0911 15.9308 20.9835 15.3926 20.5531 15.0696L 19.0466 13.9932C 18.8314 13.7779 18.7237 13.5627 18.8314 13.2397C 19.0466 12.9168 19.1542 12.271 19.1542 12.271ZM 7.10211 10.8717C 7.20972 8.18067 9.68472 6.35078 12.2673 6.99662C 14.2042 7.42718 15.6031 9.25706 15.4955 11.3022C 15.3879 13.9932 12.9129 15.8231 10.3303 15.1773C 8.3934 14.6391 6.9945 12.8092 7.10211 10.8717Z"/>
<path id="path78_fill" d="M 13.6662 8.71885L 15.2803 8.50356C 15.6031 8.50356 15.8183 8.18067 15.8183 7.85775L 15.4955 5.70494C 15.4955 5.38202 15.1727 5.16674 14.8499 5.16674L 13.5586 5.382C 13.3434 5.382 13.1281 5.27437 13.0205 5.05909C 12.9129 4.95145 12.913 4.84379 12.8053 4.73615C 12.6977 4.52087 12.6977 4.30559 12.8053 4.19795L 13.5586 3.12155C 13.7738 2.79863 13.6662 2.47572 13.451 2.26044L 11.7293 0.968748C 11.4064 0.753468 11.0836 0.861115 10.8684 1.0764L 10.1151 2.1528C 10.0075 2.36808 9.79232 2.36809 9.57711 2.36809C 9.4695 2.36809 9.25426 2.26044 9.14665 2.26044C 8.93144 2.26044 8.82383 2.04517 8.71623 1.82989L 8.50103 0.538194C 8.50103 0.215274 8.1782 -6.56983e-06 7.85538 -6.56983e-06L 5.70322 0.322934C 5.3804 0.322934 5.16518 0.645828 5.16518 0.968748L 5.38038 2.26044C 5.38038 2.47572 5.27278 2.691 5.05757 2.79864C 4.94996 2.90628 4.84236 2.9063 4.73476 3.01394C 4.51954 3.12158 4.30433 3.12158 4.19672 3.01394L 3.12064 2.26044C 2.79782 2.04516 2.47497 2.15281 2.25976 2.36809L 0.968484 4.09034C 0.753268 4.41326 0.860849 4.73617 1.07607 4.95145L 2.15214 5.70494C 2.36736 5.81258 2.36737 6.02786 2.36737 6.24314C 2.36737 6.35078 2.25976 6.56606 2.25976 6.6737C 2.25976 6.88898 2.04455 6.99661 1.82933 7.10425L 0.538026 7.31954C 0.215202 7.31954 -1.31357e-05 7.64244 -1.31357e-05 7.96536L 0.32283 10.1182C 0.32283 10.4411 0.64566 10.6564 0.968484 10.6564L 2.25976 10.4411C 2.47497 10.4411 2.69019 10.5487 2.7978 10.764C 2.9054 10.8717 2.90542 10.9793 3.01303 11.087C 3.12063 11.3022 3.12063 11.5175 3.01303 11.6252L 2.25976 12.7016C 2.04454 13.0245 2.15216 13.3474 2.36737 13.5627L 4.0891 14.8544C 4.41193 15.0696 4.73474 14.962 4.94995 14.7467L 5.70322 13.6703C 5.81083 13.455 6.02604 13.455 6.24126 13.455C 6.34887 13.455 6.56408 13.5627 6.67168 13.5627C 6.8869 13.5627 6.9945 13.7779 7.10211 13.9932L 7.31734 15.2849C 7.31734 15.6078 7.64017 15.8231 7.96299 15.8231L 10.1151 15.5002C 10.438 15.5002 10.6532 15.1773 10.6532 14.8544L 10.438 13.5627C 10.438 13.3474 10.5456 13.1321 10.7608 13.0245C 10.8684 12.9168 10.976 12.9168 11.0836 12.8092C 11.2988 12.7015 11.514 12.7015 11.6217 12.8092L 12.6977 13.5627C 13.0206 13.7779 13.3434 13.6703 13.5586 13.455L 14.8499 11.7328C 15.0651 11.4098 14.9575 11.0869 14.7423 10.8717L 13.6662 10.1182C 13.451 10.0105 13.451 9.79524 13.451 9.57996C 13.5586 9.1494 13.6662 8.71885 13.6662 8.71885ZM 4.94995 7.64245C 5.05756 5.70493 6.88689 4.41324 8.71623 4.8438C 10.1151 5.16672 11.0836 6.4584 11.0836 7.96536C 10.976 9.90288 9.14667 11.1946 7.31734 10.764C 5.91844 10.4411 4.84235 9.14941 4.94995 7.64245Z"/>
<path id="path79_fill" d="M 0.645634 6.4584L 3.44344 6.4584C 3.76627 6.4584 4.0891 6.78133 4.0891 7.10425L 4.0891 9.9029C 4.0891 10.2258 4.41193 10.5487 4.73475 10.5487L 5.81083 10.5487C 6.13365 10.5487 6.45648 10.2258 6.45648 9.9029L 6.45648 7.10425C 6.45648 6.78133 6.77928 6.4584 7.1021 6.4584L 9.89991 6.4584C 10.2227 6.4584 10.5456 6.13548 10.5456 5.81256L 10.5456 4.73615C 10.5456 4.41323 10.2227 4.09034 9.89991 4.09034L 7.1021 4.09034C 6.77928 4.09034 6.45648 3.76741 6.45648 3.44449L 6.45648 0.645841C 6.45648 0.322921 6.13365 -6.56983e-06 5.81083 -6.56983e-06L 4.73475 -6.56983e-06C 4.41193 -6.56983e-06 4.0891 0.322921 4.0891 0.645841L 4.0891 3.44449C 4.0891 3.76741 3.76627 4.09034 3.44344 4.09034L 0.645634 4.09034C 0.32281 4.09034 1.31357e-05 4.41323 1.31357e-05 4.73615L 1.31357e-05 5.81256C 0.107621 6.24312 0.32281 6.4584 0.645634 6.4584Z"/>
<path id="path80_fill" d="M 1.07608 11.1946L 6.02605 11.1946C 6.6717 11.1946 7.10213 11.7328 7.10213 12.271L 7.10213 17.2224C 7.10213 17.8683 7.64017 18.2988 8.17821 18.2988L 10.1151 18.2988C 10.7608 18.2988 11.1912 17.7606 11.1912 17.2224L 11.1912 12.271C 11.1912 11.6251 11.7293 11.1946 12.2673 11.1946L 17.2173 11.1946C 17.8629 11.1946 18.2933 10.6564 18.2933 10.1182L 18.2933 8.18065C 18.2933 7.53481 17.7553 7.10425 17.2173 7.10425L 12.2673 7.10425C 11.6216 7.10425 11.1912 6.56605 11.1912 6.02785L 11.1912 1.07639C 11.1912 0.430554 10.6532 -6.56983e-06 10.1151 -6.56983e-06L 8.17821 -6.56983e-06C 7.53256 -6.56983e-06 7.10213 0.538194 7.10213 1.07639L 7.10213 6.02785C 7.10213 6.67369 6.56409 7.10425 6.02605 7.10425L 1.07608 7.10425C 0.430438 7.10425 6.56786e-06 7.64245 6.56786e-06 8.18065L 6.56786e-06 10.1182C 6.56786e-06 10.6564 0.430438 11.1946 1.07608 11.1946Z"/>
<path id="path81_fill" d="M 0.753242 7.5348L 3.98148 7.5348C 4.41191 7.5348 4.73474 7.85774 4.73474 8.2883L 4.73474 11.5175C 4.73474 11.9481 5.05758 12.271 5.48801 12.271L 6.77929 12.271C 7.20972 12.271 7.53255 11.9481 7.53255 11.5175L 7.53255 8.2883C 7.53255 7.85774 7.85536 7.5348 8.28579 7.5348L 11.514 7.5348C 11.9445 7.5348 12.2673 7.21189 12.2673 6.78133L 12.2673 5.48965C 12.2673 5.05909 11.9445 4.73617 11.514 4.73617L 8.28579 4.73617C 7.85536 4.73617 7.53255 4.41325 7.53255 3.98269L 7.53255 0.753488C 7.53255 0.322927 7.20972 -6.56983e-06 6.77929 -6.56983e-06L 5.48801 -6.56983e-06C 5.05758 -6.56983e-06 4.73474 0.322927 4.73474 0.753488L 4.73474 3.98269C 4.73474 4.41325 4.41191 4.73617 3.98148 4.73617L 0.753242 4.73617C 0.32281 4.73617 6.56786e-06 5.05909 6.56786e-06 5.48965L 6.56786e-06 6.78133C 6.56786e-06 7.21189 0.32281 7.5348 0.753242 7.5348Z"/>
</defs>
</svg>
