<?xml version="1.0" encoding="utf-8"?>
<!-- Generator: Adobe Illustrator 22.1.0, SVG Export Plug-In . SVG Version: 6.00 Build 0)  -->
<svg version="1.1" id="Layer_1" xmlns="http://www.w3.org/2000/svg" xmlns:xlink="http://www.w3.org/1999/xlink" x="0px" y="0px"
	 viewBox="0 0 453.5 425.2" style="enable-background:new 0 0 453.5 425.2;" xml:space="preserve">
<style type="text/css">
	.st0{fill:url(#SVGID_1_);}
</style>
<linearGradient id="SVGID_1_" gradientUnits="userSpaceOnUse" x1="70.865" y1="212.6" x2="382.675" y2="212.6">
	<stop  offset="0" style="stop-color:#50C0EC"/>
	<stop  offset="1.181820e-03" style="stop-color:#50C0EC"/>
	<stop  offset="1" style="stop-color:#1E8BCB"/>
</linearGradient>
<path class="st0" d="M253.6,156.9l-22.9,22.9c-0.4,0.4-0.8,0.7-1.3,0.9c-0.1,0.1-0.3,0.1-0.4,0.2c-0.7,0.3-1.5,0.5-2.2,0.5
	s-1.5-0.2-2.2-0.5c-0.1,0-0.3-0.1-0.4-0.2c-0.1-0.1-0.3-0.1-0.4-0.2c-0.1-0.1-0.2-0.1-0.3-0.2c-0.2-0.1-0.4-0.3-0.6-0.5l-22.9-22.9
	c-2.1-2.1-2.1-5.6,0-7.8c2.1-2.1,5.6-2.1,7.8,0l13.5,13.5V72.3c0-3,2.5-5.5,5.5-5.5c3,0,5.5,2.5,5.5,5.5v90.4l13.5-13.5
	c2.1-2.1,5.6-2.1,7.8,0C255.8,151.3,255.8,154.8,253.6,156.9z M253.6,268.3l-22.9-22.9c-0.2-0.2-0.5-0.5-0.8-0.7
	c-0.1-0.1-0.2-0.1-0.3-0.2c-0.4-0.2-0.7-0.4-1.1-0.5c-0.1-0.1-0.3-0.1-0.4-0.1c-0.2,0-0.5-0.1-0.7-0.1c-0.2,0-0.4,0-0.6,0
	s-0.4,0-0.6,0c-0.2,0-0.5,0.1-0.7,0.1c-0.1,0-0.3,0.1-0.4,0.1c-0.4,0.1-0.8,0.3-1.1,0.5c-0.1,0.1-0.2,0.1-0.3,0.2
	c-0.3,0.2-0.6,0.4-0.8,0.7l-22.9,22.9c-2.1,2.1-2.1,5.6,0,7.8c1.1,1.1,2.5,1.6,3.9,1.6c1.4,0,2.8-0.5,3.9-1.6l13.5-13.5v90.4
	c0,3,2.5,5.5,5.5,5.5c3,0,5.5-2.5,5.5-5.5v-90.4l13.5,13.5c1.1,1.1,2.5,1.6,3.9,1.6c1.4,0,2.8-0.5,3.9-1.6
	C255.8,273.9,255.8,270.4,253.6,268.3z M377.2,208.2h-90.4l13.5-13.5c2.1-2.1,2.1-5.6,0-7.8c-2.2-2.1-5.6-2.1-7.8,0l-22.9,22.9
	c-0.3,0.3-0.5,0.5-0.7,0.8c-0.1,0.1-0.1,0.2-0.2,0.3c-0.2,0.4-0.4,0.7-0.5,1.1c0,0.1-0.1,0.3-0.1,0.4c-0.1,0.2-0.1,0.4-0.1,0.7
	c0,0.2,0,0.4,0,0.6s0,0.4,0,0.6c0,0.2,0.1,0.4,0.1,0.7c0,0.1,0.1,0.3,0.1,0.4c0.1,0.4,0.3,0.8,0.5,1.1c0.1,0.1,0.1,0.2,0.2,0.3
	c0.2,0.3,0.4,0.6,0.7,0.8l22.9,22.9c1.1,1.1,2.5,1.6,3.9,1.6c1.4,0,2.8-0.5,3.9-1.6c2.1-2.1,2.1-5.6,0-7.8l-13.5-13.5h90.4
	c3,0,5.5-2.5,5.5-5.5C382.7,210.7,380.2,208.2,377.2,208.2z M185,211.5c0-0.1-0.1-0.3-0.2-0.4c-0.2-0.5-0.6-0.9-0.9-1.3L161,186.9
	c-2.2-2.1-5.6-2.1-7.8,0c-2.1,2.1-2.1,5.6,0,7.8l13.5,13.5H76.4c-3,0-5.5,2.5-5.5,5.5s2.5,5.5,5.5,5.5h90.4l-13.5,13.5
	c-2.1,2.1-2.1,5.6,0,7.8c1.1,1.1,2.5,1.6,3.9,1.6s2.8-0.5,3.9-1.6l22.9-22.9c0.4-0.4,0.7-0.8,0.9-1.3c0.1-0.1,0.1-0.3,0.2-0.4
	C185.7,214.5,185.7,212.9,185,211.5z M322.7,194.9c3-0.3,5.2-3,4.9-6.1c-0.7-6.7-1.7-12.7-3-18.3c-1.5-6.3-3.6-12.1-6.4-17.2
	c-6-10.9-15.8-19.4-28.2-24.5c-12.7-5.3-26.1-7.2-38.7-8.4c-3-0.3-5.7,1.9-6,4.9c-0.3,3,1.9,5.7,4.9,6c11.7,1.2,24.2,2.9,35.6,7.6
	c10.1,4.1,18,10.9,22.7,19.6c2.3,4.2,4.1,9.1,5.4,14.4c1.2,5.2,2.1,10.8,2.8,17c0.3,2.8,2.7,4.9,5.5,4.9
	C322.3,194.9,322.5,194.9,322.7,194.9z M251.7,306.7c0.8-0.1,1.6-0.2,2.4-0.3c6-0.8,13.1-1.8,20.2-3.5c8.9-2.1,16.3-4.8,22.6-8.2
	c5.6-3,10.2-6.4,14-10.4c4.2-4.4,7.6-9.9,10.4-16.9c1.3-3.3,2.4-6.8,3.2-10.4c1.1-4.7,1.8-9.5,2.4-14.3c0.1-1.1,0.3-2.2,0.4-3.3
	c0.3-3-1.9-5.7-4.9-6c-3-0.3-5.7,1.9-6,4.9c-0.1,1-0.2,2-0.4,2.9c-0.6,4.6-1.3,9-2.3,13.3c-0.7,3.1-1.6,6.1-2.7,8.8
	c-2.3,5.6-4.9,10-8.1,13.4c-3,3.1-6.7,5.9-11.2,8.3c-5.5,3-12,5.3-20,7.2c-6.6,1.6-13.3,2.5-19,3.3c-0.8,0.1-1.5,0.2-2.3,0.3
	c-3,0.4-5.2,3.1-4.8,6.1c0.3,2.8,2.7,4.9,5.5,4.9C251.3,306.8,251.5,306.8,251.7,306.7z M208,301.9c0.4-3-1.8-5.8-4.8-6.1
	c-0.8-0.1-1.7-0.2-2.5-0.3c-6.2-0.8-10.9-1.6-15.3-2.5c-0.9-0.2-4.3-1-4.4-1c-8.8-1.9-18-4.5-25.6-10.7c-1.1-0.9-2.2-1.9-3.3-3
	l-0.7-0.7l0,0c-8.2-8.7-12.9-21.6-14.7-40.4c-0.3-3-3-5.2-6-4.9c-3,0.3-5.2,3-4.9,6c1.4,13.7,4.7,33.6,18.4,47.6l0.1,0.1
	c0,0,0.1,0.1,0.2,0.2c1.3,1.3,2.7,2.6,4.1,3.7c9.4,7.6,20.5,10.8,30.1,12.9c0,0,3.6,0.8,4.5,1c4.7,1,9.6,1.8,16.1,2.6
	c0.9,0.1,1.8,0.2,2.7,0.3c0.2,0,0.4,0,0.7,0C205.3,306.8,207.6,304.7,208,301.9z M136.4,189.9c0.6-6,1.4-11.2,2.7-16
	c2.8-11.1,7.9-20,14.8-25.9c9.8-8.4,23.4-13.5,41.6-15.7c2.5-0.3,5.1-0.6,7.6-0.8c3-0.3,5.2-3,5-6c-0.3-3-3-5.2-6-5
	c-2.6,0.2-5.3,0.5-7.9,0.8c-20.4,2.5-36,8.5-47.4,18.3c-8.6,7.3-14.9,18.2-18.3,31.5c-1.4,5.3-2.3,11.1-2.9,17.7c-0.3,3,1.9,5.7,5,6
	c0.2,0,0.4,0,0.5,0C133.7,194.9,136.1,192.8,136.4,189.9z"/>
</svg>
