<svg width="56" height="56" viewBox="0 0 56 56" fill="none" xmlns="http://www.w3.org/2000/svg">
<rect x="0.5" y="0.5" width="55" height="55" rx="3.5" fill="white" stroke="#E4E4E4"/>
<g clip-path="url(#clip0_450_13840)">
<path d="M32.1677 30.7561L28.1282 37.99L23.9197 30.7486L23.3793 29.8188L23.0167 30.8313L20.7374 37.1958L20.4979 37.8644H21.2081H22.9874V38.5H12.5V37.8644H14.0969H14.4359L14.5614 37.5495L22.2733 18.1937L27.6943 28.5053L28.1428 29.3585L28.5819 28.5005L33.9481 18.0153L41.5599 37.546L41.6841 37.8644H42.0258H43.5V38.5H33.1043V37.8644H34.8831H35.5933L35.3539 37.1958L33.075 30.8313L32.7041 29.7955L32.1677 30.7561Z" stroke="#484848"/>
</g>
<defs>
<clipPath id="clip0_450_13840">
<rect width="31.9997" height="32" fill="white" transform="translate(12 12)"/>
</clipPath>
</defs>
</svg>
