<svg width="56" height="56" viewBox="0 0 56 56" fill="none" xmlns="http://www.w3.org/2000/svg">
<rect x="0.5" y="0.5" width="55" height="55" rx="3.5" fill="white" stroke="#E4E4E4"/>
<path d="M34.0002 15C31.8304 12.8302 29.9001 12 27.3663 12H19.3496C18.991 12 18.647 12.1451 18.3937 12.4032C18.1415 12.6603 18.0002 13.0085 18.0002 13.3714L18.0002 42.6286C18.0002 43.386 18.0002 44 18.5002 44C18.88 44 19.0002 43.7574 19.0002 43V31.2556C20.8255 31.2449 25.8172 31.2556 27.3663 31.2556C29.9001 31.2556 32.3031 30.2587 34.1326 28.4485C35.9816 26.6191 37 24.1968 37 21.6278C37 19.0588 36.0002 17 34.0002 15ZM34.0002 27C32.5002 28.7793 29.5628 30 27.3663 30C24.5002 30 20.8404 29.9892 19.0002 30C18.9896 28.0883 19.006 14.985 19.0002 13H27.3663C29.9687 13 32.2715 14.7714 33.5002 16C34.7288 17.2286 36.0002 19.6776 36.0002 21.5C36.0002 23.3224 35.2507 25.5166 34.0002 27Z" fill="#484848"/>
</svg>
