<svg width="56" height="56" viewBox="0 0 56 56" fill="none" xmlns="http://www.w3.org/2000/svg">
<rect x="0.5" y="0.5" width="55" height="55" rx="3.5" fill="white" stroke="#E4E4E4"/>
<path d="M42.4792 37.6124L37.1214 30.3422C36.8664 29.9971 36.532 29.716 36.1454 29.522C35.7589 29.328 35.3311 29.2265 34.8971 29.2259H28.0368V27.7827H33.36C33.9049 27.7765 34.4254 27.5595 34.8085 27.1786C35.1917 26.7977 35.4065 26.2838 35.4065 25.7483C35.4065 25.2128 35.1917 24.6989 34.8085 24.318C34.4254 23.9371 33.9049 23.7201 33.36 23.7139H28.0368V21.37C28.0365 20.9589 27.9404 20.5533 27.756 20.1844C27.5715 19.8154 27.3036 19.4928 26.9727 19.2412C27.7639 18.8667 28.4022 18.2394 28.7832 17.4619C29.1641 16.6843 29.2652 15.8028 29.0697 14.9615C28.8742 14.1202 28.3939 13.369 27.7072 12.831C27.0206 12.293 26.1684 12 25.2902 12C24.412 12 23.5599 12.293 22.8732 12.831C22.1866 13.369 21.7063 14.1202 21.5108 14.9615C21.3153 15.8028 21.4163 16.6843 21.7973 17.4619C22.1783 18.2394 22.8166 18.8667 23.6078 19.2412C23.2768 19.4927 23.0089 19.8153 22.8244 20.1843C22.64 20.5533 22.544 20.9589 22.5437 21.37V24.3042C20.6039 24.3963 18.733 25.04 17.1584 26.157C15.5837 27.274 14.3731 28.8162 13.6734 30.5964C12.9737 32.3766 12.8152 34.3181 13.217 36.1852C13.6188 38.0522 14.5638 39.7644 15.937 41.1138C17.3103 42.4633 19.0527 43.3918 20.9528 43.7867C22.8528 44.1816 24.8287 44.0259 26.6404 43.3384C28.4521 42.6509 30.0216 41.4613 31.1584 39.9141C32.2952 38.3668 32.9502 36.5285 33.0441 34.6224H33.4938L38.0292 40.7778C38.24 41.0655 38.5067 41.3093 38.8141 41.495C39.1214 41.6808 39.4631 41.8048 39.8196 41.8599C39.9651 41.8828 40.1122 41.8944 40.2596 41.8944C40.7652 41.8932 41.2606 41.7548 41.6914 41.4946C42.1221 41.2344 42.4714 40.8625 42.7008 40.4198C42.9303 39.977 43.0309 39.4807 42.9917 38.9854C42.9525 38.49 42.775 38.0149 42.4787 37.6124H42.4792ZM22.3835 15.815C22.3835 15.2502 22.554 14.698 22.8734 14.2283C23.1927 13.7586 23.6467 13.3926 24.1777 13.1764C24.7088 12.9602 25.2932 12.9036 25.857 13.0138C26.4209 13.124 26.9388 13.396 27.3453 13.7954C27.7517 14.1948 28.0286 14.7037 28.1408 15.2577C28.253 15.8117 28.1954 16.3859 27.9755 16.9078C27.7555 17.4297 27.383 17.8757 26.9051 18.1896C26.4272 18.5035 25.8652 18.671 25.2904 18.6711C24.5197 18.6703 23.7808 18.3692 23.2358 17.8338C22.6909 17.2983 22.3844 16.5723 22.3835 15.815ZM25.2904 34.6224H29.4841C29.3915 35.8368 28.9462 36.9996 28.201 37.9726C27.4558 38.9457 26.442 39.6881 25.2801 40.1118C24.1182 40.5354 22.8569 40.6225 21.6461 40.3627C20.4353 40.1028 19.3259 39.507 18.4495 38.6459C17.5731 37.7848 16.9667 36.6946 16.7022 35.5049C16.4377 34.3151 16.5263 33.0758 16.9574 31.934C17.3885 30.7923 18.1441 29.7961 19.1343 29.0638C20.1245 28.3315 21.3078 27.8939 22.5437 27.8029V31.924C22.5446 32.6395 22.8343 33.3254 23.3492 33.8313C23.8641 34.3371 24.5622 34.6217 25.2904 34.6224ZM23.0286 43.047C20.6675 43.0482 18.3993 42.1434 16.7071 40.5254C15.0149 38.9074 14.0325 36.704 13.9693 34.3848C13.9061 32.0655 14.767 29.8136 16.3686 28.1089C17.9702 26.4042 20.1859 25.3814 22.5437 25.2583V26.8474C21.1156 26.9388 19.7446 27.4328 18.5948 28.2702C17.4451 29.1076 16.5653 30.253 16.0609 31.569C15.5566 32.8851 15.449 34.3161 15.751 35.6907C16.053 37.0653 16.7518 38.3253 17.7638 39.3196C18.7758 40.314 20.0581 41.0007 21.457 41.2974C22.8559 41.5941 24.3123 41.4883 25.6516 40.9927C26.9909 40.497 28.1564 39.6325 29.0086 38.5027C29.8608 37.3729 30.3634 36.0257 30.4565 34.6224H32.0742C31.9475 36.8965 30.9396 39.0366 29.2574 40.6033C27.5752 42.17 25.3464 43.0445 23.0286 43.047ZM41.296 40.6092C40.9142 40.8806 40.4385 40.9919 39.9732 40.9187C39.508 40.8455 39.0914 40.5937 38.8151 40.2188L34.1347 33.8665C34.0898 33.8055 34.0308 33.7558 33.9625 33.7216C33.8943 33.6873 33.8187 33.6694 33.7421 33.6694H25.2904C24.8194 33.6689 24.3678 33.4849 24.0347 33.1577C23.7016 32.8305 23.5142 32.3868 23.5136 31.924V21.37C23.5106 21.1389 23.5544 20.9095 23.6424 20.6952C23.7304 20.4809 23.8608 20.2858 24.026 20.1214C24.1913 19.9569 24.3882 19.8264 24.6052 19.7373C24.8222 19.6482 25.055 19.6023 25.2902 19.6023C25.5254 19.6023 25.7583 19.6482 25.9753 19.7373C26.1923 19.8264 26.3892 19.9569 26.5544 20.1214C26.7197 20.2858 26.8501 20.4809 26.9381 20.6952C27.0261 20.9095 27.0698 21.1389 27.0669 21.37V24.1909C27.0669 24.2535 27.0794 24.3155 27.1037 24.3733C27.1281 24.4312 27.1638 24.4837 27.2089 24.528C27.2539 24.5722 27.3074 24.6073 27.3662 24.6312C27.4251 24.6552 27.4881 24.6675 27.5518 24.6674H33.36C33.6488 24.6719 33.9243 24.7879 34.1269 24.9902C34.3296 25.1925 34.4432 25.465 34.4432 25.7488C34.4432 26.0327 34.3296 26.3052 34.1269 26.5075C33.9243 26.7098 33.6488 26.8257 33.36 26.8302H27.5518C27.4232 26.8302 27.2999 26.8805 27.2089 26.9698C27.118 27.0592 27.0669 27.1804 27.0669 27.3068V29.7029C27.0669 29.7655 27.0794 29.8275 27.1037 29.8853C27.1281 29.9431 27.1638 29.9957 27.2089 30.0399C27.2539 30.0842 27.3074 30.1193 27.3662 30.1432C27.4251 30.1672 27.4881 30.1795 27.5518 30.1794H34.8968C35.1776 30.1798 35.4543 30.2454 35.7044 30.3709C35.9545 30.4964 36.1708 30.6782 36.3358 30.9015L41.6933 38.1717C41.9693 38.547 42.0824 39.0145 42.0079 39.4716C41.9334 39.9288 41.6774 40.3382 41.296 40.61V40.6092Z" fill="#484848"/>
</svg>
