<svg width="56" height="56" viewBox="0 0 56 56" fill="none" xmlns="http://www.w3.org/2000/svg">
<rect x="0.5" y="0.5" width="55" height="55" rx="3.5" fill="white" stroke="#E4E4E4"/>
<g clip-path="url(#clip0_450_13819)">
<path d="M15.2328 27.9562C14.5573 29.434 15.2102 31.1859 16.6881 31.8613C17.0787 32.0399 17.4945 32.1296 17.9115 32.1296C18.2588 32.1296 18.607 32.0674 18.9421 31.9425C19.6797 31.6676 20.2661 31.1219 20.5933 30.406C20.9205 29.6901 20.9493 28.8896 20.6744 28.152C20.3995 27.4145 19.8538 26.8281 19.138 26.5009C17.6601 25.8255 15.9082 26.4783 15.2328 27.9562ZM18.7482 27.3537C19.2363 27.5767 19.6084 27.9765 19.7958 28.4795C19.9832 28.9823 19.9636 29.5282 19.7405 30.0163C19.5174 30.5044 19.1176 30.8765 18.6147 31.0638C18.1118 31.2513 17.566 31.2316 17.0779 31.0085C16.0702 30.548 15.6251 29.3535 16.0856 28.3458C16.3086 27.8577 16.7085 27.4857 17.2114 27.2983C17.4399 27.2132 17.6772 27.1707 17.914 27.1707C18.1983 27.1707 18.4819 27.2319 18.7482 27.3537Z" fill="#484848"/>
<path d="M19.6156 35.3038C18.9401 36.7817 19.593 38.5336 21.0709 39.209C21.4668 39.39 21.8821 39.4755 22.2914 39.4755C23.4099 39.4755 24.4816 38.8357 24.9761 37.7537C25.6515 36.2758 24.9986 34.524 23.5208 33.8485C22.0428 33.1732 20.291 33.8259 19.6156 35.3038ZM20.4684 35.6935C20.6915 35.2054 21.0913 34.8334 21.5942 34.646C21.8227 34.5609 22.06 34.5185 22.2968 34.5185C22.5811 34.5185 22.8647 34.5797 23.131 34.7014C24.1387 35.1619 24.5838 36.3563 24.1233 37.364C23.6628 38.3716 22.4683 38.8166 21.4608 38.3562C20.453 37.8957 20.0079 36.7012 20.4684 35.6935Z" fill="#484848"/>
<path d="M32.0448 35.0936C30.567 34.4183 28.815 35.0711 28.1396 36.549C27.4642 38.0268 28.1171 39.7787 29.595 40.4542C29.9908 40.6351 30.4062 40.7207 30.8154 40.7207C31.9338 40.7207 33.0056 40.0808 33.5 38.9988C34.1755 37.5208 33.5227 35.769 32.0448 35.0936ZM32.6473 38.609C32.1868 39.6168 30.9924 40.0618 29.9847 39.6013C28.9771 39.1408 28.532 37.9463 28.9924 36.9386C29.3295 36.2009 30.0602 35.7647 30.8228 35.7647C31.1018 35.7647 31.3852 35.8231 31.6551 35.9465C32.6627 36.407 33.1078 37.6014 32.6473 38.609Z" fill="#484848"/>
<path d="M35.3773 33.8574C35.7731 34.0384 36.1885 34.1239 36.5978 34.1239C37.7163 34.1239 38.788 33.4841 39.2825 32.4021C39.9579 30.9243 39.305 29.1724 37.8271 28.4969C36.3494 27.8216 34.5975 28.4744 33.922 29.9523C33.2466 31.4302 33.8994 33.182 35.3773 33.8574ZM34.7748 30.342C35.112 29.6043 35.8426 29.1681 36.6052 29.1681C36.8843 29.1681 37.1676 29.2265 37.4375 29.3498C38.4451 29.8103 38.8902 31.0048 38.4297 32.0124C37.9691 33.0201 36.7745 33.4651 35.767 33.0047C34.7594 32.5441 34.3143 31.3497 34.7748 30.342Z" fill="#484848"/>
<path d="M24.6143 23.0593C25.2897 21.5814 24.6369 19.8296 23.159 19.1542C21.6811 18.4788 19.9292 19.1316 19.2538 20.6096C18.5784 22.0874 19.2312 23.8393 20.7091 24.5147C21.1051 24.6956 21.5204 24.7812 21.9297 24.7812C23.0482 24.7811 24.1198 24.1413 24.6143 23.0593ZM23.7615 22.6696C23.301 23.6772 22.1065 24.1222 21.0989 23.6618C20.0912 23.2013 19.6461 22.0069 20.1066 20.9993C20.4437 20.2614 21.1744 19.8253 21.937 19.8253C22.216 19.8253 22.4993 19.8837 22.7692 20.007C23.7769 20.4674 24.222 21.6619 23.7615 22.6696Z" fill="#484848"/>
<path d="M40.7733 16.2276C40.6038 16.4233 40.6251 16.7194 40.821 16.8889C41.0168 17.0583 41.3128 17.0371 41.4823 16.8412L43.3014 14.7393C43.8904 14.0589 43.8234 13.0176 43.152 12.4181C42.4805 11.8187 41.4384 11.87 40.8287 12.5321L33.9085 20.0758C33.4111 19.5491 33.0499 18.8861 32.875 17.9595C32.7955 17.5387 32.765 17.0802 32.7328 16.5948C32.6368 15.1506 32.528 13.5137 30.9823 12.6073C29.4231 11.6932 27.4101 11.8208 24.8283 12.997C19.839 15.2703 15.4006 19.488 13.521 23.7422C13.4728 23.8513 13.4253 23.9626 13.3799 24.0728C13.2813 24.3123 13.3955 24.5862 13.635 24.6848C13.8746 24.7835 14.1484 24.6691 14.247 24.4297C14.2893 24.3268 14.3336 24.223 14.3786 24.1212C15.2936 22.0501 16.8551 19.9627 18.8943 18.0848C20.7702 16.3571 23.0156 14.8533 25.217 13.8503C27.5008 12.8099 29.2315 12.6678 30.508 13.4162C31.6253 14.0714 31.7088 15.3273 31.7971 16.6571C31.8299 17.1488 31.8637 17.6572 31.9535 18.1335C32.1741 19.3018 32.6488 20.1276 33.273 20.7686L29.3722 25.0208C29.1921 24.9901 29.0086 24.9709 28.8221 24.9647C27.8519 24.9335 26.9626 25.2496 26.3874 25.8338C25.9473 26.2808 25.6568 26.7114 25.3848 27.3203C25.1752 27.7893 25.0118 28.2723 24.7734 28.7364C24.541 29.189 24.0892 29.5333 23.6356 29.8381C23.3129 30.0549 23.2638 30.3326 23.2633 30.4789C23.2622 30.7893 23.4588 31.0879 23.832 31.3424C24.0043 31.46 24.2035 31.5665 24.4409 31.6679C25.2233 32.0019 26.088 32.172 26.9848 32.172C27.33 32.172 27.6798 32.1468 28.0316 32.0961C28.7217 31.9966 29.3516 31.8135 29.9038 31.552C31.0307 31.0184 31.9086 29.951 32.1406 28.8325C32.2242 28.4296 32.2158 28.0109 32.1271 27.6035L36.3641 22.7329C36.6746 22.8892 36.9912 23.051 37.3068 23.2248C38.1985 23.7158 38.9669 24.343 39.5908 25.0888C40.9344 26.6954 41.2873 28.6318 41.3468 29.9733C41.442 32.1206 40.8565 34.3268 39.6539 36.353C38.5069 38.2856 36.8822 39.9381 34.9554 41.1317C31.1585 43.484 25.722 43.7093 21.1053 41.7058C19.0308 40.8055 17.2041 39.3312 15.8225 37.4421C14.4488 35.5637 13.5846 33.3728 13.3236 31.106C13.1428 29.5362 13.2375 27.9593 13.605 26.419C13.665 26.1672 13.5096 25.9143 13.2577 25.8542C13.006 25.7943 12.753 25.9495 12.6928 26.2015C12.2999 27.8483 12.1987 29.5346 12.392 31.2133C12.6716 33.6411 13.5961 35.9865 15.0656 37.9957C16.5455 40.019 18.5048 41.5994 20.732 42.5659C22.9433 43.5256 25.3353 44.0001 27.6676 44.0001C30.493 44 33.2304 43.3033 35.4491 41.9288C37.5036 40.6559 39.2364 38.8934 40.4601 36.8316C41.7562 34.6479 42.3866 32.262 42.2834 29.9318C42.189 27.8008 41.5066 25.9181 40.31 24.4873C39.6112 23.6518 38.753 22.9506 37.759 22.4034C37.5025 22.2622 37.2488 22.1305 36.9986 22.0033L40.0673 18.4759C40.2367 18.2801 40.2153 17.9841 40.0196 17.8146C39.824 17.6452 39.5279 17.6665 39.3583 17.8623L33.0401 25.1618L31.6336 23.9063L41.5186 13.1672C41.7833 12.8797 42.236 12.8574 42.5275 13.1176C42.8191 13.378 42.8483 13.8301 42.5924 14.1258L40.7733 16.2276ZM31.2225 28.642C31.0482 29.4826 30.373 30.2923 29.5025 30.7045C29.035 30.9258 28.4951 31.0818 27.8978 31.168C26.8023 31.326 25.7345 31.2005 24.8093 30.8055C24.6286 30.7283 24.4818 30.6505 24.3605 30.5678C24.3368 30.5516 24.3159 30.5361 24.2976 30.5216C24.8081 30.1678 25.3054 29.753 25.6076 29.1646C25.8502 28.6922 26.0257 28.1841 26.2409 27.7027C26.4668 27.1973 26.6952 26.8576 27.0556 26.4916C27.4476 26.0935 28.0811 25.8788 28.7913 25.9018C29.4485 25.9231 30.0661 26.1308 30.5425 26.6003C31.1076 27.1575 31.3681 27.9398 31.2225 28.642ZM32.421 25.8661L31.7418 26.627C31.5941 26.3771 31.4136 26.1425 31.2008 25.9326C31.2008 25.9326 31.2007 25.9326 31.2007 25.9325C30.9496 25.6851 30.6604 25.4802 30.3536 25.3294L31.0038 24.601L32.421 25.8661Z" fill="#484848"/>
</g>
<defs>
<clipPath id="clip0_450_13819">
<rect width="32" height="32" fill="white" transform="translate(12 12)"/>
</clipPath>
</defs>
</svg>
