<svg width="56" height="56" viewBox="0 0 56 56" fill="none" xmlns="http://www.w3.org/2000/svg">
<rect x="0.5" y="0.5" width="55" height="55" rx="3.5" fill="white" stroke="#E4E4E4"/>
<path d="M40.8118 24.6329H37.5847V23.3399C37.5847 23.2257 37.5386 23.1162 37.4565 23.0354C37.3745 22.9546 37.2633 22.9092 37.1472 22.9092H16.1385C16.0225 22.9092 15.9112 22.9546 15.8292 23.0354C15.7472 23.1162 15.7011 23.2257 15.701 23.3399V28.7796C15.7032 30.7215 16.2772 32.6212 17.3535 34.2485C18.4298 35.8758 19.9623 37.1609 21.7653 37.9483H12.4375C12.3215 37.9484 12.2102 37.9938 12.1282 38.0745C12.0462 38.1553 12.0001 38.2648 12 38.379C12.0008 39.074 12.2816 39.7403 12.7807 40.2318C13.2798 40.7232 13.9566 40.9996 14.6625 41.0004H38.6232C39.3291 40.9996 40.0059 40.7232 40.505 40.2318C41.0042 39.7403 41.285 39.074 41.2857 38.379C41.2857 38.2648 41.2396 38.1553 41.1575 38.0745C41.0755 37.9938 40.9643 37.9484 40.8482 37.9483H31.5205C33.3278 37.1556 34.8633 35.8647 35.9417 34.2316H40.8118C41.657 34.2308 42.4673 33.8999 43.065 33.3116C43.6628 32.7232 43.999 31.9255 44 31.0933V27.7704C43.9988 26.9384 43.6625 26.1408 43.0648 25.5526C42.4671 24.9644 41.6568 24.6337 40.8118 24.6329ZM37.5847 27.4635H40.8118C40.8946 27.4636 40.974 27.4961 41.0326 27.5538C41.0912 27.6114 41.1241 27.6896 41.1243 27.7712V31.0941C41.1241 31.1756 41.0912 31.2538 41.0326 31.3115C40.974 31.3691 40.8946 31.4016 40.8118 31.4017H37.2295C37.4652 30.5473 37.5847 29.6658 37.5847 28.7803V27.4635ZM40.3565 38.8105C40.2587 39.1902 40.0352 39.5269 39.7213 39.7676C39.4074 40.0083 39.0211 40.1392 38.6232 40.1397H14.6625C14.2647 40.1392 13.8783 40.0083 13.5644 39.7676C13.2506 39.5269 13.0271 39.1902 12.9293 38.8105H40.3565ZM27.3973 37.949H25.8885C23.4192 37.9466 21.0518 36.9797 19.3057 35.2606C17.5597 33.5416 16.5776 31.2107 16.575 28.7796V23.7707H36.7097V28.7796C36.707 31.2105 35.7249 33.541 33.9791 35.2598C32.2333 36.9787 29.8662 37.9456 27.3973 37.9483V37.949ZM43.125 31.0933C43.1243 31.6969 42.8804 32.2756 42.4469 32.7025C42.0134 33.1293 41.4256 33.3694 40.8125 33.3701H36.45C36.6394 33.0112 36.8064 32.6414 36.95 32.2625H40.8113C41.1261 32.2621 41.4279 32.1388 41.6505 31.9196C41.8731 31.7004 41.9984 31.4033 41.9988 31.0933V27.7704C41.9984 27.4605 41.8731 27.1633 41.6505 26.9441C41.4279 26.725 41.1261 26.6017 40.8113 26.6013H37.5847V25.4936H40.8118C41.4248 25.4944 42.0126 25.7345 42.4461 26.1613C42.8797 26.5881 43.1235 27.1668 43.1243 27.7704L43.125 31.0933Z" fill="#484848"/>
<path d="M22.2476 21.0302C22.2476 21.1445 22.2937 21.254 22.3758 21.3348C22.4578 21.4156 22.5691 21.461 22.6851 21.461C22.8011 21.461 22.9124 21.4156 22.9945 21.3348C23.0765 21.254 23.1226 21.1445 23.1226 21.0302C23.1129 20.7095 23.1857 20.3916 23.3344 20.106C23.5337 19.7097 23.6326 19.2718 23.6226 18.8297C23.6326 18.3877 23.5337 17.9499 23.3344 17.5538C23.1859 17.2685 23.1131 16.9509 23.1226 16.6305C23.1129 16.3101 23.1858 15.9924 23.3344 15.7072C23.5338 15.3109 23.6327 14.8729 23.6226 14.4307C23.6226 14.3165 23.5765 14.2069 23.4945 14.1262C23.4124 14.0454 23.3011 14 23.1851 14C23.0691 14 22.9578 14.0454 22.8758 14.1262C22.7937 14.2069 22.7476 14.3165 22.7476 14.4307C22.7573 14.7512 22.6845 15.0688 22.5359 15.354C22.3363 15.7503 22.2373 16.1883 22.2476 16.6305C22.2375 17.0726 22.3364 17.5105 22.5359 17.9067C22.6845 18.1922 22.7573 18.5101 22.7476 18.8307C22.7574 19.1515 22.6845 19.4694 22.5359 19.755C22.3366 20.1509 22.2377 20.5885 22.2476 21.0302Z" fill="#484848"/>
<path d="M25.9553 21.0302C25.9553 21.1445 26.0014 21.254 26.0835 21.3348C26.1655 21.4156 26.2768 21.461 26.3928 21.461C26.5089 21.461 26.6202 21.4156 26.7022 21.3348C26.7842 21.254 26.8303 21.1445 26.8303 21.0302C26.8206 20.7095 26.8935 20.3915 27.0421 20.106C27.2416 19.7098 27.3405 19.2718 27.3303 18.8297C27.3404 18.3877 27.2415 17.9499 27.0421 17.5538C26.8936 17.2685 26.8208 16.9509 26.8303 16.6305C26.8206 16.3101 26.8935 15.9924 27.0421 15.7072C27.2415 15.3113 27.3405 14.8736 27.3303 14.4317C27.3303 14.3175 27.2842 14.2079 27.2022 14.1271C27.1202 14.0464 27.0089 14.001 26.8928 14.001C26.7768 14.001 26.6655 14.0464 26.5835 14.1271C26.5014 14.2079 26.4553 14.3175 26.4553 14.4317C26.465 14.7521 26.3922 15.0698 26.2436 15.355C26.0443 15.751 25.9454 16.1886 25.9553 16.6305C25.9454 17.0726 26.0443 17.5105 26.2436 17.9067C26.3922 18.1922 26.4651 18.5101 26.4553 18.8307C26.4651 19.1515 26.3922 19.4694 26.2436 19.755C26.0445 20.151 25.9456 20.5885 25.9553 21.0302Z" fill="#484848"/>
<path d="M29.6632 21.0302C29.6632 21.1445 29.7093 21.254 29.7913 21.3348C29.8734 21.4156 29.9847 21.461 30.1007 21.461C30.2167 21.461 30.328 21.4156 30.4101 21.3348C30.4921 21.254 30.5382 21.1445 30.5382 21.0302C30.5283 20.7095 30.6012 20.3915 30.7499 20.106C30.9492 19.7097 31.048 19.2718 31.0379 18.8297C31.048 18.3878 30.9492 17.95 30.7499 17.5538C30.6014 17.2685 30.5285 16.9509 30.5382 16.6305C30.5282 16.3097 30.601 15.9917 30.7499 15.7062C30.9491 15.3102 31.048 14.8726 31.0379 14.4307C31.0379 14.3165 30.9919 14.2069 30.9098 14.1262C30.8278 14.0454 30.7165 14 30.6004 14C30.4844 14 30.3731 14.0454 30.2911 14.1262C30.209 14.2069 30.1629 14.3165 30.1629 14.4307C30.1727 14.7512 30.0998 15.0688 29.9512 15.354C29.7518 15.7503 29.653 16.1883 29.6632 16.6305C29.6532 17.0726 29.7521 17.5105 29.9514 17.9067C30.1001 18.1922 30.1729 18.5101 30.1632 18.8307C30.1729 19.1515 30.1001 19.4694 29.9514 19.755C29.7523 20.151 29.6534 20.5885 29.6632 21.0302Z" fill="#484848"/>
</svg>
