<svg width="56" height="56" viewBox="0 0 56 56" fill="none" xmlns="http://www.w3.org/2000/svg">
<rect x="0.5" y="0.5" width="55" height="55" rx="3.5" fill="white" stroke="#E4E4E4"/>
<g clip-path="url(#clip0_450_13803)">
<path d="M26.8486 30.4988C26.4711 30.4988 26.164 30.1904 26.164 29.8113C26.164 29.5524 25.9549 29.3426 25.6971 29.3426C25.4393 29.3426 25.2303 29.5524 25.2303 29.8113C25.2303 30.7073 25.9563 31.4362 26.8486 31.4362C27.2989 31.4362 27.7065 31.2505 28.0002 30.9516C28.2938 31.2505 28.7015 31.4362 29.1517 31.4362C30.044 31.4362 30.77 30.7073 30.77 29.8113C30.77 29.5524 30.561 29.3426 30.3032 29.3426C30.0454 29.3426 29.8364 29.5524 29.8364 29.8113C29.8364 30.1904 29.5292 30.4988 29.1517 30.4988C28.7742 30.4988 28.467 30.1904 28.467 29.8113V29.4363C29.2393 29.4363 29.8675 28.8055 29.8675 28.0302C29.8675 27.2549 29.2393 26.624 28.467 26.624H27.5333C26.7611 26.624 26.1328 27.2549 26.1328 28.0302C26.1328 28.8055 26.7611 29.4363 27.5333 29.4363V29.8113C27.5333 30.1904 27.2262 30.4988 26.8486 30.4988ZM27.0665 28.0302C27.0665 27.7717 27.2759 27.5615 27.5333 27.5615H28.467C28.7244 27.5615 28.9338 27.7717 28.9338 28.0302C28.9338 28.2887 28.7244 28.4989 28.467 28.4989H27.5333C27.2759 28.4989 27.0665 28.2887 27.0665 28.0302Z" fill="#484848"/>
<path d="M30.801 26.3125V27.1249C30.801 27.3838 31.01 27.5936 31.2679 27.5936C31.5257 27.5936 31.7347 27.3838 31.7347 27.1249V26.3125C31.7347 26.0535 31.5257 25.8438 31.2679 25.8438C31.01 25.8438 30.801 26.0535 30.801 26.3125Z" fill="#484848"/>
<path d="M24.2654 26.3125V27.1249C24.2654 27.3838 24.4745 27.5936 24.7323 27.5936C24.9901 27.5936 25.1991 27.3838 25.1991 27.1249V26.3125C25.1991 26.0535 24.9901 25.8438 24.7323 25.8438C24.4745 25.8438 24.2654 26.0535 24.2654 26.3125Z" fill="#484848"/>
<path d="M39.907 37.1372C39.3625 35.3424 37.9549 32.7974 34.3557 30.6901C35.0203 29.6629 35.4071 28.4384 35.4071 27.1248C35.4071 26.3791 35.2834 25.6474 35.0394 24.9498C34.954 24.7056 34.6876 24.5771 34.4442 24.6629C34.201 24.7487 34.073 25.0162 34.1584 25.2605C34.3674 25.858 34.4734 26.4852 34.4734 27.1248C34.4734 30.2262 31.9604 32.7494 28.8714 32.7494H27.1286C24.0396 32.7494 21.5266 30.2262 21.5266 27.1248C21.5266 24.0234 24.0396 21.5002 27.1286 21.5002H28.8714C30.5288 21.5002 32.092 22.2313 33.1602 23.506C33.3261 23.7041 33.6206 23.7295 33.8179 23.5629C34.0152 23.3963 34.0406 23.1006 33.8746 22.9025C33.4247 22.3657 32.8993 21.912 32.3209 21.5508L35.8944 16.5139C36.3671 15.8477 36.5323 15.0092 36.3476 14.2132C36.1625 13.4156 35.6435 12.735 34.9237 12.3457C34.1387 11.9213 33.2209 11.886 32.4056 12.2492C31.5935 12.611 31.0061 13.314 30.794 14.1779L29.2245 20.5723C29.1073 20.566 28.9896 20.5627 28.8714 20.5627H27.1285C27.0099 20.5627 26.8922 20.5661 26.7751 20.5724L25.2057 14.178C24.9936 13.3141 24.4062 12.611 23.5941 12.2492C22.7788 11.886 21.861 11.9213 21.0759 12.3457C20.3561 12.735 19.8372 13.4157 19.652 14.2133C19.4674 15.0092 19.6326 15.8477 20.1052 16.514L23.6802 21.553C21.8282 22.7127 20.5929 24.7765 20.5929 27.1249C20.5929 28.4385 20.9796 29.663 21.6443 30.6901C18.0451 32.7976 16.6375 35.3425 16.093 37.1373C15.7628 38.2256 16.3381 39.3806 17.4027 39.7669C17.5194 39.8093 17.6388 39.8411 17.7599 39.8623C17.7687 40.1984 17.8193 40.5418 17.9149 40.885C17.9842 41.1343 18.2417 41.2799 18.4901 41.2103C18.7384 41.1406 18.8835 40.882 18.8141 40.6327C18.4894 39.466 18.8277 38.3093 19.6759 37.686C20.1735 37.3204 20.8034 37.1776 21.4494 37.2837C22.239 37.4134 22.9806 37.8987 23.4842 38.6149C24.442 39.9776 24.282 41.7762 23.1276 42.6245C22.1818 43.3195 20.8239 43.1738 19.8257 42.2698C19.6342 42.0964 19.339 42.1117 19.1664 42.304C18.9937 42.4962 19.0089 42.7926 19.2004 42.966C19.9552 43.6495 20.8747 44.0001 21.7677 44.0001C22.4485 44.0001 23.1139 43.7963 23.6791 43.381C23.7844 43.3036 23.8832 43.2202 23.9767 43.1322C25.0052 43.6995 26.1625 43.9988 27.3449 43.9988H28.6521C29.8351 43.9988 30.9934 43.6992 32.0224 43.1312C32.116 43.2196 32.2152 43.3033 32.3209 43.381C32.873 43.7867 33.5354 43.9987 34.2292 43.9987C34.4166 43.9987 34.6062 43.9833 34.7966 43.952C35.8316 43.7819 36.7964 43.1565 37.4433 42.2361C37.9575 41.5046 38.2165 40.671 38.2348 39.8632C38.3576 39.842 38.4788 39.81 38.5973 39.767C39.6619 39.3806 40.2372 38.2255 39.907 37.1372ZM31.7006 14.4024C31.8431 13.8219 32.2381 13.3494 32.7843 13.1061C33.3336 12.8613 33.9521 12.885 34.4811 13.1711C34.9651 13.4329 35.314 13.8903 35.4383 14.426C35.5622 14.9601 35.4513 15.5228 35.1341 15.97L31.4872 21.1102C31.0617 20.9237 30.6159 20.7829 30.1571 20.6907L31.7006 14.4024ZM20.8656 15.97C20.5484 15.5228 20.4374 14.9601 20.5614 14.426C20.6857 13.8903 21.0346 13.4328 21.5186 13.1711C22.0476 12.8851 22.666 12.8614 23.2154 13.1061C23.7616 13.3495 24.1567 13.8219 24.2991 14.4024L25.8426 20.6906C25.3801 20.7836 24.9353 20.926 24.5134 21.1116L20.8656 15.97ZM19.1245 36.9295C18.4656 37.4137 18.0277 38.1206 17.8491 38.923C17.8056 38.9126 17.7624 38.9006 17.7199 38.8852C17.1232 38.6687 16.8009 38.0209 16.9861 37.4104C17.4863 35.7617 18.8011 33.4098 22.212 31.4433C22.3269 31.575 22.4471 31.702 22.572 31.8241C21.2997 33.0152 20.512 34.6408 20.3672 36.3798C19.9191 36.4716 19.4966 36.6561 19.1245 36.9295ZM27.3449 43.0613C26.3725 43.0613 25.4198 42.8283 24.5638 42.3848C25.2772 41.1413 25.2014 39.4323 24.2469 38.0743C23.6 37.154 22.6352 36.5286 21.6002 36.3585C21.5033 36.3426 21.4067 36.3316 21.3104 36.3238C21.468 34.8303 22.1735 33.4422 23.2917 32.4335C24.3699 33.2214 25.696 33.6869 27.1286 33.6869H28.8714C30.3034 33.6869 31.629 33.2217 32.7071 32.4345C33.8243 33.4428 34.5294 34.8298 34.6868 36.3241C34.5915 36.3319 34.4958 36.3428 34.3999 36.3585C33.3648 36.5286 32.4001 37.154 31.7531 38.0743V38.0744C30.7989 39.4319 30.7229 41.1403 31.4356 42.3837C30.5791 42.828 29.6253 43.0613 28.6521 43.0613H27.3449ZM36.6806 41.6954C36.177 42.4117 35.4355 42.897 34.6458 43.0267C33.9998 43.1328 33.3699 42.99 32.8723 42.6244C31.718 41.7762 31.558 39.9775 32.5158 38.6149V38.6149C33.0194 37.8986 33.761 37.4133 34.5505 37.2836C35.1967 37.1775 35.8265 37.3203 36.3241 37.686C37.4784 38.5342 37.6384 40.3329 36.6806 41.6954ZM38.28 38.8852C38.2353 38.9015 38.1898 38.9139 38.144 38.9247C37.968 38.1308 37.5407 37.4184 36.8755 36.9295C36.5025 36.6555 36.0789 36.4708 35.6295 36.3792C35.4848 34.6396 34.6974 33.0159 33.4265 31.8256C33.5519 31.703 33.6726 31.5755 33.7879 31.4433C37.1988 33.4099 38.5136 35.7617 39.0137 37.4104C39.1991 38.0208 38.8768 38.6687 38.28 38.8852Z" fill="#484848"/>
</g>
<defs>
<clipPath id="clip0_450_13803">
<rect width="32" height="32" fill="white" transform="translate(12 12)"/>
</clipPath>
</defs>
</svg>
