<svg width="56" height="56" viewBox="0 0 56 56" fill="none" xmlns="http://www.w3.org/2000/svg">
<rect x="0.5" y="0.5" width="55" height="55" rx="3.5" fill="white" stroke="#E4E4E4"/>
<path fill-rule="evenodd" clip-rule="evenodd" d="M15.7658 33.6206H15.6359C14.6716 33.6206 13.7468 33.2484 13.0649 32.5858C12.3831 31.9233 12 31.0247 12 30.0877V27.3426C12 26.4056 12.3831 25.507 13.0649 24.8445C13.7468 24.1819 14.6716 23.8097 15.6359 23.8097H16.9062V23.7794C16.9062 17.8261 21.8731 13 28 13C34.1269 13 39.0938 17.8261 39.0938 23.7794V23.8097H40.3641C41.3284 23.8097 42.2532 24.1819 42.9351 24.8445C43.6169 25.507 44 26.4056 44 27.3426V30.0877C44 31.0247 43.6169 31.9233 42.9351 32.5858C42.2532 33.2484 41.3284 33.6206 40.3641 33.6206H38.6027C38.4346 33.6206 38.2733 33.5556 38.1544 33.4401C38.0356 33.3246 37.9688 33.168 37.9688 33.0046V23.7794C37.9688 18.4298 33.5056 14.0931 28 14.0931C22.4944 14.0931 18.0312 18.4298 18.0312 23.7794V33.0046C18.0312 33.168 17.9645 33.3246 17.8456 33.4401C17.7267 33.5556 17.5655 33.6206 17.3974 33.6206H16.8909C16.9197 37.0784 19.8131 39.8725 23.3781 39.8725H24.4665C24.5736 39.392 24.8209 38.9471 25.1842 38.594C25.6824 38.11 26.358 37.8381 27.0625 37.8381H28.9375C30.4045 37.8381 31.5938 38.9936 31.5938 40.419C31.5938 41.8445 30.4045 43 28.9375 43H27.0625C25.7886 43 24.7241 42.1286 24.4659 40.9656H23.3781C19.1915 40.9656 15.7943 37.6817 15.7658 33.6206ZM30.4688 40.419C30.4688 39.5973 29.7832 38.9312 28.9375 38.9312H27.0625C26.6564 38.9312 26.2669 39.0879 25.9797 39.367C25.6926 39.646 25.5312 40.0244 25.5312 40.419C25.5312 41.2407 26.2168 41.9069 27.0625 41.9069H28.9375C29.7832 41.9069 30.4688 41.2407 30.4688 40.419ZM16.9062 24.9028H15.6359C14.97 24.9028 14.3313 25.1599 13.8604 25.6174C13.3896 26.075 13.125 26.6955 13.125 27.3426V30.0877C13.125 30.7347 13.3896 31.3553 13.8604 31.8129C14.3313 32.2704 14.97 32.5274 15.6359 32.5274H16.9062V24.9028ZM39.0938 24.9028V32.5274H40.3641C41.03 32.5274 41.6687 32.2704 42.1396 31.8129C42.6105 31.3553 42.875 30.7347 42.875 30.0877V27.3426C42.875 26.6955 42.6105 26.075 42.1396 25.6174C41.6687 25.1599 41.03 24.9028 40.3641 24.9028H39.0938Z" fill="#484848"/>
</svg>
