<svg width="50" height="40" viewBox="0 0 50 40" fill="none" xmlns="http://www.w3.org/2000/svg">
<path d="M9.13594 12.5785C8.54994 13.254 7.61233 13.7869 6.67472 13.7108C6.55752 12.7973 7.01656 11.8268 7.55373 11.2274C8.13974 10.5328 9.16524 10.0381 9.99542 10C10.0931 10.9515 9.71218 11.8839 9.13594 12.5785ZM9.98565 13.8915C8.62807 13.8154 7.46583 14.6432 6.82123 14.6432C6.16685 14.6432 5.18041 13.9296 4.10607 13.9486C2.70943 13.9676 1.41045 14.7383 0.697477 15.9657C-0.767535 18.4206 0.316574 22.0552 1.73275 24.0533C2.42619 25.0428 3.25636 26.1275 4.35024 26.0894C5.38551 26.0514 5.79572 25.4329 7.04586 25.4329C8.30577 25.4329 8.66714 26.0894 9.76101 26.0704C10.894 26.0514 11.6069 25.0809 12.3004 24.0913C13.0915 22.9686 13.4138 21.8744 13.4333 21.8173C13.4138 21.7983 11.2456 20.9895 11.226 18.5538C11.2065 16.5176 12.9352 15.5471 13.0133 15.49C12.0367 14.0818 10.5131 13.9296 9.98565 13.8915ZM17.8283 11.1323V25.9657H20.1919V20.8944H23.4638C26.4524 20.8944 28.5522 18.8963 28.5522 16.0038C28.5522 13.1113 26.4914 11.1323 23.5419 11.1323H17.8283ZM20.1919 13.0733H22.9168C24.9678 13.0733 26.1398 14.1389 26.1398 16.0133C26.1398 17.8877 24.9678 18.9629 22.9071 18.9629H20.1919V13.0733ZM32.8691 26.0799C34.3537 26.0799 35.7308 25.3473 36.3559 24.1865H36.4047V25.9657H38.5924V18.5823C38.5924 16.4415 36.8344 15.0618 34.129 15.0618C31.619 15.0618 29.7633 16.4605 29.6949 18.3825H31.8241C31.9999 17.4691 32.8691 16.8696 34.0607 16.8696C35.5062 16.8696 36.3168 17.5262 36.3168 18.7345V19.5528L33.3672 19.7241C30.6228 19.8858 29.1382 20.98 29.1382 22.883C29.1382 24.8049 30.6716 26.0799 32.8691 26.0799ZM33.504 24.3197C32.2441 24.3197 31.4432 23.7298 31.4432 22.8259C31.4432 21.8934 32.2148 21.3511 33.6895 21.2655L36.3168 21.1037V21.941C36.3168 23.3302 35.1057 24.3197 33.504 24.3197ZM41.5127 30C43.8177 30 44.9018 29.1437 45.8491 26.5461L50 15.2046H47.5974L44.8139 23.9677H44.765L41.9815 15.2046H39.5105L43.5149 26.0038L43.3 26.6603C42.9386 27.7736 42.3526 28.2017 41.3076 28.2017C41.122 28.2017 40.7607 28.1827 40.6142 28.1637V29.9429C40.7509 29.981 41.3369 30 41.5127 30Z" fill="#202020"/>
</svg>
