<svg width="12" height="17" viewBox="0 0 12 17" fill="none" xmlns="http://www.w3.org/2000/svg">
<path fill-rule="evenodd" clip-rule="evenodd" d="M2.2748 10.0401H5.75894C7.016 10.0401 8.04433 9.07927 8.04433 7.90492V2.10305C8.04433 0.771805 6.72124 0.00280431 6.23731 0.00280431C5.62746 0.00280431 4.61741 -0.12142 3.74913 1.28371C3.21586 2.1467 1.74834 4.53385 1.10897 5.58975L0.444388 6.68724C-0.866097 8.8514 1.01779 10.04 2.27485 10.04L2.2748 10.0401Z" fill="#C14784"/>
<path fill-rule="evenodd" clip-rule="evenodd" d="M9.72461 5.96094H6.24047C4.9834 5.96094 3.95508 6.92174 3.95508 8.09608V13.898C3.95508 15.2292 5.27817 15.9982 5.7621 15.9982C6.37195 15.9982 7.38199 16.1224 8.25028 14.7173C8.78354 13.8543 10.2511 11.4672 10.8904 10.4113L11.555 9.31376C12.8655 7.1496 10.9816 5.96099 9.72455 5.96099L9.72461 5.96094Z" fill="#C14784"/>
<path fill-rule="evenodd" clip-rule="evenodd" d="M3.95508 10.041H5.75846C7.01553 10.041 8.04385 9.08022 8.04385 7.90587V5.96094H6.24047C4.9834 5.96094 3.95508 6.92174 3.95508 8.09608V10.041Z" fill="#D92A6D"/>
</svg>
