<svg width="32" height="32" viewBox="0 0 32 32" fill="none" xmlns="http://www.w3.org/2000/svg">
<g clip-path="url(#clip0_469_613)">
<path d="M20.7577 0.719375C19.223 0.242063 17.6222 0 16 0C11.7262 0 7.70831 1.66431 4.68625 4.68625C1.66431 7.70831 0 11.7262 0 16C0 19.2062 0.945 22.2997 2.73281 24.9461C4.47719 27.5281 6.91131 29.5324 9.77188 30.7424C9.83162 30.7676 9.89363 30.7796 9.95463 30.7796C10.1377 30.7796 10.3116 30.6719 10.3874 30.4928C10.4885 30.2539 10.3767 29.9783 10.1378 29.8773C7.445 28.7384 5.15356 26.8513 3.51113 24.4202C1.82869 21.9298 0.939313 19.0181 0.939313 16C0.939313 11.9772 2.50588 8.19506 5.3505 5.3505C8.19506 2.50594 11.9772 0.939375 16 0.939375C17.5276 0.939375 19.0344 1.16712 20.4788 1.61637C20.7263 1.69331 20.9897 1.55512 21.0667 1.30737C21.1437 1.05969 21.0054 0.796438 20.7577 0.719375Z" fill="#9A9A9A"/>
<path d="M29.4411 7.31523C27.8103 4.79629 25.5165 2.79079 22.8078 1.51554C22.5731 1.4051 22.2934 1.50567 22.1828 1.74042C22.0723 1.9751 22.173 2.25492 22.4077 2.36542C24.9576 3.56586 27.1171 5.45404 28.6525 7.82567C30.2284 10.2597 31.0614 13.0861 31.0614 15.9994C31.0614 20.0222 29.4947 23.8042 26.6502 26.6489C23.8057 29.4934 20.0235 31.06 16.0007 31.06C14.6335 31.06 13.2787 30.8769 11.974 30.5158C11.7241 30.4469 11.4653 30.5932 11.396 30.8433C11.3269 31.0932 11.4734 31.3519 11.7234 31.4212C13.1098 31.8048 14.5489 31.9994 16.0007 31.9994C20.2745 31.9994 24.2924 30.3351 27.3144 27.3131C30.3364 24.2911 32.0007 20.2731 32.0007 15.9994C32.0007 12.9046 31.1157 9.90167 29.4411 7.31523Z" fill="#9A9A9A"/>
<path d="M20.8546 20.1523L16.7021 16L20.8544 11.8476C21.0483 11.6537 21.0483 11.3393 20.8544 11.1454C20.6606 10.9515 20.3461 10.9515 20.1523 11.1454L16 15.2978L11.8476 11.1455C11.6537 10.9516 11.3393 10.9516 11.1454 11.1455C10.9515 11.3393 10.9515 11.6538 11.1454 11.8476L15.2977 16L11.1454 20.1523C10.9515 20.3463 10.9515 20.6606 11.1454 20.8546C11.2424 20.9515 11.3694 21 11.4966 21C11.6237 21 11.7507 20.9515 11.8477 20.8546L16 16.7022L20.1523 20.8546C20.2493 20.9515 20.3763 21 20.5034 21C20.6306 21 20.7576 20.9515 20.8546 20.8546C21.0485 20.6606 21.0485 20.3463 20.8546 20.1523Z" fill="#9A9A9A"/>
</g>
<defs>
<clipPath id="clip0_469_613">
<rect width="32" height="32" fill="white"/>
</clipPath>
</defs>
</svg>
