<svg width="93" height="24" viewBox="0 0 93 24" fill="none" xmlns="http://www.w3.org/2000/svg">
<g clip-path="url(#clip0_450_20043)">
<path d="M8.94231 2.29412H10.9096C12.1615 2.11765 13.4135 2.29412 14.4865 2.82353C16.0962 3.52941 17.1692 4.94118 17.5269 6.52941C17.8846 7.41177 17.8846 7.41177 18.6 7.05882H19.1365V0.352941H0V1.58824H0.715385C1.43077 1.58824 2.14615 1.94118 2.50385 2.47059C3.39808 3.52941 3.39808 4.94118 3.39808 11.6471C3.39808 18.8824 3.21923 20.6471 2.50385 21.5294C2.14615 22.0588 1.60962 22.2353 1.07308 22.2353C0 22.5882 0 22.5882 0 22.9412C0 23.1176 0 23.2941 0 23.4706H12.1615C12.3404 23.1176 12.3404 22.7647 12.1615 22.4118C11.8038 22.4118 11.625 22.2353 11.2673 22.2353C10.9096 22.2353 10.5519 22.0588 10.3731 22.0588C9.47885 21.3529 8.94231 20.2941 9.12115 19.2353C8.76346 18 8.76346 15.8824 8.76346 14.1176V12.7059H9.47885C10.3731 12.7059 11.2673 12.7059 12.1615 13.0588C13.0558 13.5882 13.5923 14.4706 13.7712 15.3529V15.8824H14.8442V8.11765H13.7712V8.82353C13.5923 9.88235 13.0558 10.5882 12.1615 11.1176C11.625 11.2941 11.2673 11.2941 10.7308 11.2941H8.76346V9.35294C8.76346 7.41177 8.94231 3.17647 8.94231 2.47059V2.29412ZM92.6423 16.2353C91.7481 14.8235 90.4962 13.9412 88.8865 13.4118C87.6346 13.0588 86.5615 12.5294 85.6673 11.6471C85.3096 11.2941 85.1308 10.5882 85.1308 10.0588C85.1308 9.52941 85.3096 9 85.8462 8.64706C86.3827 8.11765 87.2769 7.94118 87.9923 8.11765C89.6019 8.64706 90.8539 9.88235 91.2115 11.4706C91.5692 12.1765 91.5692 12.1765 92.1058 12L92.4635 11.8235V7.41177L92.2846 7.23529C90.4962 6.70588 88.7077 6.35294 86.7404 6.52941C85.1308 6.52941 83.5211 7.23529 82.4481 8.29412C81.375 9.35294 80.8385 10.5882 80.8385 12.1765C80.8385 13.2353 81.1962 14.2941 82.0904 15C82.9846 15.8824 84.0577 16.4118 85.1308 16.7647C87.8135 17.8235 88.7077 18.5294 88.7077 19.7647C88.7077 20.8235 87.9923 21.8824 86.9192 22.0588C86.3827 22.2353 85.6673 22.2353 84.9519 22.0588C83.3423 21.3529 82.0904 20.1176 81.5538 18.3529L81.375 17.8235H81.0173C80.8385 17.8235 80.6596 17.8235 80.4808 18V22.9412H80.8385C82.0904 23.2941 83.3423 23.6471 84.5942 23.8235H86.3827C87.0981 23.8235 87.9923 23.8235 88.7077 23.6471C90.675 23.2941 92.2846 21.8824 93 20.1176C93.1788 19.5882 93.3577 19.0588 93.3577 18.5294C93.1788 17.6471 93 16.9412 92.6423 16.2353ZM75.8308 7.05882C73.6846 6.17647 71.1808 6.17647 69.0346 7.23529C67.0673 8.11765 65.6365 9.88235 64.9212 12C64.5635 13.0588 64.3846 14.2941 64.3846 15.5294C64.3846 16.2353 64.3846 16.7647 64.5635 17.4706C65.1 20.6471 67.7827 23.2941 71.0019 23.8235C72.075 24 73.1481 24 74.2212 23.8235C75.2942 23.6471 76.3673 23.2941 77.2615 22.7647C77.9769 22.4118 78.6923 21.7059 79.2288 21C79.2288 20.8235 79.05 20.6471 78.8712 20.4706C78.6923 20.4706 78.5135 20.6471 78.3346 20.8235C77.4404 21.3529 76.3673 21.7059 75.2942 21.7059C73.8635 21.8824 72.4327 21.1765 71.5385 20.2941C71.1808 19.9412 70.8231 19.5882 70.6442 19.0588C70.1077 18 69.75 16.7647 69.75 15.5294V14.6471H79.5865V14.2941C79.5865 13.9412 79.5865 13.5882 79.5865 13.2353C79.4077 10.7647 77.9769 8.29412 75.8308 7.05882ZM70.8231 13.2353H69.5712V12.1765C69.9288 9.52941 71.0019 7.94118 72.2539 7.94118C73.5058 7.94118 74.0423 9.52941 74.2212 12.3529V13.2353H73.1481H70.8231ZM45.0692 6.52941C44.5327 6.52941 43.8173 6.70588 43.2808 6.88235C42.0288 7.41177 41.1346 8.47059 40.5981 9.70588L40.4192 10.0588V6.52941H40.2404C40.0615 6.52941 33.4442 7.76471 33.2654 7.94118C33.0865 8.11765 33.0865 8.11765 33.0865 8.29412C33.0865 8.47059 33.0865 8.64706 33.2654 8.64706L33.8019 8.82353C34.1596 8.82353 34.5173 9 34.875 9.35294C35.4115 9.88235 35.4115 10.9412 35.4115 15.3529C35.4115 17.2941 35.4115 19.2353 35.2327 21.1765C35.0538 21.7059 34.6962 22.2353 33.9808 22.2353L33.4442 22.4118H33.2654V22.9412C33.2654 23.1176 33.2654 23.2941 33.2654 23.4706H43.2808V22.9412C43.2808 22.7647 43.2808 22.5882 43.2808 22.4118C42.7442 22.4118 42.0288 22.2353 41.4923 22.2353C40.7769 21.8824 40.4192 21.1765 40.5981 20.4706C40.2404 19.4118 40.0615 16.4118 40.2404 14.1176C40.4192 11.8235 40.2404 11.6471 40.4192 11.4706C40.9558 10.9412 41.6712 10.7647 42.5654 10.7647C43.2808 10.7647 43.9962 10.9412 44.5327 11.2941C44.7115 11.4706 45.0692 11.4706 45.2481 11.6471C45.2481 11.6471 47.0365 7.41177 47.0365 7.23529C46.5 6.70588 45.7846 6.35294 45.0692 6.52941ZM33.0865 13.9412C32.9077 11.4706 31.6558 9 29.3308 7.58824C26.6481 6.17647 23.6077 6.17647 20.925 7.41177C19.1365 8.29412 17.7058 10.0588 16.9904 12C16.275 14.2941 16.275 16.5882 16.9904 18.7059C17.3481 19.9412 18.0635 21 18.9577 21.8824C20.0308 22.9412 21.4615 23.6471 23.0712 23.8235C24.1442 23.8235 25.0385 23.8235 26.1115 23.8235C26.4692 23.8235 26.8269 23.6471 27.1846 23.6471C30.225 22.7647 32.3712 20.4706 32.9077 17.2941C33.0865 16.2353 33.0865 15.1765 33.0865 13.9412ZM25.575 22.7647C23.7865 23.2941 22.3558 21.5294 21.9981 18C21.8192 16.0588 21.8192 14.2941 21.9981 12.3529C22.3558 9.52941 23.25 7.94118 24.6808 7.94118C25.2173 7.94118 25.7538 8.11765 26.1115 8.64706C27.3635 9.88235 27.9 12.1765 27.9 15.7059C28.0788 17.6471 27.7212 19.7647 27.0058 21.5294C26.8269 22.0588 26.2904 22.4118 25.575 22.7647C25.575 22.5882 25.575 22.7647 25.575 22.7647ZM57.7673 6.88235C57.2308 6.88235 56.6942 6.88235 56.3365 6.88235C55.4423 6.88235 54.3692 7.05882 53.475 7.41177L52.9385 7.58824V3.88235C53.1173 2.64706 53.1173 1.23529 52.9385 0C52.7596 0 45.9635 1.23529 45.7846 1.41176C45.7846 1.58824 45.7846 1.76471 45.7846 1.76471C45.7846 2.11765 45.7846 2.11765 46.6788 2.29412C46.8577 2.29412 47.0365 2.47059 47.3942 2.47059C47.7519 2.82353 47.9308 3.17647 48.1096 3.70588C48.2885 5.11765 48.4673 6.35294 48.2885 7.76471V23.2941L48.825 23.4706C49.5404 23.6471 51.5077 24 52.2231 24C53.475 24.1765 54.9058 24.1765 56.1577 24C59.1981 23.6471 61.7019 21.7059 62.775 19.0588C63.1327 18.1765 63.3115 17.2941 63.4904 16.4118C63.6692 15.1765 63.4904 13.9412 63.3115 12.7059C62.775 9.70588 60.6288 7.41177 57.7673 6.88235ZM53.1173 22.4118C53.1173 22.2353 52.9385 14.4706 52.9385 11.2941V9L53.475 8.82353C53.8327 8.82353 54.1904 8.82353 54.5481 8.82353C54.9058 8.82353 55.2635 8.82353 55.6212 9C57.0519 9.88235 57.7673 11.4706 57.9462 13.0588C58.125 14.2941 58.125 15.7059 57.9462 16.9412C57.7673 18.8824 57.0519 20.6471 55.8 22.0588C55.4423 22.4118 55.0846 22.5882 54.5481 22.7647C54.1904 22.7647 53.8327 22.7647 53.475 22.7647C53.1173 22.7647 53.1173 22.5882 53.1173 22.4118Z" fill="#484848"/>
</g>
<defs>
<clipPath id="clip0_450_20043">
<rect width="93" height="24" fill="white"/>
</clipPath>
</defs>
</svg>
