<svg width="28" height="28" viewBox="0 0 28 28" fill="none" xmlns="http://www.w3.org/2000/svg">
<g clip-path="url(#clip0_450_20321)">
<path d="M3.86464 6.47684C4.41859 5.21356 5.21265 4.0797 6.22225 3.10626C7.23185 2.131 8.40782 1.36719 9.71803 0.833076C11.0755 0.28073 12.5162 0 14.0003 0C15.4845 0 16.9251 0.28073 18.2826 0.833076C19.5909 1.36719 20.7669 2.13282 21.7784 3.10626C22.7899 4.0797 23.582 5.21356 24.136 6.47684C24.7088 7.7857 25 9.17477 25 10.6058C25 12.6711 24.4309 14.8696 23.3079 17.1409C22.4193 18.942 21.179 20.7941 19.6268 22.6462C16.9894 25.7889 14.3954 27.8178 14.2858 27.9035C14.2026 27.9673 14.1005 28.0001 14.0003 28.0001C13.9001 28.0001 13.798 27.9673 13.7148 27.9035C13.6052 27.8196 11.0112 25.7907 8.37379 22.6462C6.82158 20.7941 5.58322 18.942 4.69273 17.1409C3.56969 14.8696 3.00061 12.6711 3.00061 10.6058C3.00061 9.17295 3.29177 7.78388 3.86464 6.47684ZM9.06954 22.0811C11.1492 24.5639 13.2535 26.3759 14.0003 26.992C14.7452 26.3777 16.8419 24.5748 18.9197 22.0956C21.2792 19.2829 24.0925 15.0045 24.0925 10.6058C24.0925 5.2409 19.5644 0.875003 14.0003 0.875003C8.43618 0.875003 3.90812 5.2409 3.91001 10.6039C3.91001 14.999 6.7157 19.2701 9.06954 22.0811Z" fill="#951BC4"/>
<path d="M14.0009 5.55273C15.4132 5.55273 16.7404 6.08321 17.7387 7.04571C18.7369 8.00821 19.2871 9.28791 19.2871 10.6496C19.2871 12.0114 18.7369 13.2911 17.7387 14.2536C16.7404 15.2161 15.4132 15.7465 14.0009 15.7465C12.5886 15.7465 11.2614 15.2161 10.2631 14.2536C9.26489 13.2911 8.71471 12.0114 8.71471 10.6496C8.71471 9.28791 9.26489 8.00821 10.2631 7.04571C11.2614 6.08321 12.5886 5.55273 14.0009 5.55273ZM14.0009 14.8715C16.4152 14.8715 18.3796 12.9775 18.3796 10.6496C18.3796 8.32176 16.4152 6.42774 14.0009 6.42774C11.5866 6.42774 9.62222 8.32176 9.62222 10.6496C9.62222 12.9775 11.5866 14.8715 14.0009 14.8715Z" fill="#951BC4"/>
</g>
<defs>
<clipPath id="clip0_450_20321">
<rect width="28" height="28" fill="white" transform="matrix(-1 0 0 1 28 0)"/>
</clipPath>
</defs>
</svg>
