<svg width="66" height="40" viewBox="0 0 66 40" fill="none" xmlns="http://www.w3.org/2000/svg">
<path fill-rule="evenodd" clip-rule="evenodd" d="M66 20.4731C65.9805 17.4352 63.2423 14.988 59.8916 15.006C56.5337 15.0239 53.8298 17.5007 53.8493 20.5327C53.8689 23.5707 56.6071 26.0178 59.9577 25.9999C61.7448 25.9879 63.4281 25.2717 64.5759 24.0362C64.1725 24.7107 63.5919 25.2776 62.9195 25.6299V25.9163H66V20.4731ZM59.9381 23.1649C58.3086 23.1708 56.9897 21.9771 56.9823 20.5089C56.9762 19.0347 58.2952 17.835 59.9185 17.835C61.548 17.8291 62.867 19.0228 62.8731 20.4909V20.497C62.8731 21.9712 61.5602 23.1588 59.9381 23.1649ZM9.00422 15.0896H12.125V16.2295C12.125 17.8887 11.2999 19.4585 9.87458 20.5029C11.2999 21.5474 12.125 23.1172 12.125 24.7764V25.9163H9.00422V24.4898C9.00422 23.0216 7.68525 21.8339 6.0619 21.8339C4.43977 21.8339 3.12691 23.0216 3.12691 24.4898V25.9163H0V24.7764C0 23.1172 0.823895 21.5474 2.24922 20.5029C0.823895 19.4585 0 17.8887 0 16.2295V15.0896H3.12691V16.516C3.12691 17.9842 4.43977 19.1719 6.0619 19.1719C7.68525 19.1719 9.00422 17.9842 9.00422 16.516V15.0896ZM38.4519 19.0765C39.4616 21.5414 39.5142 23.7796 39.5142 25.9163H36.3946C36.3946 24.1855 36.3286 22.6038 35.9252 21.1773C35.3849 19.2674 34.3887 17.8768 33.4584 17.8768C32.5282 17.8768 31.5258 19.2674 30.9916 21.1773C30.5894 22.6038 30.5234 24.1437 30.5234 25.9163H27.3965C27.3965 23.9706 27.4491 21.5414 28.4576 19.0765C29.4012 16.7845 31.1566 15 33.4584 15C35.7541 15 37.5156 16.7845 38.4519 19.0765ZM51.3092 20.1686C52.0353 19.166 52.1013 17.7932 51.4351 16.7667C50.7689 15.7341 49.5416 15.1014 48.2226 15.0896H41.4933V25.9163L49.0208 25.9104C51.3813 25.9104 52.6941 24.1496 52.6941 22.6695C52.6941 21.2489 51.8042 20.5327 51.3092 20.1686ZM44.5737 17.7873L47.9317 17.7813C48.2947 17.7813 48.901 18.1215 48.901 18.6646C48.901 19.1003 48.5123 19.5718 47.8327 19.5718H44.5737V17.7873ZM48.5722 23.2186H44.5737V21.434H48.4989C48.9878 21.434 49.5611 21.8518 49.5611 22.3233C49.5611 22.6695 49.2641 23.2186 48.5722 23.2186ZM19.4008 15C16.0502 14.9941 13.3181 17.447 13.312 20.485C13.3059 23.5229 16.0172 25.994 19.3739 25.9999C21.1757 25.9999 22.8834 25.2837 24.0447 24.0362C23.6425 24.7107 23.0619 25.2776 22.3896 25.6299V25.9163H25.4627V20.4731C25.4504 17.447 22.7453 15.006 19.4008 15ZM19.4008 23.1649C17.7774 23.1708 16.4523 21.9771 16.4523 20.5029C16.445 19.0347 17.7579 17.835 19.3873 17.835C21.0168 17.8291 22.3358 19.0167 22.3431 20.4909V20.497C22.3431 21.9712 21.0302 23.1588 19.4008 23.1649Z" fill="#353537"/>
</svg>
