<svg width="28" height="28" viewBox="0 0 28 28" fill="none" xmlns="http://www.w3.org/2000/svg">
<g clip-path="url(#clip0_450_20308)">
<path d="M20.3 1C17.7917 1.00392 15.4419 2.24323 14 4.32228C12.5581 2.24323 10.2083 1.00392 7.7 1C3.59798 1 0 4.8661 0 9.2728C0 13.5675 2.39395 17.9909 6.92344 22.0649C9.02207 23.9489 11.3242 25.5867 13.7858 26.9474C13.9202 27.0175 14.0798 27.0175 14.2142 26.9474C16.6749 25.5867 18.9763 23.9487 21.0743 22.0649C25.6061 17.9909 28 13.5675 28 9.2728C28 4.8661 24.402 1 20.3 1V1ZM14 25.9899C12.286 25.0317 0.933333 18.3378 0.933333 9.2728C0.933333 5.36953 4.09495 1.94546 7.7 1.94546C10.1423 1.94985 12.3936 3.28448 13.5935 5.43947C13.6833 5.57843 13.8362 5.66199 14 5.66199C14.1638 5.66199 14.3167 5.57843 14.4065 5.43947C15.6064 3.28448 17.8577 1.94985 20.3 1.94546C23.905 1.94546 27.0667 5.36953 27.0667 9.2728C27.0667 18.3378 15.714 25.0317 14 25.9899Z" fill="#484848"/>
</g>
<defs>
<clipPath id="clip0_450_20308">
<rect width="28" height="28" fill="white"/>
</clipPath>
</defs>
</svg>
