<svg width="20" height="20" viewBox="0 0 20 20" fill="none" xmlns="http://www.w3.org/2000/svg">
<path d="M2.27053 17H17.7295C18.9828 16.9986 19.9986 15.985 20 14.7341V4.26586C19.9986 3.01512 18.9828 2.00136 17.7295 2H2.27053C1.01721 2.00136 0.00135869 3.01512 0 4.26586V14.7341C0.00135869 15.985 1.01721 16.9986 2.27053 17ZM2.27053 16.3251C1.92165 16.3255 1.58228 16.211 1.30525 15.9992L5.92844 11.2802C6.01419 11.1942 6.04695 11.0688 6.01449 10.9521C5.98204 10.8352 5.88934 10.7448 5.77159 10.7151C5.65368 10.6853 5.52899 10.7208 5.44475 10.8085L0.864734 15.4835C0.740942 15.2532 0.676178 14.9957 0.676328 14.7341V5.00979L8.53548 11.6508C9.38164 12.3696 10.6256 12.3693 11.4712 11.6495L19.3237 5.00331V14.7341C19.324 14.9967 19.2588 15.255 19.1341 15.4859L14.5266 10.8076C14.3954 10.6759 14.1824 10.6746 14.0495 10.8046C13.9168 10.9351 13.9144 11.1476 14.0442 11.2807L18.6928 16.0007C18.4161 16.2115 18.0776 16.3255 17.7295 16.3251H2.27053ZM2.27053 2.67494H17.7295C18.5543 2.67614 19.2425 3.30407 19.317 4.12409L11.0338 11.1348C10.4401 11.6401 9.56658 11.6404 8.97252 11.1356L0.682669 4.13057C0.753623 3.30799 1.44309 2.67614 2.27053 2.67494Z" fill="#484848"/>
</svg>
