<svg width="24" height="24" viewBox="0 0 24 24" fill="none" xmlns="http://www.w3.org/2000/svg">
<g clip-path="url(#clip0_450_13883)">
<path d="M23.9984 22.3618L22.7984 9.56624C22.7857 9.43129 22.7057 9.31176 22.5855 9.24904L17.9855 6.84515C17.977 6.8407 17.9671 6.84163 17.9583 6.83784C17.9321 6.82649 17.9043 6.82115 17.8755 6.81557C17.8477 6.81013 17.8215 6.80381 17.7933 6.80427C17.787 6.80437 17.7816 6.80142 17.7752 6.80179C17.7525 6.8032 17.7334 6.8137 17.712 6.81871C17.6903 6.82373 17.6676 6.82157 17.6467 6.83029L16.2227 7.42228C16.0186 7.50703 15.9221 7.74121 16.0068 7.94512C16.0918 8.1494 16.3256 8.24592 16.5297 8.16093L17.4359 7.78424L18.1826 19.7216L12.4002 21.8276V13.5227C12.4002 13.3018 12.2211 13.1227 12.0002 13.1227C11.7793 13.1227 11.6002 13.3018 11.6002 13.5227V21.8276L5.81781 19.7216L6.56453 7.78424L7.47072 8.16093C7.675 8.24587 7.909 8.1494 7.99356 7.94512C8.07831 7.74121 7.98184 7.50703 7.77775 7.42228L6.35373 6.83029C6.33292 6.82167 6.31033 6.82378 6.28867 6.81881C6.26716 6.81379 6.24798 6.80324 6.2252 6.80179C6.21883 6.80146 6.21339 6.80442 6.20706 6.80437C6.178 6.80385 6.15091 6.81056 6.12227 6.81637C6.09545 6.82185 6.06944 6.82663 6.04488 6.83713C6.03517 6.84126 6.0243 6.84028 6.01488 6.84515L1.41489 9.24904C1.2948 9.31176 1.21469 9.43129 1.20199 9.56624L0.00198532 22.3618C-0.0115147 22.5053 0.0533603 22.645 0.17172 22.7274C0.289704 22.8096 0.44397 22.8221 0.573485 22.7596L5.42172 20.4288L11.8633 22.7749C11.9516 22.8073 12.0489 22.8073 12.1372 22.7749L18.5788 20.4288L23.427 22.7596C23.4819 22.786 23.5413 22.7991 23.6003 22.7991C23.6805 22.7991 23.7606 22.7749 23.8288 22.7274C23.947 22.6449 24.0119 22.5053 23.9984 22.3618ZM5.01527 19.7363L0.864392 21.732L1.97805 9.85743L5.75669 7.88268L5.01527 19.7363ZM18.985 19.7363L18.2436 7.88268L22.0222 9.85743L23.1359 21.732L18.985 19.7363Z" fill="#484848"/>
<path d="M8.47574 6.87382L11.6566 12.2047C11.7289 12.3258 11.8593 12.3998 12.0001 12.3998C12.1409 12.3998 12.2714 12.3258 12.3437 12.2047L15.5331 6.85859C15.6867 6.57345 15.7894 6.33185 15.8562 6.09785C15.9517 5.76368 16.0002 5.41662 16.0002 5.0666C16.0002 4.54296 15.8937 4.03498 15.6836 3.55624C15.4812 3.09551 15.1916 2.68184 14.8232 2.32713C14.4561 1.97341 14.0283 1.69568 13.5523 1.50176C12.5679 1.10098 11.4324 1.10098 10.448 1.50176C9.97203 1.69568 9.5443 1.97346 9.17732 2.32713C8.80874 2.68184 8.5191 3.09551 8.31678 3.55643C8.10664 4.03493 8.00019 4.54296 8.00019 5.0666C8.00019 5.41662 8.04861 5.76368 8.14414 6.09804C8.21089 6.33181 8.31364 6.5734 8.47574 6.87382ZM9.04921 3.87809C9.20938 3.51326 9.43925 3.18532 9.73222 2.90327C10.026 2.62029 10.3684 2.39801 10.7496 2.24271C11.1457 2.08137 11.5664 1.99976 12.0002 1.99976C12.434 1.99976 12.8547 2.08141 13.2508 2.24271C13.632 2.39796 13.9744 2.62024 14.2683 2.90327C14.5611 3.18532 14.791 3.51321 14.9511 3.8779C15.1164 4.25445 15.2002 4.65429 15.2002 5.06656C15.2002 5.34232 15.1621 5.61537 15.0871 5.8781C15.0366 6.05506 14.9545 6.24607 14.8375 6.46404L12.0002 11.2191L9.17146 6.47928C9.04588 6.24607 8.96385 6.05506 8.91327 5.87829C8.83827 5.61542 8.80021 5.34237 8.80021 5.06656C8.80016 4.65429 8.88397 4.25445 9.04921 3.87809Z" fill="#484848"/>
<path d="M12.0002 7.2012C13.1029 7.2012 14.0002 6.30392 14.0002 5.20119C14.0002 4.09845 13.1029 3.20117 12.0002 3.20117C10.8974 3.20117 10.0002 4.09845 10.0002 5.20119C10.0002 6.30392 10.8974 7.2012 12.0002 7.2012ZM12.0002 4.00119C12.6619 4.00119 13.2002 4.53945 13.2002 5.20119C13.2002 5.86292 12.6619 6.40119 12.0002 6.40119C11.3384 6.40119 10.8002 5.86292 10.8002 5.20119C10.8002 4.53945 11.3384 4.00119 12.0002 4.00119Z" fill="#484848"/>
</g>
<defs>
<clipPath id="clip0_450_13883">
<rect width="24" height="24" fill="white"/>
</clipPath>
</defs>
</svg>
