<svg width="40" height="40" viewBox="0 0 40 40" fill="none" xmlns="http://www.w3.org/2000/svg">
<g clip-path="url(#clip0_450_20001)">
<path d="M8.64422 32.9966C8.64422 32.4386 9.02023 31.9808 9.63946 31.9808C10.2302 31.9808 10.6285 32.42 10.6285 32.9966C10.6285 33.5729 10.2302 34.0132 9.63946 34.0132C9.02023 34.0132 8.64422 33.5553 8.64422 32.9966ZM11.3011 32.9966V31.4103H10.5913V31.7955C10.4684 31.6435 10.3096 31.5218 10.1284 31.4408C9.94722 31.3599 9.74865 31.3219 9.54886 31.3299C8.62931 31.3299 7.90956 32.0289 7.90956 32.9966C7.90956 33.9642 8.62931 34.6632 9.54886 34.6632C9.74741 34.6712 9.94474 34.6336 10.1259 34.553C10.3059 34.4726 10.4647 34.3518 10.5875 34.2005V34.5828H11.2974L11.3011 32.9966ZM35.4166 32.9966C35.4166 32.4386 35.7951 31.9808 36.4106 31.9808C37.0038 31.9808 37.4009 32.42 37.4009 32.9966C37.4009 33.5729 37.0038 34.0132 36.4106 34.0132C35.7951 34.0132 35.4166 33.5553 35.4166 32.9966ZM38.0735 32.9966V30.1348H37.3636V31.7955C37.242 31.6432 37.0832 31.5216 36.9032 31.4406C36.7221 31.3595 36.5235 31.3215 36.325 31.3299C35.4042 31.3299 34.6819 32.0279 34.6819 32.9966C34.6819 33.9651 35.4042 34.6632 36.325 34.6632C36.5223 34.6715 36.7208 34.6338 36.9008 34.5533C37.0807 34.4727 37.2383 34.3518 37.3612 34.2005V34.5828H38.0697L38.0735 32.9966ZM20.159 31.9485C20.6194 31.9485 20.9148 32.227 20.9905 32.7181H19.2891C19.3624 32.2613 19.6502 31.9485 20.159 31.9485ZM20.1764 31.3299C19.2159 31.3299 18.5421 32.0054 18.5421 32.9966C18.5421 34.0074 19.2432 34.6632 20.2248 34.6632C20.715 34.6799 21.194 34.5218 21.5712 34.2191L21.2213 33.7083C20.9495 33.9183 20.6132 34.0353 20.2657 34.0406C19.8054 34.0406 19.3859 33.8328 19.2829 33.2632H21.7214C21.7276 33.1769 21.7338 33.0887 21.7338 32.9966C21.7276 32.0064 21.096 31.3299 20.1764 31.3299ZM28.7936 32.9966C28.7936 32.4386 29.1733 31.9808 29.7901 31.9808C30.382 31.9808 30.7779 32.42 30.7779 32.9966C30.7779 33.5729 30.382 34.0132 29.7901 34.0132C29.1733 34.0132 28.7936 33.5553 28.7936 32.9966ZM31.4517 32.9966V31.4103H30.7431V31.7955C30.6191 31.6425 30.4602 31.5204 30.2778 31.4394C30.0966 31.3583 29.8968 31.3208 29.6958 31.3299C28.7762 31.3299 28.0565 32.0279 28.0565 32.9966C28.0565 33.9651 28.7762 34.6632 29.6958 34.6632C29.8956 34.6715 30.0929 34.6338 30.2728 34.5533C30.454 34.4729 30.6116 34.3519 30.7345 34.2005V34.5828H31.4443L31.4517 32.9966ZM24.7617 32.9966C24.7617 33.9602 25.4542 34.6632 26.5127 34.6632C26.9421 34.684 27.364 34.549 27.6953 34.2848L27.3516 33.7279C27.1034 33.9088 26.8031 34.0087 26.4929 34.0132C25.922 34.0074 25.5026 33.6093 25.5026 32.9966C25.5026 32.3838 25.922 31.9877 26.4929 31.9808C26.8031 31.9851 27.1047 32.0858 27.3516 32.2681L27.6953 31.7092C27.3628 31.445 26.9409 31.3097 26.5115 31.3299C25.4529 31.3299 24.7593 32.0328 24.7593 32.9966H24.7617ZM33.9634 31.3299C33.7897 31.3251 33.6172 31.3657 33.4646 31.4474C33.3119 31.5291 33.1854 31.6491 33.0972 31.7946V31.4093H32.3874V34.5818H33.0972V32.8005C33.0972 32.2769 33.3318 31.9838 33.7971 31.9838C33.9498 31.9811 34.1024 32.0081 34.2439 32.0633L34.4648 31.4132C34.3022 31.3565 34.1297 31.3273 33.9572 31.3269L33.9634 31.3299ZM14.8254 31.6573C14.4829 31.4407 14.0076 31.3269 13.4864 31.3269C12.655 31.3269 12.1201 31.7122 12.1201 32.3406C12.1201 32.8612 12.5185 33.1788 13.2531 33.2799L13.5882 33.3239C13.9803 33.3789 14.1677 33.4779 14.1677 33.6583C14.1677 33.9024 13.9046 34.0426 13.4182 34.0426C13.026 34.0536 12.6413 33.9368 12.3261 33.7112L11.9898 34.2475C12.4043 34.5288 12.9019 34.6732 13.4082 34.6592C14.3551 34.6592 14.9061 34.2279 14.9061 33.6249C14.9061 33.0662 14.4717 32.775 13.7594 32.673L13.4231 32.6279C13.1141 32.5897 12.8672 32.5298 12.8672 32.3152C12.8672 32.0838 13.0992 31.9446 13.4926 31.9446C13.8525 31.9502 14.2037 32.0436 14.5164 32.2162L14.8254 31.6573ZM24.0395 31.3299C23.8658 31.3252 23.6933 31.3659 23.5406 31.4476C23.388 31.5295 23.2614 31.6492 23.1721 31.7946V31.4093H22.4635V34.5818H23.1721V32.8005C23.1721 32.2769 23.4078 31.9838 23.8732 31.9838C24.0258 31.9811 24.1785 32.0081 24.3199 32.0633L24.5396 31.4132C24.3783 31.3562 24.2058 31.327 24.0333 31.3269L24.0395 31.3299ZM17.9439 31.4064H16.7811V30.4475H16.0589V31.4103H15.3925V32.0417H16.0589V33.4868C16.0589 34.2249 16.3543 34.6632 17.2006 34.6632C17.5158 34.664 17.8248 34.5787 18.0916 34.4171L17.8893 33.8289C17.697 33.9403 17.4798 34.0027 17.2564 34.0102C16.8991 34.0102 16.7824 33.7975 16.7824 33.4779V32.0417H17.9452L17.9439 31.4064ZM7.27793 34.5828V32.5936C7.27793 31.8437 6.78403 31.3377 5.98609 31.3309C5.56665 31.3231 5.13354 31.4505 4.83199 31.8945C4.72031 31.7156 4.56146 31.5688 4.3716 31.4695C4.18173 31.3702 3.96829 31.322 3.75237 31.3299C3.56374 31.321 3.37634 31.3599 3.20757 31.4426C3.0388 31.5253 2.89486 31.649 2.79187 31.8014V31.4093H2.08203V34.5818H2.80427V32.824C2.80427 32.275 3.12073 31.9808 3.60594 31.9808C4.09239 31.9808 4.31575 32.2808 4.31575 32.8171V34.5818H5.03676V32.824C5.03676 32.275 5.36685 31.9808 5.84089 31.9808C6.3137 31.9808 6.56065 32.2808 6.56065 32.8171V34.5818L7.27793 34.5828Z" fill="black"/>
<path d="M25.408 7.22461H14.5918V26.0235H25.408V7.22461Z" fill="#EB611D"/>
<path d="M15.2786 16.6203C15.2762 14.8102 15.7006 13.0235 16.5184 11.3952C17.3362 9.76698 18.5262 8.34007 19.998 7.22237C18.175 5.83669 15.9847 4.97511 13.679 4.73607C11.3721 4.49702 9.04408 4.89017 6.95803 5.87056C4.87198 6.85096 3.11355 8.37907 1.88253 10.2802C0.65274 12.1814 0 14.3789 0 16.6217C0 18.8645 0.65274 21.0622 1.88253 22.9633C3.11355 24.8645 4.87198 26.3926 6.95803 27.3729C9.04408 28.3534 11.3721 28.7465 13.679 28.5075C15.9847 28.2684 18.175 27.4069 19.998 26.0212C18.5262 24.9029 17.3362 23.4754 16.5184 21.8467C15.7006 20.2179 15.2762 18.4308 15.2786 16.6203Z" fill="#E41322"/>
<path d="M39.9998 16.6205C39.9973 18.8628 39.3433 21.0594 38.1123 22.9596C36.8812 24.8599 35.1228 26.3872 33.038 27.3674C30.952 28.3476 28.6239 28.7411 26.3182 28.5032C24.0125 28.2652 21.8223 27.4052 19.998 26.0214C21.4686 24.9021 22.6587 23.4747 23.4752 21.8464C24.293 20.2183 24.7174 18.4319 24.7174 16.622C24.7174 14.812 24.293 13.0256 23.4752 11.3975C22.6587 9.76939 21.4686 8.34185 19.998 7.22256C21.8223 5.83617 24.0113 4.97392 26.3182 4.73437C28.6252 4.49484 30.9544 4.88768 33.0405 5.868C35.1265 6.84831 36.8862 8.37655 38.116 10.278C39.347 12.1795 39.9998 14.3774 39.9998 16.6205Z" fill="#F59E21"/>
</g>
<defs>
<clipPath id="clip0_450_20001">
<rect width="40" height="40" fill="white"/>
</clipPath>
</defs>
</svg>
