<svg width="20" height="20" viewBox="0 0 20 20" fill="none" xmlns="http://www.w3.org/2000/svg">
<g clip-path="url(#clip0_450_19264)">
<path d="M7.9999 9.99956C7.9999 11.2269 8.99482 12.2218 10.2221 12.2218C11.4494 12.2218 12.4443 11.2269 12.4443 9.99956C12.4443 8.77226 11.4494 7.77734 10.2221 7.77734C8.99482 7.77734 7.9999 8.77226 7.9999 9.99956Z" fill="#484848"/>
<path d="M7.9999 2.22222C7.9999 3.44952 8.99482 4.44444 10.2221 4.44444C11.4494 4.44444 12.4443 3.44952 12.4443 2.22222C12.4443 0.994921 11.4494 0 10.2221 0C8.99482 0 7.9999 0.994921 7.9999 2.22222Z" fill="#484848"/>
<path d="M7.9999 17.7779C7.9999 19.0052 8.99482 20.0001 10.2221 20.0001C11.4494 20.0001 12.4443 19.0052 12.4443 17.7779C12.4443 16.5506 11.4494 15.5557 10.2221 15.5557C8.99482 15.5557 7.9999 16.5506 7.9999 17.7779Z" fill="#484848"/>
</g>
<defs>
<clipPath id="clip0_450_19264">
<rect width="20" height="20" fill="white"/>
</clipPath>
</defs>
</svg>
