<svg width="20" height="20" viewBox="0 0 20 20" fill="none" xmlns="http://www.w3.org/2000/svg">
<g clip-path="url(#clip0_470_2352)">
<path d="M9.99956 12.0001C11.2269 12.0001 12.2218 11.0052 12.2218 9.77788C12.2218 8.55058 11.2269 7.55566 9.99956 7.55566C8.77226 7.55566 7.77734 8.55058 7.77734 9.77788C7.77734 11.0052 8.77226 12.0001 9.99956 12.0001Z" fill="#951BC4"/>
<path d="M2.22222 12.0001C3.44952 12.0001 4.44444 11.0052 4.44444 9.77788C4.44444 8.55058 3.44952 7.55566 2.22222 7.55566C0.994921 7.55566 4.34894e-08 8.55058 9.71362e-08 9.77788C1.50783e-07 11.0052 0.994921 12.0001 2.22222 12.0001Z" fill="#951BC4"/>
<path d="M17.7769 12.0001C19.0042 12.0001 19.9991 11.0052 19.9991 9.77788C19.9991 8.55058 19.0042 7.55566 17.7769 7.55566C16.5496 7.55566 15.5547 8.55058 15.5547 9.77788C15.5547 11.0052 16.5496 12.0001 17.7769 12.0001Z" fill="#951BC4"/>
</g>
<defs>
<clipPath id="clip0_470_2352">
<rect width="20" height="20" fill="white" transform="translate(0 20) rotate(-90)"/>
</clipPath>
</defs>
</svg>
