<svg width="66" height="40" viewBox="0 0 66 40" fill="none" xmlns="http://www.w3.org/2000/svg">
<path d="M36.7473 13.6883L32.5812 21.4436H32.1576V11.998H26.2324V27.9919H31.2619C31.9081 27.992 32.5408 27.8331 33.0852 27.5339C33.6295 27.2347 34.0626 26.8077 34.3332 26.3036L38.4994 18.5483H38.9229V27.9919H44.8458V11.998H39.821C39.1743 11.9982 38.5412 12.1574 37.9964 12.457C37.4517 12.7565 37.0183 13.1838 36.7473 13.6883Z" fill="#20AA4D"/>
<path d="M14.526 14.0999L12.0587 21.4575H11.6352L9.1678 14.0999C8.96412 13.4941 8.53693 12.9616 7.95037 12.5825C7.3639 12.2034 6.6499 11.9983 5.91588 11.998H0V27.9939H5.92286V18.5403H6.34642L9.72104 27.9939H13.9612L17.3589 18.5403H17.7802V27.9939H23.7053V11.998H17.7779C17.0439 11.9983 16.3299 12.2034 15.7434 12.5825C15.1569 12.9616 14.7297 13.4941 14.526 14.0999Z" fill="#20AA4D"/>
<path d="M47.3867 19.2715V27.9972H53.298V22.9065H59.656C60.9677 22.9059 62.2468 22.5561 63.3174 21.9051C64.3881 21.2541 65.1976 20.334 65.6345 19.2715H47.3867Z" fill="#20AA4D"/>
<path d="M59.6555 11.998H46.5391C46.934 13.8354 48.0652 15.496 49.7365 16.6915C51.4079 17.8869 53.5137 18.5418 55.6884 18.5423H65.8723C66.0599 17.7502 66.0402 16.9322 65.8149 16.1474C65.5894 15.3626 65.1639 14.6306 64.569 14.0044C63.9741 13.3782 63.2247 12.8733 62.375 12.5263C61.5252 12.1794 60.5963 11.9989 59.6555 11.998Z" fill="url(#paint0_linear_450_19982)"/>
<defs>
<linearGradient id="paint0_linear_450_19982" x1="46.5391" y1="15.2692" x2="66.0019" y2="15.2692" gradientUnits="userSpaceOnUse">
<stop offset="0.01" stop-color="#00A7E3"/>
<stop offset="0.34" stop-color="#009EDC"/>
<stop offset="0.87" stop-color="#0085C9"/>
<stop offset="1" stop-color="#007EC4"/>
</linearGradient>
</defs>
</svg>
