<svg width="48" height="48" viewBox="0 0 48 48" fill="none" xmlns="http://www.w3.org/2000/svg">
<path d="M48 0H24C10.7452 0 0 10.7452 0 24C0 37.2548 10.7452 48 24 48H48V0Z" fill="white"/>
<g clip-path="url(#clip0_450_20720)">
<path d="M30.789 24.5488L22.2248 33.7738C21.9442 34.0759 21.4899 34.0754 21.2097 33.7723C20.9298 33.4692 20.9306 32.9782 21.2112 32.6759L29.2657 24L21.2109 15.3241C20.9303 15.0217 20.9296 14.5311 21.2095 14.2279C21.3499 14.076 21.5338 14 21.7178 14C21.9013 14 22.0846 14.0755 22.2247 14.2264L30.789 23.4511C30.9242 23.5964 31 23.794 31 24C31 24.2059 30.9239 24.4033 30.789 24.5488Z" fill="#353535"/>
</g>
<defs>
<clipPath id="clip0_450_20720">
<rect width="20" height="20" fill="white" transform="matrix(1 8.74228e-08 8.74228e-08 -1 16 34)"/>
</clipPath>
</defs>
</svg>
