<svg width="32" height="32" viewBox="0 0 32 32" fill="none" xmlns="http://www.w3.org/2000/svg">
<path d="M15.9999 0C24.837 0 32 7.164 32 16.0001C32 24.8371 24.837 32 15.9999 32C7.1629 32 0 24.837 0 16.0001C0 7.164 7.16301 0 15.9999 0Z" fill="#C8232C"/>
<path d="M16.4848 7.00586C10.8468 7.00586 8.00586 10.9199 8.00586 14.1828C8.00586 16.1588 8.77785 17.9168 10.4359 18.5718C10.7068 18.6788 10.9519 18.5757 11.0299 18.2848L11.2719 17.3617C11.3519 17.0747 11.3209 16.9728 11.1018 16.7218C10.6228 16.1767 10.3189 15.4698 10.3189 14.4687C10.3189 11.5658 12.5619 8.96671 16.1599 8.96671C19.3469 8.96671 21.0969 10.8518 21.0969 13.3688C21.0969 16.6808 19.5829 19.4768 17.3349 19.4768C16.0949 19.4768 15.1649 18.4838 15.4629 17.2628C15.8189 15.8087 16.511 14.2377 16.511 13.1867C16.511 12.2478 15.99 11.4617 14.91 11.4617C13.6409 11.4617 12.622 12.7327 12.622 14.4357C12.622 15.5207 13.001 16.2537 13.001 16.2537L11.474 22.5147C11.021 24.3717 11.407 26.6497 11.439 26.8797C11.459 27.0157 11.639 27.0477 11.7209 26.9457C11.8379 26.7978 13.349 24.9907 13.8629 23.1847C14.0089 22.6737 14.698 20.0267 14.698 20.0267C15.11 20.7897 16.315 21.4597 17.596 21.4597C21.409 21.4597 23.997 18.0928 23.997 13.5867C23.9958 10.1798 21.0158 7.00586 16.4848 7.00586Z" fill="white"/>
</svg>
