<svg width="20" height="20" viewBox="0 0 20 20" fill="none" xmlns="http://www.w3.org/2000/svg">
<g clip-path="url(#clip0_450_13782)">
<path d="M13.298 14.7707C13.1146 14.7556 12.9536 14.8921 12.9384 15.0755C12.9236 15.2559 13.0554 15.4152 13.2353 15.4343C17.4349 15.8333 18.9998 16.795 18.9998 17.3089C18.9998 18.1542 15.5763 19.3332 10.0001 19.3332C4.42399 19.3332 1.00044 18.1542 1.00044 17.3089C1.00044 16.795 2.56706 15.8333 6.76491 15.4333C6.94794 15.4138 7.08056 15.2496 7.06106 15.0666C7.0419 14.8867 6.88261 14.7548 6.70224 14.7697C5.2083 14.912 0.333801 15.5127 0.333801 17.3089C0.333801 19.0756 5.19663 19.9999 10.0001 19.9999C14.8036 19.9999 19.6665 19.0756 19.6665 17.3089C19.6665 15.5127 14.792 14.912 13.298 14.7707Z" fill="white"/>
<path d="M14.0921 1.66966C13.0152 0.579196 11.5393 -0.0237414 10.0069 0.000716101C7.91886 0.0072992 5.99522 1.13488 4.96942 2.95361C3.91383 4.81834 3.85142 7.08509 4.80276 9.00506C5.95547 11.3507 7.35667 13.5659 8.98228 15.6125L9.74592 16.5735C9.80917 16.653 9.90525 16.6995 10.0069 16.6995C10.1089 16.6993 10.2051 16.6525 10.2682 16.5725L11.0119 15.6292C12.635 13.571 14.0423 11.3516 15.2117 9.00573C16.4083 6.56669 15.9618 3.64071 14.0921 1.66966ZM14.6137 8.70907C13.4652 11.0136 12.0832 13.194 10.4892 15.2162L10.0062 15.8288L9.50626 15.1978C7.90936 13.1884 6.53274 11.0134 5.40007 8.71007C4.5464 6.98801 4.60206 4.95471 5.54873 3.28193C6.46141 1.66666 8.17293 0.667692 10.0282 0.667359C11.3711 0.646943 12.6643 1.17488 13.6091 2.12931C15.2865 3.89691 15.6873 6.52148 14.6137 8.70907Z" fill="white"/>
<path d="M12.5215 4.9268C12.4535 4.75584 12.2599 4.6723 12.0889 4.74014C11.9178 4.80817 11.8343 5.00204 11.9024 5.17308C11.9024 5.1732 11.9025 5.17333 11.9025 5.17345C12.0605 5.57111 12.0954 6.00705 12.0025 6.42474C11.8297 7.18584 11.2396 7.78274 10.4806 7.96435C9.79407 8.12831 9.07168 7.92323 8.57365 7.42304C8.06363 6.91014 7.85243 6.17142 8.01434 5.46644C8.25729 4.37011 9.343 3.67826 10.4393 3.92121C10.5642 3.94887 10.6861 3.98825 10.8036 4.03883C10.9729 4.11107 11.1688 4.03237 11.2411 3.863C11.3133 3.69363 11.2346 3.49776 11.0652 3.42552C10.5368 3.20052 9.95077 3.14848 9.39096 3.27685C8.37587 3.50943 7.58615 4.30686 7.36336 5.32411C7.15162 6.25142 7.43107 7.22246 8.10334 7.89536C8.61078 8.40092 9.29829 8.68416 10.0146 8.68266C10.2203 8.68316 10.4255 8.66083 10.6262 8.616C11.641 8.38246 12.43 7.58466 12.6522 6.5674C12.7745 6.01984 12.7289 5.44811 12.5215 4.9268Z" fill="white"/>
</g>
<defs>
<clipPath id="clip0_450_13782">
<rect width="20" height="20" fill="white"/>
</clipPath>
</defs>
</svg>
