<svg width="28" height="28" viewBox="0 0 28 28" fill="none" xmlns="http://www.w3.org/2000/svg">
<path d="M20.7658 20.9229C19.3506 20.9229 18.1992 22.0616 18.1992 23.4613C18.1992 24.861 19.3506 25.9998 20.7658 25.9998C22.1811 25.9998 23.3324 24.861 23.3324 23.4613C23.3324 22.0616 22.1811 20.9229 20.7658 20.9229ZM20.7658 25.0767C19.8653 25.0767 19.1325 24.352 19.1325 23.4613C19.1325 22.5707 19.8653 21.8459 20.7658 21.8459C21.6664 21.8459 22.3992 22.5707 22.3992 23.4613C22.3992 24.352 21.6664 25.0767 20.7658 25.0767Z" fill="#951BC4"/>
<path d="M11.4338 20.9229C10.0186 20.9229 8.86719 22.0616 8.86719 23.4613C8.86719 24.861 10.0186 25.9998 11.4338 25.9998C12.849 25.9998 14.0004 24.861 14.0004 23.4613C14.0004 22.0616 12.849 20.9229 11.4338 20.9229ZM11.4338 25.0767C10.5333 25.0767 9.80047 24.352 9.80047 23.4613C9.80047 22.5707 10.5333 21.8459 11.4338 21.8459C12.3343 21.8459 13.0671 22.5707 13.0671 23.4613C13.0671 24.352 12.3343 25.0767 11.4338 25.0767Z" fill="#951BC4"/>
<path d="M27.7159 5.78176C27.4491 5.43154 27.0423 5.23077 26.5996 5.23077H4.58569L3.91354 2.98638C3.73105 2.3964 3.19146 2 2.5712 2H0.466641C0.208958 1.99995 0 2.20661 0 2.46147C0 2.71633 0.208958 2.92299 0.466641 2.92299H2.57115C2.77852 2.92299 2.95942 3.05707 3.0198 3.25271L3.78678 5.81351C3.7888 5.82027 3.79088 5.82724 3.7929 5.83401L7.75298 19.0137C7.93552 19.6037 8.47506 20.0001 9.09532 20.0001H23.0249C23.6425 20.0001 24.195 19.5925 24.3686 19.009L27.9442 7.00574C28.0675 6.58019 27.9843 6.13424 27.7159 5.78176ZM27.0478 6.74786L23.4731 18.7482C23.4157 18.9418 23.2313 19.077 23.0249 19.077H9.09532C8.88795 19.077 8.70704 18.9429 8.64645 18.747L4.86279 6.15382H26.5996C26.7466 6.15382 26.8817 6.22073 26.9705 6.33728C27.061 6.45606 27.0888 6.6068 27.0478 6.74786Z" fill="#951BC4"/>
</svg>
