<svg width="16" height="16" viewBox="0 0 16 16" fill="none" xmlns="http://www.w3.org/2000/svg">
<path d="M15.8297 6.65715L12.3237 10.2438L13.1517 15.3095C13.1877 15.531 13.101 15.7549 12.9276 15.8872C12.8297 15.9622 12.7132 16 12.5967 16C12.5072 16 12.4171 15.9776 12.335 15.9321L7.99987 13.5404L3.66533 15.9315C3.47621 16.0366 3.246 16.0195 3.07264 15.8866C2.89929 15.7543 2.81261 15.5304 2.84863 15.3089L3.67659 10.2432L0.170009 6.65715C0.0169123 6.50003 -0.0388102 6.26494 0.0276066 6.0517C0.0940233 5.83847 0.270197 5.68194 0.482392 5.64945L5.328 4.91109L7.49499 0.302578C7.68467 -0.100859 8.31506 -0.100859 8.50475 0.302578L10.6717 4.91109L15.5173 5.64945C15.7295 5.68194 15.9057 5.83788 15.9721 6.0517C16.0385 6.26553 15.9828 6.49944 15.8297 6.65715Z" fill="#FDC32A"/>
</svg>
