<svg width="24" height="24" viewBox="0 0 24 24" fill="none" xmlns="http://www.w3.org/2000/svg">
<path d="M2.60869 17.7393C1.1708 17.7393 0 18.909 0 20.3479C0 21.7869 1.1708 22.9566 2.60869 22.9566C4.04658 22.9566 5.21737 21.7869 5.21737 20.3479C5.21737 18.909 4.04662 17.7393 2.60869 17.7393ZM2.60869 21.9131C1.74572 21.9131 1.04348 21.2109 1.04348 20.3479C1.04348 19.485 1.74577 18.7827 2.60869 18.7827C3.47161 18.7827 4.17389 19.485 4.17389 20.3479C4.17389 21.2109 3.47166 21.9131 2.60869 21.9131Z" fill="white"/>
<path d="M6.78252 4.1743H23.4782C23.7662 4.1743 23.9999 3.94058 23.9999 3.65258C23.9999 3.36458 23.7662 3.13086 23.4782 3.13086H6.78252C6.49452 3.13086 6.2608 3.36458 6.2608 3.65258C6.26076 3.94058 6.49452 4.1743 6.78252 4.1743Z" fill="white"/>
<path d="M2.60869 1.04395C1.1708 1.04395 0 2.21366 0 3.65263C0 5.0916 1.1708 6.26132 2.60869 6.26132C4.04658 6.26132 5.21737 5.0916 5.21737 3.65263C5.21737 2.21366 4.04662 1.04395 2.60869 1.04395ZM2.60869 5.21784C1.74572 5.21784 1.04348 4.51555 1.04348 3.65263C1.04348 2.78971 1.74577 2.08743 2.60869 2.08743C3.47161 2.08743 4.17389 2.78971 4.17389 3.65263C4.17389 4.5156 3.47166 5.21784 2.60869 5.21784Z" fill="white"/>
<path d="M2.60869 9.39258C1.1708 9.39258 0 10.5623 0 12.0013C0 13.4402 1.1708 14.61 2.60869 14.61C4.04658 14.61 5.21737 13.4402 5.21737 12.0013C5.21737 10.5623 4.04662 9.39258 2.60869 9.39258ZM2.60869 13.5665C1.74572 13.5665 1.04348 12.8642 1.04348 12.0013C1.04348 11.1383 1.74577 10.4361 2.60869 10.4361C3.47161 10.4361 4.17389 11.1383 4.17389 12.0013C4.17389 12.8642 3.47166 13.5665 2.60869 13.5665Z" fill="white"/>
<path d="M23.4782 11.4785H6.78252C6.49452 11.4785 6.2608 11.7122 6.2608 12.0002C6.2608 12.2882 6.49452 12.522 6.78252 12.522H23.4782C23.7662 12.522 23.9999 12.2882 23.9999 12.0002C23.9999 11.7122 23.7662 11.4785 23.4782 11.4785Z" fill="white"/>
<path d="M23.4782 19.8262H6.78252C6.49452 19.8262 6.2608 20.0599 6.2608 20.3479C6.2608 20.6359 6.49452 20.8696 6.78252 20.8696H23.4782C23.7662 20.8696 23.9999 20.6359 23.9999 20.3479C23.9999 20.0599 23.7662 19.8262 23.4782 19.8262Z" fill="white"/>
</svg>
