<svg width="40" height="40" viewBox="0 0 40 40" fill="none" xmlns="http://www.w3.org/2000/svg">
<g clip-path="url(#clip0_450_19962)">
<path d="M27.1587 26.183L29.4505 24.5098H21.7773V34.5327H29.4505V32.8595H23.9691V30.3004H28.6539V28.6272H23.9691V26.183H27.1587Z" fill="#21A038"/>
<path d="M15.9805 28.4139H13.3236V26.183H17.5757L19.8676 24.5098H11.1309V34.5327H15.6984C18.2561 34.5327 19.7351 33.3844 19.7351 31.3831C19.7351 29.4638 18.4057 28.4139 15.9805 28.4139ZM15.6155 32.8595H13.3236V30.0872H15.6155C17.0106 30.0872 17.6586 30.5465 17.6586 31.4815C17.6586 32.4165 16.9611 32.8595 15.6155 32.8595Z" fill="#21A038"/>
<path d="M35.6633 24.5098H31.4941V34.5327H33.6869V31.6948H35.6805C38.3384 31.6948 39.9993 30.3168 39.9993 28.1023C39.9993 25.8877 38.3383 24.5098 35.6633 24.5098ZM35.6138 30.0215H33.6707V26.183H35.6138C37.0261 26.183 37.7904 26.872 37.7904 28.1023C37.7904 29.3326 37.0261 30.0215 35.6138 30.0215Z" fill="#21A038"/>
<path d="M7.37628 32.3677C6.79498 32.6794 6.14796 32.8434 5.48275 32.8434C3.50632 32.8434 2.07783 31.4491 2.07783 29.5298C2.07783 27.6105 3.50632 26.2162 5.48275 26.2162C6.1975 26.1998 6.89506 26.4294 7.47636 26.8395L9.05448 25.6913L8.95439 25.5928C8.04149 24.789 6.81217 24.3789 5.41704 24.3789C3.90565 24.3789 2.5267 24.8875 1.52989 25.8061C0.533086 26.7575 -0.0310315 28.0862 0.00131925 29.4642C-0.0148561 30.8585 0.533086 32.2037 1.52989 33.1879C2.57624 34.1557 3.97137 34.6971 5.39985 34.6643C6.97796 34.6643 8.35692 34.1229 9.287 33.1387L7.87469 32.1052L7.37628 32.3677Z" fill="#21A038"/>
<path d="M25.7757 7.91406C26.1751 8.42256 26.5067 8.98036 26.7897 9.57086L19.1155 15.1647L15.8926 13.1634V10.7684L19.0983 12.7533L25.7757 7.91406Z" fill="#21A038"/>
<path d="M12.6188 12.9988C12.6188 12.8839 12.6188 12.7855 12.636 12.6707L10.693 12.5723C10.693 12.7035 10.6758 12.8511 10.6758 12.9824C10.6758 15.2789 11.623 17.3623 13.1506 18.8714L14.5296 17.5099C13.3498 16.3616 12.6188 14.7704 12.6188 12.9988Z" fill="url(#paint0_linear_450_19962)"/>
<path d="M19.0969 6.60094C19.2131 6.60094 19.3132 6.60094 19.4295 6.61734L19.5296 4.69804C19.3961 4.69804 19.2465 4.68164 19.1141 4.68164C16.7878 4.68164 14.679 5.61664 13.1504 7.12584L14.5293 8.48734C15.6919 7.32264 17.3196 6.60094 19.0969 6.60094Z" fill="url(#paint1_linear_450_19962)"/>
<path d="M19.0977 19.3963C18.9814 19.3963 18.8824 19.3963 18.7661 19.3799L18.666 21.2991C18.7995 21.2991 18.9481 21.3155 19.0815 21.3155C21.4067 21.3155 23.5166 20.3805 25.0442 18.8713L23.6662 17.5098C22.5036 18.6909 20.8922 19.3963 19.0977 19.3963Z" fill="url(#paint2_linear_450_19962)"/>
<path d="M22.7523 7.71722L24.3971 6.51971C22.9514 5.37141 21.1074 4.66602 19.0977 4.66602V6.58532C20.4604 6.60172 21.7221 7.01182 22.7523 7.71722Z" fill="url(#paint3_linear_450_19962)"/>
<path d="M27.5355 12.9987C27.5355 12.4902 27.486 11.998 27.4031 11.5059L25.5925 12.8346C25.5925 12.8839 25.5925 12.9495 25.5925 12.9987C25.5925 14.8852 24.7614 16.5748 23.4492 17.7395L24.7614 19.1666C26.4558 17.6574 27.5355 15.4429 27.5355 12.9987Z" fill="#21A038"/>
<path d="M19.0973 19.3974C17.1876 19.3974 15.476 18.5773 14.2972 17.2812L12.8516 18.5773C14.3973 20.2669 16.6224 21.3167 19.0973 21.3167V19.3974Z" fill="url(#paint4_linear_450_19962)"/>
<path d="M14.7621 8.25923L13.4499 6.83203C11.7393 8.35763 10.6758 10.5558 10.6758 13H12.6188C12.6188 11.1299 13.4499 9.42393 14.7621 8.25923Z" fill="url(#paint5_linear_450_19962)"/>
</g>
<defs>
<linearGradient id="paint0_linear_450_19962" x1="12.9494" y1="18.6379" x2="11.0042" y2="12.9626" gradientUnits="userSpaceOnUse">
<stop offset="0.1444" stop-color="#F2E913"/>
<stop offset="0.3037" stop-color="#E7E518"/>
<stop offset="0.5823" stop-color="#CADB26"/>
<stop offset="0.891" stop-color="#A3CD39"/>
</linearGradient>
<linearGradient id="paint1_linear_450_19962" x1="13.7044" y1="6.90334" x2="18.731" y2="4.97012" gradientUnits="userSpaceOnUse">
<stop offset="0.0592" stop-color="#0FA8E0"/>
<stop offset="0.5385" stop-color="#0099F9"/>
<stop offset="0.9234" stop-color="#0291EB"/>
</linearGradient>
<linearGradient id="paint2_linear_450_19962" x1="18.5518" y1="19.6783" x2="24.5525" y2="18.3095" gradientUnits="userSpaceOnUse">
<stop offset="0.1226" stop-color="#A3CD39"/>
<stop offset="0.2846" stop-color="#86C339"/>
<stop offset="0.8693" stop-color="#21A038"/>
</linearGradient>
<linearGradient id="paint3_linear_450_19962" x1="18.6983" y1="5.89402" x2="23.685" y2="7.44681" gradientUnits="userSpaceOnUse">
<stop offset="0.0566" stop-color="#0291EB"/>
<stop offset="0.79" stop-color="#0C8ACB"/>
</linearGradient>
<linearGradient id="paint4_linear_450_19962" x1="13.3459" y1="18.889" x2="18.6957" y2="20.9065" gradientUnits="userSpaceOnUse">
<stop offset="0.1324" stop-color="#F2E913"/>
<stop offset="0.2977" stop-color="#EBE716"/>
<stop offset="0.5306" stop-color="#D9E01F"/>
<stop offset="0.8023" stop-color="#BBD62D"/>
<stop offset="0.9829" stop-color="#A3CD39"/>
</linearGradient>
<linearGradient id="paint5_linear_450_19962" x1="12.1548" y1="13.2318" x2="14.2587" y2="7.70625" gradientUnits="userSpaceOnUse">
<stop offset="0.0698" stop-color="#A3CD39"/>
<stop offset="0.2599" stop-color="#81C55F"/>
<stop offset="0.9216" stop-color="#0FA8E0"/>
</linearGradient>
<clipPath id="clip0_450_19962">
<rect width="40" height="40" fill="white"/>
</clipPath>
</defs>
</svg>
