<svg width="36" height="36" viewBox="0 0 36 36" fill="none" xmlns="http://www.w3.org/2000/svg">
<path d="M18 36C27.9411 36 36 27.9411 36 18C36 8.05887 27.9411 0 18 0C8.05887 0 0 8.05887 0 18C0 27.9411 8.05887 36 18 36Z" fill="url(#paint0_linear_1214_2644)"/>
<path fill-rule="evenodd" clip-rule="evenodd" d="M9.23701 16.4574C14.0672 14.3405 17.2882 12.945 18.8997 12.2708C23.5011 10.3456 24.4573 10.0112 25.0804 10.0001C25.2175 9.99771 25.524 10.0319 25.7225 10.1939C26.017 10.4343 26.0187 10.956 25.986 11.3014C25.7366 13.9368 24.6577 20.3321 24.1087 23.2838C23.8764 24.5328 23.4191 24.9516 22.9764 24.9926C22.0142 25.0816 21.2836 24.3529 20.3516 23.7385C18.8934 22.7769 18.0695 22.1783 16.6539 21.24C15.0181 20.1557 16.0786 19.5597 17.0108 18.5857C17.2548 18.3308 21.4943 14.4519 21.5763 14.1001C21.5866 14.056 21.5961 13.892 21.4992 13.8054C21.4023 13.7188 21.2594 13.7484 21.1562 13.7719C21.0099 13.8053 18.6803 15.3542 14.1673 18.4185C13.506 18.8753 12.9071 19.0978 12.3704 19.0862C11.7788 19.0734 10.6409 18.7497 9.79486 18.4731C8.75722 18.1338 7.93252 17.9544 8.00436 17.3782C8.04177 17.078 8.45263 16.7711 9.23701 16.4574Z" fill="white"/>
<defs>
<linearGradient id="paint0_linear_1214_2644" x1="18" y1="0" x2="18" y2="35.7188" gradientUnits="userSpaceOnUse">
<stop stop-color="#2AABEE"/>
<stop offset="1" stop-color="#229ED9"/>
</linearGradient>
</defs>
</svg>
