<svg width="52" height="40" viewBox="0 0 52 40" fill="none" xmlns="http://www.w3.org/2000/svg">
<path d="M19.7405 12.2821L12.9347 27.7569H8.49355L5.14231 15.4082C4.93995 14.6468 4.76445 14.3693 4.14559 14.0482C3.12955 13.5252 1.46611 13.0367 0 12.7316L0.0990812 12.2729H7.24828C7.71431 12.2752 8.16355 12.4352 8.51622 12.7244C8.86889 13.0135 9.10233 13.4128 9.17455 13.8509L10.9438 22.8074L15.3304 12.2821H19.7405ZM37.1457 22.7042C37.165 18.6215 31.2191 18.3968 31.2603 16.5711C31.272 16.0161 31.8279 15.4243 33.0413 15.2752C34.4621 15.1445 35.8937 15.3822 37.1844 15.9633L37.9233 12.6881C36.6663 12.2387 35.3353 12.0057 33.9927 12C29.8513 12 26.9149 14.1032 26.8905 17.1146C26.8645 19.3394 28.978 20.5849 30.5743 21.328C32.2083 22.0849 32.7575 22.5711 32.7407 23.25C32.7407 24.289 31.4333 24.7454 30.2249 24.7638C28.1139 24.7958 26.8855 24.2202 25.9081 23.7867L25.1574 27.1766C26.1398 27.6078 27.9519 27.9817 29.8303 28C34.2454 28 37.1315 25.922 37.1457 22.7042ZM48.1139 27.75H52L48.6076 12.2821H45.0179C44.635 12.2806 44.2605 12.3877 43.9422 12.5899C43.624 12.7922 43.3755 13.0802 43.2293 13.4174L36.9266 27.7569H41.34L42.2158 25.445H47.6059L48.1139 27.75ZM43.4242 22.2752L45.6368 16.4633L46.9106 22.2752H43.4242ZM25.7594 12.2821L22.273 27.7569H18.0695L21.5458 12.2821H25.7594Z" fill="url(#paint0_linear_450_19988)"/>
<defs>
<linearGradient id="paint0_linear_450_19988" x1="0" y1="20" x2="52" y2="20" gradientUnits="userSpaceOnUse">
<stop stop-color="#231F5C"/>
<stop offset="1" stop-color="#034EA2"/>
</linearGradient>
</defs>
</svg>
