<svg width="36" height="36" viewBox="0 0 36 36" fill="none" xmlns="http://www.w3.org/2000/svg">
<path d="M34.3865 17.241C34.3895 17.241 34.3917 17.241 34.3947 17.241C34.6035 17.241 34.8026 17.1535 34.9441 17C35.0878 16.8443 35.1589 16.6355 35.1402 16.4244C34.3887 8.159 27.8452 1.6128 19.5795 0.859834C19.3699 0.843367 19.1588 0.911479 19.0032 1.05594C18.8475 1.19964 18.7607 1.40248 18.7629 1.6143C18.8931 12.599 20.3421 17.0876 34.3865 17.241ZM34.3865 18.7589C20.3421 18.9124 18.8939 23.401 18.7637 34.3857C18.7614 34.5975 18.8482 34.8003 19.0039 34.944C19.1431 35.072 19.325 35.1431 19.5121 35.1431C19.5346 35.1431 19.5578 35.1424 19.5802 35.1401C27.8459 34.3872 34.3895 27.8417 35.1402 19.5755C35.1589 19.3645 35.0885 19.1556 34.9441 19C34.7996 18.8443 34.5983 18.7672 34.3865 18.7589ZM16.3709 0.863576C8.13141 1.63825 1.6088 8.18295 0.861114 16.4259C0.842403 16.637 0.912756 16.8458 1.0572 17.0015C1.19866 17.155 1.39849 17.2418 1.60655 17.2418C1.60955 17.2418 1.61254 17.2418 1.61554 17.2418C15.6135 17.0809 17.0587 12.5945 17.1905 1.61729C17.1927 1.40547 17.1051 1.20189 16.9495 1.05818C16.7923 0.914473 16.582 0.844116 16.3709 0.863576ZM1.61479 18.7582C1.38202 18.732 1.19941 18.8428 1.05646 18.9985C0.912756 19.1541 0.841654 19.363 0.860365 19.574C1.60805 27.817 8.13141 34.3617 16.3709 35.1364C16.3941 35.1386 16.4181 35.1394 16.4413 35.1394C16.6284 35.1394 16.8095 35.069 16.9487 34.941C17.1044 34.7973 17.192 34.5938 17.1897 34.3819C17.058 23.4055 15.6135 18.9191 1.61479 18.7582Z" fill="black"/>
</svg>
