<svg width="116" height="22" viewBox="0 0 116 22" fill="none" xmlns="http://www.w3.org/2000/svg">
<path d="M54.2491 18.5629H56.5414L59.7366 6.80664V18.5629H62.3066V3.02539H58.7641L55.5689 14.4379L52.3737 3.02539H48.7617V18.5629H50.9845V6.80664L54.2491 18.5629ZM73.0731 10.8629C73.0731 8.11289 71.6839 7.08164 68.836 7.08164C67.03 7.08164 65.6408 7.63164 64.8072 8.11289V10.3129C65.5018 9.76289 67.0994 9.21289 68.4887 9.21289C69.8084 9.21289 70.3641 9.69414 70.3641 10.8629V11.4816H69.9473C65.8491 11.4816 63.9737 12.8566 63.9737 15.1254C63.9737 17.3941 65.3629 18.7004 67.4467 18.7004C69.0444 18.7004 69.739 18.2191 70.2252 17.6691H70.3641C70.3641 17.9441 70.503 18.3566 70.5725 18.5629H73.212C73.1426 17.6691 73.0731 16.7066 73.0731 15.8129V10.8629ZM70.3641 15.8816C70.0168 16.3629 69.3917 16.7754 68.4192 16.7754C67.3078 16.7754 66.7521 16.0879 66.7521 15.1254C66.7521 13.8191 67.6551 13.3379 70.0168 13.3379H70.4336V15.8816H70.3641ZM77.727 7.28789H75.2264V21.7941H77.9354V17.2566C78.63 18.2879 79.6024 18.7691 80.7833 18.7691C83.4228 18.7691 85.2288 16.7066 85.2288 12.9254C85.2288 9.14414 83.4923 7.08164 80.9222 7.08164C79.6719 7.08164 78.63 7.63164 77.8659 8.73164L77.727 7.28789ZM80.0192 16.7066C78.63 16.7066 77.8659 15.5379 77.8659 12.9941C77.8659 10.3816 78.63 9.21289 80.1581 9.21289C81.6168 9.21289 82.3809 10.3816 82.3809 12.9254C82.3809 15.5379 81.6168 16.7066 80.0192 16.7066ZM93.6336 18.5629H96.6899L92.3833 12.5129L96.2036 7.28789H93.4947L89.6743 12.5129V7.28789H86.9653V18.5629H89.6743V13.0629L93.6336 18.5629ZM105.72 17.8066V15.6066C104.886 16.1566 103.497 16.6379 102.177 16.6379C100.232 16.6379 99.4683 15.7441 99.3294 13.8191H105.789V12.3754C105.789 8.45664 104.053 7.01289 101.344 7.01289C98.0791 7.01289 96.4815 9.48789 96.4815 12.9254C96.4815 16.8441 98.4264 18.7691 101.83 18.7691C103.705 18.7691 104.956 18.3566 105.72 17.8066ZM101.344 9.21289C102.664 9.21289 103.08 10.3129 103.08 11.6879V11.8941H99.3294C99.3988 10.1066 100.093 9.21289 101.344 9.21289ZM115.444 9.41914V7.28789H106.414V9.41914H109.61V18.5629H112.319V9.41914H115.444Z" fill="black"/>
<path d="M32.7168 21.3125C38.4821 21.3125 43.136 16.7062 43.136 11C43.136 5.29375 38.4821 0.6875 32.7168 0.6875C26.9515 0.6875 22.2976 5.29375 22.2976 11C22.2282 16.7062 26.9515 21.3125 32.7168 21.3125Z" fill="#FED42B"/>
<path d="M10.4192 21.3125C16.1735 21.3125 20.8383 16.6954 20.8383 11C20.8383 5.30456 16.1735 0.6875 10.4192 0.6875C4.66482 0.6875 0 5.30456 0 11C0 16.6954 4.66482 21.3125 10.4192 21.3125Z" fill="#FC3F1D"/>
<path d="M11.9477 6.4625H10.9057C9.09976 6.4625 8.19676 7.35625 8.19676 8.73125C8.19676 10.2438 8.82191 11 10.1417 11.8937L11.1836 12.65L8.19676 17.2563H5.76562L8.61353 13.0625C6.94646 11.8938 6.04347 10.7937 6.04347 8.86875C6.04347 6.4625 7.71054 4.8125 10.9057 4.8125H14.101V17.1875H12.0171V6.4625H11.9477Z" fill="white"/>
<path d="M27.5751 6.32461L18.4062 18.2184L20.8374 20.9684L27.6446 12.0309L26.95 16.9121L30.7703 18.2184L35.4242 10.8621C35.2158 12.2371 34.8685 15.3996 37.9248 16.3621C42.7176 17.8059 46.8853 9.28086 48.8302 4.94961L46.0518 3.50586C43.8985 7.97461 40.5643 12.9246 39.2446 12.5809C37.9248 12.2371 39.1057 8.04336 39.8697 5.36211V5.29336L35.6326 3.84961L30.5619 12.0309L31.2565 7.56211L27.5751 6.32461Z" fill="black"/>
</svg>
