<svg width="32" height="32" viewBox="0 0 32 32" fill="none" xmlns="http://www.w3.org/2000/svg">
<path d="M16 32C24.8366 32 32 24.8366 32 16C32 7.16344 24.8366 0 16 0C7.16344 0 0 7.16344 0 16C0 24.8366 7.16344 32 16 32Z" fill="#E53935"/>
<path d="M21.6607 9.80664H10.3398C8.56199 9.80664 7.11133 11.2573 7.11133 13.0351V18.9586C7.11133 20.7364 8.56199 22.1871 10.3398 22.1871H21.6607C23.4384 22.1871 24.8891 20.7364 24.8891 18.9586V13.0351C24.8891 11.2644 23.4384 9.80664 21.6607 9.80664ZM16.498 17.7498L13.7389 19.4564V16.0431V12.6298L16.498 14.3364L19.2571 16.0431L16.498 17.7498Z" fill="white"/>
</svg>
