<?xml version="1.0"?>
<svg xmlns="http://www.w3.org/2000/svg" id="_x33_0" enable-background="new 0 0 64 64" height="512px" viewBox="0 0 64 64" width="512px" class=""><g><g><g><path d="m22 27h.235l.839-.909c.149-.972.531-1.897 1.127-2.691 1.132-1.51 2.91-2.4 4.799-2.4h1.594c1.602 2.084 3.978 3.51 6.667 3.894l.019.003c.479.069.963.103 1.447.103h.773c.52 0 1.023-.072 1.5-.208v1.218c2.862-.68 5-3.251 5-6.318 0-3.584-2.916-6.5-6.5-6.5h-.672c-1.129 0-2.146.491-2.847 1.271-1.739-.834-3.653-1.271-5.587-1.271h-2.49c-5.461 0-9.904 4.442-9.904 9.903 0 .811.1 1.618.296 2.401l.881 3.524c.408-1.172 1.511-2.02 2.823-2.02z" fill="#f0bc5e" data-original="#F0BC5E" class="active-path" style="fill:#951BC4" data-old_color="#f0bc5e"/></g><g><path d="m28 31.001c.911 0 1.769-.355 2.413-1l.293-.292-1.412-1.416-.294.293c-.535.535-1.464.536-2.001-.001l-.293-.292-1.412 1.416.292.291c.645.646 1.503 1.001 2.414 1.001z" data-original="#000000" class="" style="fill:#3C3C3B" data-old_color="#000000"/><path d="m36 31.001c.911 0 1.769-.355 2.413-1l.293-.292-1.412-1.416-.294.293c-.535.535-1.464.536-2.001-.001l-.293-.292-1.412 1.416.292.291c.645.646 1.503 1.001 2.414 1.001z" data-original="#000000" class="" style="fill:#3C3C3B" data-old_color="#000000"/><path d="m45.497 17.187 1.608-.704c.322.488.651.947.963 1.377 1.036 1.431 1.932 2.666 1.932 4.14v3c0 2.206 1.794 4 4 4s4-1.794 4-4v-3c0-1.474.896-2.709 1.933-4.14 1.366-1.885 3.067-4.233 3.067-7.86 0-4.963-4.037-9-9-9s-9 4.037-9 9c0 1.89.466 3.428 1.102 4.739l-1.67.731c.438.511.8 1.087 1.065 1.717zm10.503 7.813c0 1.103-.897 2-2 2s-2-.897-2-2v-2h4zm-2-22c3.859 0 7 3.141 7 7 0 2.979-1.366 4.863-2.688 6.687-.951 1.312-1.919 2.666-2.214 4.313h-4.198c-.295-1.648-1.263-3.001-2.214-4.313-1.32-1.824-2.686-3.708-2.686-6.687 0-3.859 3.141-7 7-7z" data-original="#000000" class="" style="fill:#3C3C3B" data-old_color="#000000"/><path d="m29.293 35.294 1.414 1.414.586-.586c.723-.723 1.684-1.121 2.707-1.121v-2c-1.558 0-3.021.606-4.121 1.707z" data-original="#000000" class="" style="fill:#3C3C3B" data-old_color="#000000"/><path d="m10 7c1.103 0 2 .897 2 2s-.897 2-2 2h-1v4h2v-2.127c1.724-.444 3-2.013 3-3.873 0-2.206-1.794-4-4-4s-4 1.794-4 4h2c0-1.103.897-2 2-2z" data-original="#000000" class="" style="fill:#3C3C3B" data-old_color="#000000"/><path d="m9 17h2v2h-2z" data-original="#000000" class="" style="fill:#3C3C3B" data-old_color="#000000"/><path d="m6 22v3c0 2.206 1.794 4 4 4s4-1.794 4-4v-3c0-1.474.896-2.709 1.933-4.14.312-.43.641-.889.963-1.378l2.729 1.194c.382-.581.819-1.121 1.311-1.609l-3.038-1.329c.636-1.31 1.102-2.848 1.102-4.738 0-4.963-4.037-9-9-9s-9 4.037-9 9c0 3.627 1.701 5.975 3.067 7.86 1.037 1.431 1.933 2.666 1.933 4.14zm6 3c0 1.103-.897 2-2 2s-2-.897-2-2v-2h4zm-2-22c3.859 0 7 3.141 7 7 0 2.979-1.366 4.863-2.688 6.687-.951 1.312-1.919 2.666-2.214 4.313h-4.197c-.295-1.648-1.263-3.001-2.214-4.313-1.321-1.824-2.687-3.708-2.687-6.687 0-3.859 3.141-7 7-7z" data-original="#000000" class="" style="fill:#3C3C3B" data-old_color="#000000"/><path d="m54 7c1.103 0 2 .897 2 2s-.897 2-2 2h-1v4h2v-2.127c1.724-.444 3-2.013 3-3.873 0-2.206-1.794-4-4-4s-4 1.794-4 4h2c0-1.103.897-2 2-2z" data-original="#000000" class="" style="fill:#3C3C3B" data-old_color="#000000"/><path d="m53 17h2v2h-2z" data-original="#000000" class="" style="fill:#3C3C3B" data-old_color="#000000"/><path d="m10 35c-2.206 0-4 1.794-4 4h2c0-1.103.897-2 2-2s2 .897 2 2-.897 2-2 2h-1v4h2v-2.127c1.724-.444 3-2.013 3-3.873 0-2.206-1.794-4-4-4z" data-original="#000000" class="" style="fill:#3C3C3B" data-old_color="#000000"/><path d="m9 47h2v2h-2z" data-original="#000000" class="" style="fill:#3C3C3B" data-old_color="#000000"/><path d="m54 35c-2.206 0-4 1.794-4 4h2c0-1.103.897-2 2-2s2 .897 2 2-.897 2-2 2h-1v4h2v-2.127c1.724-.444 3-2.013 3-3.873 0-2.206-1.794-4-4-4z" data-original="#000000" class="" style="fill:#3C3C3B" data-old_color="#000000"/><path d="m53 47h2v2h-2z" data-original="#000000" class="" style="fill:#3C3C3B" data-old_color="#000000"/><path d="m54 31c-3.142 0-5.909 1.62-7.519 4.067l-1.974-1.974c.903-.735 1.493-1.841 1.493-3.093 0-2.205-1.794-3.999-4-3.999v-2.532l-1.274.362c-.395.113-.808.17-1.226.17h-.772c-.432 0-.871-.031-1.325-.097-2.401-.343-4.537-1.59-6.016-3.513l-.301-.391h-2.086c-2.192 0-4.285 1.047-5.6 2.8-.702.935-1.15 2.046-1.319 3.2h-.081c-2.206 0-4 1.794-4 4 0 1.252.59 2.358 1.493 3.092l-1.974 1.974c-1.61-2.446-4.377-4.066-7.519-4.066-4.963 0-9 4.037-9 9 0 3.627 1.701 5.975 3.067 7.86 1.037 1.431 1.933 2.666 1.933 4.14v3c0 2.206 1.794 4 4 4s4-1.794 4-4v-3c0-1.122.52-2.106 1.226-3.143-.144.591-.226 1.205-.226 1.838 0 .233.01.467.031.699l.661 7.271c.226 2.472 2.266 4.335 4.747 4.335h27.474l1.056-11.604c.021-.233.031-.467.031-.701 0-.633-.082-1.247-.226-1.838.706 1.037 1.226 2.021 1.226 3.143v3c0 2.206 1.794 4 4 4s4-1.794 4-4v-3c0-1.474.896-2.709 1.933-4.14 1.366-1.885 3.067-4.233 3.067-7.86 0-4.963-4.037-9-9-9zm-10-.999c0 1.103-.897 2-2 2h-.035c.018-.236.036-.473.036-.712v-3.288c1.102 0 1.999.898 1.999 2zm-2.754 4.963c.135-.316.249-.638.349-.963h.405c.183 0 .357-.03.533-.054l3.008 3.008c-.344.953-.541 1.975-.541 3.045 0 1.829.433 3.331 1.037 4.614-.989-.773-2.174-1.317-3.491-1.537l-1.574-.262c.006-.094.028-.185.028-.28 0-1.713-.965-3.189-2.37-3.96 1.11-.972 2.01-2.195 2.616-3.611zm-5.246 11.622-3.586-3.586 2.258-2.258c.478-.478 1.115-.742 1.793-.742 1.397 0 2.535 1.138 2.535 2.535 0 .678-.264 1.314-.742 1.793zm-6.5-3.5-.5-.5v-1.998c.832.248 1.706.378 2.601.397zm-5.5-16.086c0-1.074.355-2.14 1-3 .939-1.252 2.435-1.999 4-1.999h1.115c1.781 2.117 4.251 3.49 7.023 3.887.529.075 1.063.113 1.589.113h.773c.167 0 .334-.007.5-.02l.001 5.308c0 .997-.199 1.969-.628 2.97-.694 1.62-1.932 2.959-3.484 3.797-.718.091-1.397.336-1.99.745-.562.127-1.139.199-1.721.199h-.375c-3.125-.002-5.939-1.859-7.172-4.731-.419-.978-.631-2.013-.631-3.077zm-2 1.001v3.191c0 .272.019.54.041.809h-.041c-1.103 0-2-.897-2-2.001 0-1.103.897-1.999 2-1.999zm-.533 5.946c.176.024.35.054.533.054h.416c.107.357.229.71.377 1.056.867 2.023 2.372 3.622 4.207 4.658v2.439l-5.548.924c-1.316.22-2.501.764-3.489 1.537.604-1.284 1.037-2.786 1.037-4.615 0-1.07-.197-2.092-.541-3.045zm-9.467 21.053c0 1.103-.897 2-2 2s-2-.897-2-2v-2h4zm.099-4h-4.198c-.295-1.648-1.263-3.001-2.214-4.313-1.321-1.824-2.687-3.708-2.687-6.687 0-3.859 3.141-7 7-7s7 3.141 7 7c0 2.979-1.366 4.863-2.688 6.687-.95 1.312-1.918 2.665-2.213 4.313zm5.586 7.483-.661-7.271c-.016-.171-.024-.344-.024-.517 0-2.809 2.011-5.183 4.781-5.646l5.876-.979.429.429-8.793 8.793 1.414 1.414 10.293-10.292 3.586 3.586-12.19 12.189c-.522.523-1.217.811-1.957.811-1.44 0-2.624-1.082-2.754-2.517zm29.292-7.27-.89 9.787h-4.992l.901-9.909-1.992-.182-.917 10.091h-14.673l15.258-15.258c.297-.297.53-.638.731-.995l1.815.302c2.771.464 4.782 2.838 4.782 5.646 0 .173-.008.346-.023.518zm9.023 3.787c0 1.103-.897 2-2 2s-2-.897-2-2v-2h4zm2.313-8.313c-.951 1.312-1.919 2.666-2.214 4.313h-4.198c-.295-1.648-1.263-3.001-2.214-4.313-1.321-1.824-2.687-3.708-2.687-6.687 0-3.859 3.141-7 7-7s7 3.141 7 7c0 2.979-1.366 4.863-2.687 6.687z" data-original="#000000" class="" style="fill:#3C3C3B" data-old_color="#000000"/></g></g></g> </svg>
