<svg width="130" height="130" viewBox="0 0 130 130" fill="none" xmlns="http://www.w3.org/2000/svg">
<path d="M126.746 57.0612L122.95 53.2621C121.39 51.7008 120.45 48.1965 121.022 46.0627L122.408 40.8714C123.18 38.0047 122.781 34.9992 121.286 32.4187C119.795 29.8339 117.399 27.9907 114.535 27.223L109.344 25.8309C107.212 25.2584 104.651 22.6952 104.075 20.5615L102.688 15.3701C101.137 9.56297 94.8708 5.90692 89.047 7.48557L83.8645 8.87339C81.8669 9.4025 78.1577 8.43103 76.6714 6.94779L72.8712 3.13995C68.681 -1.0452 61.3233 -1.04954 57.1244 3.14429L53.3242 6.94779C51.8379 8.44404 48.1157 9.41118 46.1311 8.87773L40.9443 7.48557C35.1162 5.93294 28.8547 9.57164 27.2991 15.3701L25.9168 20.5571C25.3448 22.6952 22.7796 25.2627 20.6476 25.8309L15.4652 27.2187C12.5966 27.9907 10.196 29.8382 8.70538 32.423C7.21476 35.0078 6.82044 38.0047 7.59175 40.8627L8.97837 46.0584C9.55035 48.1965 8.61871 51.6964 7.0501 53.2577L3.25856 57.0569C1.15696 59.1646 0 61.962 0 64.9458C0 67.9296 1.15263 70.7269 3.24989 72.826L7.04143 76.6208C8.60138 78.1865 9.54168 81.6951 8.97404 83.8289L7.58741 89.0202C6.82044 91.8869 7.21909 94.8924 8.70971 97.4729C10.2003 100.058 12.6009 101.901 15.4652 102.664L20.6433 104.052C22.7839 104.629 25.3448 107.196 25.9211 109.326L27.3078 114.517C28.859 120.311 35.1205 123.95 40.9486 122.397L46.1311 121.01C48.1331 120.476 51.8379 121.448 53.3286 122.935L57.1244 126.734C59.2217 128.842 62.0209 130 65.0022 130C67.9834 130 70.7783 128.842 72.8756 126.743L76.6801 122.944C78.1664 121.448 81.8236 120.467 83.8775 121.018L89.0514 122.402C89.9873 122.653 90.9536 122.783 91.9199 122.783H91.9243C96.9594 122.783 101.392 119.387 102.692 114.517L104.075 109.339C104.651 107.201 107.216 104.633 109.348 104.061L114.535 102.673C120.467 101.073 123.999 94.9445 122.4 89.0245L121.017 83.8332C120.445 81.6951 121.381 78.1908 122.941 76.6295L126.741 72.8304C131.088 68.4717 131.083 61.4025 126.746 57.0612ZM94.0605 50.6642L59.395 85.3598C58.55 86.2055 57.4408 86.6305 56.3315 86.6305C55.2222 86.6305 54.1129 86.2055 53.2679 85.3598L35.9351 68.012C34.2409 66.3163 34.2409 63.5753 35.9351 61.8796C37.6294 60.1838 40.368 60.1838 42.0623 61.8796L56.3315 76.1611L87.9334 44.5318C89.6277 42.836 92.3663 42.836 94.0605 44.5318C95.7548 46.2275 95.7548 48.9685 94.0605 50.6642Z" fill="#56C456"/>
</svg>
