<?xml version="1.0" standalone="no"?>
<!DOCTYPE svg PUBLIC "-//W3C//DTD SVG 20010904//EN"
 "http://www.w3.org/TR/2001/REC-SVG-20010904/DTD/svg10.dtd">
<svg version="1.0" xmlns="http://www.w3.org/2000/svg"
 width="600.000000pt" height="600.000000pt" viewBox="0 0 600.000000 600.000000"
 preserveAspectRatio="xMidYMid meet">
<metadata>
Created by potrace 1.11, written by Peter Selinger 2001-2013
</metadata>
<g transform="translate(0.000000,600.000000) scale(0.100000,-0.100000)"
fill="#000000" stroke="none">
<path d="M1498 4095 c-3 -456 -4 -832 -3 -833 2 -2 519 -8 1149 -13 l1146 -9
46 21 c119 56 176 180 140 303 -18 60 -69 127 -117 151 -61 32 -124 35 -810
35 -382 1 -767 4 -856 7 l-162 6 6 306 c3 168 6 306 7 306 0 0 406 -3 901 -6
l900 -6 96 -26 c319 -84 548 -318 635 -647 25 -95 23 -309 -4 -411 -83 -310
-320 -547 -628 -630 -78 -21 -85 -22 -989 -18 -1574 7 -1594 7 -1712 -19 -286
-62 -506 -182 -712 -389 -62 -62 -112 -115 -110 -117 5 -4 2515 -21 3094 -21
380 0 405 2 505 23 278 61 506 186 705 386 278 280 423 648 409 1046 -22 663
-478 1206 -1126 1341 -100 20 -137 21 -1158 30 -580 5 -1121 10 -1201 11
l-146 3 -5 -830z"/>
<path d="M5475 2566 c-47 -93 -154 -252 -237 -351 -284 -340 -675 -577 -1100
-665 -200 -41 -221 -42 -1548 -35 -1170 7 -1282 6 -1355 -10 -278 -58 -522
-192 -721 -398 l-99 -102 275 -7 c471 -12 3530 -27 3605 -17 332 41 611 182
846 426 147 153 249 321 313 513 61 183 71 252 71 475 0 116 -4 207 -10 216
-8 12 -16 4 -40 -45z"/>
</g>
</svg>
